<?xml version="1.0" encoding="UTF-8"?>
<svg id="Objects" xmlns="http://www.w3.org/2000/svg" viewBox="0 0 500 500">
  <defs>
    <style>
      .cls-1 {
        fill: #de953d;
      }

      .cls-2 {
        fill: #b7572c;
      }

      .cls-3 {
        fill: #280d05;
      }

      .cls-4 {
        fill: #f9da55;
      }
    </style>
  </defs>
  <path class="cls-4" d="M456.95,142.22c1.35-2.37,2.59-4.8,3.78-7.26-7.57,3.89-14.65,8.5-21.57,13.44-1.03,1.76-2.11,3.49-3.2,5.21,5.29-1.96,10.77-3.27,16.34-4.06,1.46-2.48,3.21-4.82,4.64-7.33Z"/>
  <path class="cls-4" d="M350.66,78.7c-.08.06-.15.13-.23.19-.07.2-.12.41-.19.62-.29.8-1.13,1.15-1.87,1.07-3.09,2.68-5.73,5.81-8.15,9.33-.04.5-.08,1-.13,1.5-.25,2.2-.42,4.62-1.09,6.8,1.47-1.07,3.02-2.06,4.63-3.01,1.47-5.58,4.36-11.16,7.04-16.49Z"/>
  <path class="cls-1" d="M287.68,174.74c9.91-10.1,19.64-20.38,29.68-30.35-.36-.08-.72-.26-.99-.61-.17-.23-.33-.46-.49-.69-.06.18-.15.36-.34.53-19.53,17.31-35.94,37.26-53.76,56.12.45.29.9.59,1.34.91,7.1-9.39,16.34-17.53,24.56-25.9Z"/>
  <path class="cls-1" d="M315.19,113.72c-3.51,8.97-2.69,18.44,2.76,26.61,1.59-9.09.81-18.2-2.76-26.61Z"/>
  <path class="cls-2" d="M263.01,234.47c.1.16.2.32.3.48-1.39-5.11-3.24-10-5.63-14.83-4.08-2.97-11.95-9.39-14.65-4.58,8.74,2.72,14.95,11.07,19.98,18.94Z"/>
  <path class="cls-2" d="M251.76,210c-.5.61-1.05,1.19-1.62,1.76,1.26.38,2.55.92,3.79,1.61-.69-1.12-1.41-2.24-2.17-3.36Z"/>
  <path class="cls-2" d="M18.5,409.8c1.21-1.13,2.48-2.22,3.71-3.33,2.76-2.49,5.46-5.32,8.58-7.41.05-.22.17-.43.37-.64,29.9-31.3,65.51-58.44,99.78-84.98,32.55-25.2,66.01-49.42,100.74-71.67-.7-1.25-1.37-2.5-2.04-3.75-38.85,24.83-76.7,51.14-113.33,79.03-18.29,13.93-36.28,28.23-53.96,42.89-16.11,13.36-31.3,28.81-48.45,40.89,2.95.92,4.77,5.06,4.71,7.86,0,.36-.06.73-.11,1.11Z"/>
  <path class="cls-1" d="M327.41,131.81c-.43.26-.87.51-1.3.79-1.57,1.06-2.73,2.37-4.12,3.6-.08.08-.18.13-.27.17-.29.5-.57,1-.89,1.49-.08.12-.17.22-.28.29-.15.6-.26,1.2-.44,1.8,2.15-1.26,4.41-2.05,7.16-1.92-.12-2.07-.06-4.15.13-6.23Z"/>
  <path class="cls-2" d="M10.82,403.11c-.19-.16-.3-.35-.37-.55-.96,1.44-1.66,3.02-1.95,4.76-.36,2.16-.52,5.76,2.09,6.52,3.37.98,4.87-4.13,4.28-6.66-.52-2.22-2.49-2.78-4.06-4.07Z"/>
  <path class="cls-1" d="M17.58,373.07c13.97-14.27,30.76-26.62,46.36-38.85,16.66-13.05,33.74-25.6,51.17-37.63,6.46-4.46,12.98-8.81,19.54-13.13-7.96,4.47-15.88,9.06-23.69,13.87-18.02,11.1-35.69,22.74-53,34.89-15.71,11.03-30.55,23.6-46.61,34.13,2.88.74,5.43,3.79,6.22,6.71Z"/>
  <path class="cls-1" d="M61.01,341.94c-15.05,11.93-29.21,25.39-44.79,36.67,2.47,2.09,3.71,8.39,4,11.56,13.51-13.27,29.32-25.07,43.7-36.91,17.3-14.24,34.89-28.13,52.76-41.68,35.94-27.24,73.03-52.99,111.09-77.3-.12-.27-.24-.55-.36-.82-1.99,1.25-3.99,2.5-6.01,3.7-.12.18-.28.35-.5.47-1.17.64-2.35,1.26-3.53,1.89-15.02,8.71-30.69,16.55-45.52,25.49-18.55,11.19-36.74,22.95-54.55,35.24-19.23,13.27-38.01,27.18-56.3,41.68Z"/>
  <path class="cls-4" d="M324.46,100.84c-2.4,5.04-3.26,10.08-4.27,15.91,1,3.53,1.56,7.1,1.63,10.71,2.48-8.73,4.25-17.68,2.64-26.62Z"/>
  <path class="cls-2" d="M12.06,378.97c1.02-1.15,2.11-2.27,3.17-3.39-.21-.12-.41-.25-.55-.44-.99-1.25-1.74-4.12-3.44-4.63-2.59-.79-2.99,1.86-2.96,3.82.05,2.8.97,5.38,1.53,8.04.53-1.24,1.22-2.33,2.12-3.17.04-.07.07-.15.13-.22Z"/>
  <path class="cls-2" d="M33.59,343.96c-.2.08-.41.16-.61.24-6.74,2.55-24.8,6.64-20.65,16.58,6.68-5.96,13.9-11.49,21.27-16.82Z"/>
  <path class="cls-2" d="M14.71,382.45c-1.07-.34-1.24,1.2-1.57,2.14-1.56,4.45-.67,8.29.4,12.52,1.48-1.62,2.97-3.24,4.52-4.82-.03-.04-.07-.07-.1-.12-1.21-1.96-1.67-4.11-2.29-6.31-.1-.37-.58-3.28-.96-3.41Z"/>
  <path class="cls-1" d="M328.1,144.04c-.13-.58-.25-1.17-.35-1.75-2.67-.05-5.77.04-8.29,1.15,0,0-.01.01-.01.02,1.56.93,2.96,2.06,4.91,1.96,1.42-.07,2.49-.95,3.74-1.38Z"/>
  <path class="cls-4" d="M368.83,59.71c1.25-3.96,3.06-7.87,5.07-11.62-3.73,4.45-6.93,9.38-10.07,14.18-.11.78-.2,1.57-.34,2.36,1.61-1.64,3.43-3.05,5.35-4.35-.05-.17-.07-.36,0-.57Z"/>
  <path class="cls-4" d="M356.13,75.12c-.83,1.9-1.63,3.91-2.44,5.95.34-.28.71-.52,1.07-.78,1.04-3.55,2.81-6.81,3.97-10.33.88-2.68,1.48-5.41,1.91-8.18-2.87,2.97-5.5,6.13-8.41,9.09-.08.08-.16.13-.24.17-.11,1.03-.24,2.06-.41,3.08.74-.45,1.48-.88,2.25-1.28,1.6-.84,2.95.8,2.31,2.26Z"/>
  <path class="cls-4" d="M345.69,117.56c.68,2.47,1.08,5.07.94,7.53,1.31-2.78,2.8-5.45,4.43-8-.87-5.35-.65-11.15-.41-16.72-2.76,5.32-3.48,11.26-4.96,17.18Z"/>
  <path class="cls-4" d="M359.27,78.69c1.68-1.85,3.36-3.71,4.83-5.76,2.05-2.86,3.83-5.9,5.41-9.04-2.36,1.65-4.63,3.41-6.97,5.13-.89,3.35-2.14,6.59-3.97,9.38.26.04.5.15.71.29Z"/>
  <path class="cls-4" d="M362.43,101.16c.28-4.58,1.33-9.24,2.54-13.85-3.89,6.15-7.24,12.62-10.17,19.3.02.95.04,1.9.04,2.85,1.73-3.32,4.56-6.06,7.59-8.31Z"/>
  <path class="cls-4" d="M430.42,162.18c5.31-.81,10.71-1.13,16.08-.97.75.02,1.31.35,1.65.82,2.15-.34,4.29-.68,6.44-1.01,3.44-2.3,6.63-4.85,9.65-7.61-10.91.25-21.28,2.47-31.78,5.71-.65,1.04-1.31,2.07-2.05,3.05Z"/>
  <path class="cls-2" d="M319.29,157.68c-3.01,2.38-6.1,4.65-9.2,6.9-3.18,3.5-6.42,6.98-9.7,10.4,4.87-3.17,9.89-6.09,14.94-8.8,2.56-2.07,5.34-3.94,8-5.8,2.97-2.07,6.09-4.37,9.41-6.09-1.89-1.03-3.44-2.57-3.95-4.2-2.96,2.73-6.38,5.12-9.49,7.58Z"/>
  <path class="cls-4" d="M334.01,117.64c.03.07.06.14.09.21,2.39-6.02,5.44-11.79,8.02-17.75-3.2,2.09-6.22,4.42-9.16,6.88-.16,3.39-.55,6.77-1.24,10.06.81-.44,1.85-.42,2.29.59Z"/>
  <path class="cls-4" d="M332.47,124.05c-2.15,7.66-2.01,15.12-.77,23.21,2.54-7.73,2.93-15.46.77-23.21Z"/>
  <path class="cls-4" d="M347.34,96.42c-1.66,4.69-3.49,9.58-5.81,14.18.73-.13,1.49.09,1.87.88.16.32.31.67.46,1.01.51-5.1,1.92-10.14,4.4-14.6.98-2.64,3.2-4.98,4.49-7.45.83-1.59,1.49-3.21,2.09-4.85-.42-.34-.64-.9-.26-1.41.38-.51.8-.98,1.2-1.47-1.46.89-2.78,1.95-4.02,3.17-1.34,3.24-2.8,6.44-4.55,9.33.2.35.29.77.13,1.22Z"/>
  <path class="cls-1" d="M327.83,127.75c-.17-.17-.3-.38-.31-.64-.02-.91.4-1.78.58-2.67.03-.14.04-.27.07-.41-.12-.18-.17-.41-.12-.68,1.45-8.24,2.33-15.83,1.69-23.82-.61,1.38-1.31,2.71-2.06,4,.37,8.82.18,17.59-2.72,25.85.86-.66,1.85-1.26,2.87-1.62Z"/>
  <path class="cls-4" d="M335.7,100.81c-.48-3.37.7-6.85,1.03-10.22.19-1.94.27-3.87.28-5.8-.5,1.38-.99,2.76-1.4,4.17-.97,3.3-1.59,6.72-2.71,9.97.08,1.47.14,2.95.14,4.43.85-.89,1.74-1.74,2.66-2.55Z"/>
  <path class="cls-4" d="M347.34,77.14c.38-2.94.94-5.87,1.45-8.81-3.4,4.69-5.98,9.71-8.3,15.13,0,.46.02.92.01,1.39,1.8-2.94,4.15-5.5,6.84-7.7Z"/>
  <path class="cls-2" d="M41.19,441.41c-1.29.85-2.84,1.22-4.47,1.22,1.06,2.4,2.07,4.94,3.81,6.81.94,1.02,2.31,2.31,2.88-.57.16-.8-.28-1.94-.49-2.71-.45-1.63-1.04-3.21-1.73-4.76Z"/>
  <path class="cls-1" d="M267.66,213.6c-1.2-2.41-2.9-4.35-5.11-5.84-2.51-2.97-5.59-2.64-9.24.98.02.16-.01.3-.06.43,10.38,10.72,17.1,26.02,16.64,40.98.03.22.03.44.05.65,5.47-7.72,5.08-14.42,2.44-24.31-1.15-4.32-2.42-9.04-4.72-12.9Z"/>
  <path class="cls-1" d="M348.04,166.71s.03-.01.05-.02c-.09-.16-.21-.32-.28-.47-.2-.46-.28-.91-.22-1.34-1.63-.13-3.26-.36-4.88-.72-23.52,16.78-43.73,36.31-65.29,55.16.49,1.14.94,2.3,1.34,3.47,20.15-21.19,45.48-39.23,69.26-56.06Z"/>
  <path class="cls-2" d="M340.41,161.73c-.3-.19-.5-.51-.54-.84-11.04,8.42-22.57,16.19-33.3,25.05-10.9,8.99-20.75,19.29-31.7,28.18.48.85.94,1.71,1.37,2.59,18.2-21.06,41.59-38.86,64.17-54.97Z"/>
  <path class="cls-1" d="M265.9,248.07c-1.61-5.69-6.09-11.56-8.82-15.51-5.26-7.58-11.45-13.75-21.01-13.85,13.66,9.55,22.92,24.17,27.97,39.74,1.73-1.87,2.45-4.01,2.48-6.27-.05-.14-.11-.28-.13-.45-.14-1.25-.31-2.45-.48-3.66Z"/>
  <path class="cls-1" d="M244.34,231.52c-.56-.69-1.13-1.38-1.72-2.06-4.5-4.53-10.26-4.15-16.22-4.47,14.78,12.06,22.88,32.67,22.37,51.37,2.15-2.25,3.6-4.75,4.54-8.16.13-.47.4-.77.73-.96-.14-.35-.11-.76.28-1.12h0c-1.39-7.15-2.91-14.22-5.02-21.24-1.27-4.25-2.39-9.66-4.97-13.36Z"/>
  <path class="cls-2" d="M256.86,263.28c.51-.67,1.02-1.34,1.46-2.07.51-.85.9-1.98,1.51-2.85-1.58-4.4-3.49-8.56-5.69-12.51,1.42,5.82,2.21,11.93,2.72,17.43Z"/>
  <path class="cls-1" d="M373.39,183.19c-.72.86-1.44,1.69-2.05,2.48-.24.32-.5.68-.77,1.06,9-3.66,19.72-.26,28.59,4.37.16-.14.36-.26.63-.32,8-1.79,14.93-3.54,21.51-7.89-16.15-3.21-31.62-3.31-47.92.3Z"/>
  <path class="cls-2" d="M154.52,350.13c-14.97,14.14-29.65,28.57-44.06,43.26-.29.3-.58.61-.87.91-2.37,3.33-4.78,6.64-7.25,9.91-3.1,4.77-6.41,9.42-9.92,13.92-3.39,6.12-7.83,11.93-11.75,17.3-4.17,5.73-8.56,11.51-13.47,16.74,3.42,1.66,5.62,6.34,6.77,9.59.2.57.43,1.24.62,1.97,10.23-16.44,23.44-31.67,35.52-46.7,13.29-16.54,27.05-32.72,41.23-48.54,29.1-32.46,60.02-63.29,92.48-92.51-.35-1.21-.67-2.42-.98-3.63-30.06,25.26-59.8,50.84-88.32,77.78Z"/>
  <path class="cls-1" d="M124.91,338.72c38.17-28.7,75.47-57.26,110.96-89.05-.74-1.54-1.53-3.05-2.34-4.54-34.8,23.81-69.21,48.08-102.46,73.96-33.03,25.7-63.65,54.16-96.41,80.11,2.51.72,5.11,3.62,6.07,5.34,1.08,1.96,1.65,4.52,1.21,6.8,24.72-27.16,53.48-50.42,82.98-72.6Z"/>
  <path class="cls-1" d="M355.13,172.97c.1-.07.2-.08.3-.12-.67-.71-1.29-1.5-1.87-2.39-1.05-.14-2.12-.62-3.07-1.28-.13.25-.31.48-.58.67-24.58,17.32-46.59,37.3-70.29,55.56.29.97.54,1.94.76,2.91,10.54-9.31,22.57-17.29,33.88-25.58,13.59-9.95,27.03-20.16,40.87-29.77Z"/>
  <path class="cls-4" d="M419.5,178c.12-.17.26-.32.49-.42,8.13-3.67,15.31-6.48,21.59-12.22-14.01.32-26.37,4.34-39.03,10.47,5.68.11,11.36.82,16.95,2.18Z"/>
  <path class="cls-2" d="M361.6,184.72c-11.5,6.95-24.15,12.41-35.89,18.98-9.82,5.5-19.38,12.34-29.59,17.24-4.95,3.56-9.99,6.95-15.19,10.04.46,2.58.71,5.14.75,7.63,10.93-9.74,25.13-17.1,37.61-24.51,14.63-8.68,29.52-17.48,44.95-24.74,0,0,0,0,0,0-1.33-1.07-2.11-3.08-2.63-4.64Z"/>
  <path class="cls-1" d="M372.06,178.59c-3.06-.01-6-.33-8.7-1.1.29,1.31.57,2.62.95,3.91.38,1.34,1.04,2.55,1.49,3.86.41,1.17.07,1.49,1.05.21,1.48-1.92,2.91-3.86,4.38-5.78.28-.37.55-.73.83-1.1Z"/>
  <path class="cls-1" d="M370.52,190.29c8.67,7.21,18.53,10.68,29.68,6.7,0-.13.03-.25.08-.37-9.83-4.94-18.54-8.54-29.76-6.33Z"/>
  <path class="cls-1" d="M43.34,434.06c4.21-5,8.72-9.81,13.36-14.53,0-.04,0-.08,0-.11.11-.95.9-1.54,1.69-1.62,9.22-9.26,18.93-18.14,28.1-27.14,16.42-16.1,33.34-31.73,50.52-47.05,32.94-29.37,66.99-57.93,102.5-84.31-.6-2.03-1.26-4.04-2.06-6.04-29.77,31.67-67.44,56.73-102.14,82.7-36.87,27.59-73.28,56.36-102.27,92.1,2.75-.05,5.95,1.02,7.41,2.1,1.3.97,2.32,2.37,2.89,3.9Z"/>
  <path class="cls-1" d="M107.35,390.34c13.92-14.24,28.13-28.2,42.6-41.91,29.48-27.93,59.92-55,91.88-80.17-.4-1.64-.8-3.28-1.22-4.91-34.29,26.92-68.18,54.13-100.83,82.99-17.26,15.25-34.18,30.86-50.94,46.64-9.25,8.71-18.06,18.05-27.09,27.14,3.25,1.43,6.28,7.07,7.31,11.8,10.91-15.05,25.34-28.33,38.28-41.57Z"/>
  <path class="cls-2" d="M60.95,423.94c.14.98.29,1.96.5,2.93.35,1.58,1.02,6.71,2.38,7.67,2.22,1.57,1.1-1.37.9-2.23-.26-1.13-.62-2.29-1.06-3.37-.4-.99-1.43-3.49-2.73-5Z"/>
  <path class="cls-2" d="M29.64,411.78c-.81-1.61-1.29-3.59-1.33-5.56-1.34,1.09-2.7,2.17-3.97,3.27-1.1.95-2.19,1.93-3.29,2.88,2.36,1.75,4,4.5,4.54,7.33.21,1.09.23,2.28.05,3.43,1.73-1.41,3.44-2.85,5.09-4.34,1.03-.94,2.02-2.03,3.06-3.03-1.76-.8-3.3-2.29-4.15-3.98Z"/>
  <path class="cls-2" d="M17.74,414.98c-.22,1.53-.51,3.04-.41,4.61.08,1.36.89,6.1,3.42,4.82,1.72-.87.77-4.54.27-5.7-.74-1.69-1.89-2.71-3.28-3.73Z"/>
  <path class="cls-1" d="M32.5,402.45c-.33,1.82-.69,3.61-.29,5.49.29,1.38.9,2.92,2.03,3.82,1.67,1.33,3.59.61,3.91-1.46.38-2.48-1.16-5.08-3.16-6.51-.84-.6-1.74-.87-2.49-1.34Z"/>
  <path class="cls-2" d="M52.57,447.44c1.2,2.79,3.59,8.96,4.61,8.67.34-.1-2.73-6.61-3.93-9.25-.23.2-.46.39-.68.58Z"/>
  <path class="cls-2" d="M35.58,432.44c-2.02-.51-4.15.57-6.08.06-.26.34-.53.66-.8,1,0,0,0,0,0,0,.07.35.15.7.32,1.04.69,1.38,1.98,2.17,3.4,2.73,1.6.62,4.73,1.69,6.29.5,2.51-1.92-1.37-4.88-3.13-5.33Z"/>
  <path class="cls-2" d="M65.3,454.15c-.5.5-1.01.99-1.52,1.47.57,1.83.79,3.85,1.59,5.58.64,1.36,3.72,7.15,5.4,6.21,1.51-.84-1.48-6.91-2.09-8.04-.97-1.8-2.49-3.39-3.39-5.23Z"/>
  <path class="cls-2" d="M86.35,420.41c-.26-.24-.37-.6-.19-1-5.37,5.63-10.87,11.11-16.75,16.06-.05.86-.2,1.61-.52,2.18-1.51,2.73-4.46,2.59-6.63,1.14-2.29,2.11-4.59,4.18-6.92,6.24,2.41,2.25,3.87,5.58,4.91,8.61.05.15.08.31.13.47.07-.23.11-.47.21-.68.31-.65,1.05-.71,1.62-.44,5.45-6.91,11.28-13.53,16.46-20.66,2.74-3.78,5.18-7.87,7.67-11.91Z"/>
  <path class="cls-4" d="M377.93,80.37c-3.19,2.91-6.09,6.07-8.96,9.35-.59,2.91-1.23,5.81-2.1,8.59,1.16-.65,2.35-1.25,3.56-1.8,1.81-5.46,4.65-10.9,7.51-16.14Z"/>
  <path class="cls-2" d="M57.87,429.23c-.32-1.4-.65-2.87-.9-4.35-4.31,4.23-8.68,8.39-13.2,12.34-.04.37-.12.74-.22,1.1.26.17.49.38.6.62.95,2.02,2.65,5.9,2.93,9.27,4.14-4.21,8.48-8.18,12.87-12.18-1.02-2.1-1.57-4.58-2.08-6.8Z"/>
  <path class="cls-4" d="M356.36,116.67c-7.14,11.88-10.41,23.13-11.99,36.64,6.48-11.88,11.39-23.05,11.99-36.64Z"/>
  <path class="cls-4" d="M456.8,149.02c2.49-.23,5-.34,7.52-.37,2.89-3.17,6.26-5.92,9.15-9.1,2.66-2.92,5.05-6.04,7.27-9.27-6.1,2.74-12.11,5.82-17.81,9.18-1.76,3.35-3.77,6.7-6.13,9.56Z"/>
  <path class="cls-1" d="M378.87,147.45c-.58.3-1.13.02-1.36-.42-.5.45-.99.91-1.51,1.33,1.55.03,3.11.1,4.66.24,1.79.16,3.33,2.49,1.64,3.88-1.8,1.48-3.73,2.86-5.74,4.14,2.76-.53,5.55-.89,8.35-1.12,4.5-5.18,8.9-10.22,12.72-15.78-.25-.53-.3-1.15-.11-1.71-6.42,2.73-12.34,6.23-18.64,9.45Z"/>
  <path class="cls-4" d="M362.68,163.06c-.4,1.3-1.48,2.47-2.31,3.51-.64.8-1.28,1.58-1.92,2.37,7.27-2.54,15.1-2.93,22.75-1.83.05-.05.08-.13.14-.17,4.89-3.06,9.85-4.63,14.43-7.67-10.46-.24-20.71,1.07-31.03,3.11-.69.24-1.37.48-2.06.68Z"/>
  <path class="cls-4" d="M379.7,111.07c-.41,2.6-.97,5.25-1.74,7.86,3.43-2.33,7.05-4.29,10.82-5.95.34-4.51,1.28-9.18,2.47-13.65-4.77,2.91-8.82,6.92-11.55,11.74Z"/>
  <path class="cls-1" d="M348.06,154.74c6.62-3.57,13.99-5.54,21.55-6.16,2.56-2.53,5.42-4.84,7.83-7.52,2.55-2.83,4.81-5.85,6.87-9-11.44,4.05-21.76,9.8-32.09,16.12-1.22,2.29-2.59,4.5-4.15,6.57Z"/>
  <path class="cls-4" d="M356.25,167.71c.05.06.07.14.12.21.58-1.02,1.14-2.04,1.74-3.05.15-.25.3-.51.45-.78-2.14.43-4.3.76-6.47.85.38.39.78.76,1.26,1.05.94.56,2.16.92,2.9,1.72Z"/>
  <path class="cls-4" d="M397.74,164.19c-.63.12-1.26.23-1.9.31-2.58,1.73-5.38,3.14-8.29,3.85,1.77.44,3.5.97,5.22,1.55,1.16-2.13,3.01-4.03,4.96-5.71Z"/>
  <path class="cls-4" d="M434.34,123.74c2.52-4.83,5.77-9.26,8.44-14.02,1.26-2.24,2.45-4.51,3.56-6.83.43-.9,1.29-2.19,1.46-2.34-.08.08-1.26,1.62-1.79,2.09-7.05,6.44-13.07,13.74-19.1,21.06-1.07,1.9-2.21,3.81-3.43,5.69,3.48-2.06,7.08-3.86,10.8-5.43.02-.08.03-.16.07-.23Z"/>
  <path class="cls-4" d="M438.77,122.21c1.93-.69,3.89-1.32,5.89-1.89.97-.27,1.68.19,1.99.88,2.91-2.31,6.13-4.32,8.88-6.8,3.45-3.12,6.01-7.37,9.32-10.51-.58.13-1.14.24-1.45.35-2.7.96-5.31,2.11-7.84,3.43-4.55,2.36-8.56,5.35-12.53,8.5-1.3,2.09-2.7,4.13-4.25,6.04Z"/>
  <path class="cls-4" d="M411.48,143.33c1.84-.36,3.69-.66,5.56-.95.08-.07.13-.14.23-.2,8.25-4.88,15.64-9.99,22.19-16.59-6.99,2.36-13.67,5.48-19.95,9.36-2.41,3.06-5.07,5.93-8.02,8.39Z"/>
  <path class="cls-1" d="M389.18,155.23c3.98-.14,7.99-.04,12.01.29,1.47.12,2.48,1.62,1.86,2.87,6.91-3,12.87-7.29,18.15-12.89-8.91.98-17.89,2.42-26.58,4.45-1.69,1.89-3.5,3.68-5.45,5.29Z"/>
  <path class="cls-4" d="M397.2,146.85c2.98-.87,5.95-1.63,8.93-2.33,5.06-6.19,10.24-11.96,14.62-18.5-5.98,2.94-11.2,6.76-16.75,10.52-1.99,3.54-4.23,7.05-6.79,10.32Z"/>
  <path class="cls-4" d="M371.69,132.67c.68-.32,1.38-.61,2.07-.92.19-.2.43-.36.79-.43.14-.02.27-.08.41-.11,1.81-.78,3.64-1.52,5.49-2.2,3.67-2.17,6.89-5.33,10.11-7.93,3.1-2.5,6.18-4.9,8.66-7.86-8.01,2.25-15.5,5.64-22.65,9.92-1.28,3.37-2.9,6.61-4.87,9.52Z"/>
  <path class="cls-1" d="M401.13,173.44c1.26-.89,2.56-1.7,3.88-2.48,3.45-3.66,6.23-8.05,8.05-12.72-3.33,1.78-6.52,3.8-9.48,6.15-2.5,1.98-4.71,4.71-7.25,6.8,1.47.58,2.93,1.2,4.34,1.86.2.1.33.24.47.39Z"/>
  <path class="cls-4" d="M411.84,167.44c4.18-1.83,8.54-3.23,13.01-4.23,1.3-3.52,4.29-6.66,6.32-9.75,1.58-2.4,3.07-4.86,4.56-7.31-6.47,3.09-12.69,6.59-18.36,11.02-1.29,3.88-3.1,7.28-5.54,10.28Z"/>
  <path class="cls-4" d="M323.74,149.24c-.23-.02-.45-.07-.68-.12.03.3-.06.62-.3.92-1.1,1.33-2.24,2.65-3.37,3.98,1.86-1.58,3.73-3.23,5.66-4.77-.46.03-.91.04-1.31,0Z"/>
  <path class="cls-2" d="M357.64,174.8c-.06.28-.19.55-.47.77-11.81,9.16-23.99,17.87-36.05,26.71,1.52-.85,3.03-1.69,4.51-2.54,11.27-6.45,22.89-13.6,35.1-18.29-.29-1.63-.33-3.29.02-4.91-1.09-.48-2.15-1.04-3.12-1.74Z"/>
  <path class="cls-4" d="M383.37,177.77c-2.25.27-4.52.51-6.77.67-.2.47-.45.93-.72,1.39,2.48-.8,4.98-1.49,7.5-2.05Z"/>
  <path class="cls-1" d="M360.08,171.09c9.37,4.84,19.18,2.74,29.42,1.87-9.59-2.7-19.12-2.72-29.42-1.87Z"/>
  <path class="cls-4" d="M339.2,157.57c.34-.2.67-.4,1-.6-.06-.78-.06-1.57-.08-2.36-1.22.92-2.86,1.09-4.53.75-1.21.99-2.47,1.94-3.8,2.82,1.56-.69,3.12-1.36,4.65-1.99,1.31-.54,2.49.37,2.76,1.39Z"/>
  <path class="cls-2" d="M304.08,183.5c9-7.4,18.32-14.99,28.15-21.54-10.83,4.88-21.23,10.62-30.96,17.43-11.62,8.13-21.02,18.18-31.64,27.26,1.37,1.59,2.63,3.3,3.79,5.09,8.88-10.49,20.1-19.56,30.66-28.24Z"/>
  <path class="cls-4" d="M372.5,99.94c.08-.17.15-.31.21-.45-.36.15-.7.33-1.05.49-.23.23-.5.34-.79.37-2.28,1.13-4.36,2.47-6.34,3.93-.17.29-.41.44-.69.5-1.76,1.32-3.48,2.72-5.24,4.1.72.24,1.34.89,1.36,1.68.12,3.74,0,7.61-.36,11.5,1.48-2.36,3.21-4.57,5.09-6.67-.05-.17-.07-.35-.05-.53.55-3.53,3.41-6.73,5.15-9.83.94-1.68,1.85-3.37,2.71-5.09Z"/>
  <path class="cls-1" d="M343.61,160.87c-.04.15-.09.29-.17.42,11.47-.43,21.67-2.12,30.83-8.32-10.82.19-20.76,3.18-30.65,7.91Z"/>
  <path class="cls-1" d="M342.97,129.58c-.54-2.76-.33-5.59-.79-8.38-.25-1.53-.61-3.03-1.05-4.5-2.06,3.48-3.3,7.45-3.49,11.47-.02.36-.16.63-.37.81,1.01,6.89.3,13.92-2.42,20.55.54-.03,1.08-.05,1.63-.06,1.19-.01,2.52-.19,3.69.08.39-6.4,1.85-12.87,4.16-19.03-.6.08-1.21-.17-1.36-.95Z"/>
  <path class="cls-4" d="M354.6,143.1c3.6-2.86,7.46-5.37,11.49-7.59,2.34-4.89,5.13-9.51,6.99-14.65,1.33-3.66,2.24-7.41,2.99-11.21-7.48,5.69-12.59,12.69-17.68,20.61-.87,4.39-2.1,8.72-3.8,12.84Z"/>
  <path class="cls-1" d="M290.09,177.11c-8.17,8.3-16.06,17.55-25.26,24.82,1.04.85,2.02,1.77,2.97,2.73,5.54-7.77,12.66-14.81,20.65-21.13,10.25-12.15,21.19-24.13,32.52-35.14-.55-.28-1.05-.63-1.5-1.03-9.64,10.04-19.6,19.82-29.37,29.75Z"/>
  <path class="cls-4" d="M391.56,76.65c.68.06,1.16.4,1.4,1.04.2.54.22,1.15.12,1.78.43-.26.86-.5,1.3-.76,0-.09-.02-.18,0-.27,1.1-5.66,2.93-11.09,3.99-16.75-6.29,4.51-11.44,10.35-15.26,17.05-.12.2-.29.32-.48.39-.58,1.32-1.16,2.65-1.75,3.98,1.88-1.36,3.78-2.7,5.71-4,1.47-.99,3.07-2.64,4.98-2.47Z"/>
  <path class="cls-4" d="M406.82,103.25c1.09-.94,2.18-1.89,3.27-2.84-1.46.33-2.87.86-4.22,1.57-.8,1.44-1.66,2.83-2.58,4.17,1.18-.98,2.4-1.92,3.53-2.9Z"/>
  <path class="cls-4" d="M393.39,124.05c-.1.03-.19,0-.29-.01-.84.67-1.68,1.34-2.51,2.01-.19.15-.37.31-.56.46.95.54,1.45,1.81.86,2.87-2.17,3.83-4.83,8.05-7.97,11.91,3.5-2.55,7.44-4.55,11.51-6.2,0-.22.02-.44.12-.64,1.59-3.31,4.92-5.82,6.95-8.94,1.54-2.37,2.83-4.92,3.84-7.56-1.62.74-3.22,1.53-4.77,2.42-2.33,1.33-4.56,3.01-7.18,3.69Z"/>
  <path class="cls-4" d="M392.4,111.5c1.4-.53,2.84-.99,4.29-1.44,0-.02,0-.04.02-.06,1.67-3.28,4.03-6.21,5.91-9.39,1.02-1.72,1.95-3.48,2.86-5.26-4.29,2.72-8.1,6.13-11.4,9.96-.48,2.09-1.02,4.17-1.67,6.18Z"/>
  <path class="cls-4" d="M417.13,90.45c.36-.52.7-1.05,1.06-1.58-2.96,2-5.64,4.37-8.19,6.92-.34.34-.78.37-1.16.23-.33.74-.66,1.48-1.02,2.22,1.52-.59,3.11-.99,4.78-1.19,1.31-2.32,3.01-4.41,4.53-6.6Z"/>
  <path class="cls-4" d="M400.88,132.76c.68-.22,1.36-.43,2.03-.64.43-.13.83-.08,1.17.06,3.92-3.94,8.9-7,14.04-9.41.44-.62.88-1.26,1.32-1.89-1.82.46-3.64.92-5.44,1.45-2.55.75-5.04,1.67-7.65,2.12-.59,1.16-1.22,2.31-1.95,3.44-1.02,1.57-2.17,3.33-3.51,4.86Z"/>
  <path class="cls-4" d="M386.43,89.92c-3.36,4.65-7.01,9.28-11.35,13.1-.77,1.52-1.57,3.23-2.46,4.96,1.65-1.3,3.36-2.53,5.08-3.67.95-.63,2.35.04,2.59,1.09,2.24-3.24,5.05-6.02,8.35-8.32,2.82-3.59,6.68-6.28,9.54-9.9,2.23-2.83,4.06-5.89,5.58-9.1-4.27,2.39-8.61,4.78-13.15,6.49-1.49,2.11-3.26,4.08-4.17,5.34Z"/>
  <path class="cls-4" d="M400.69,75.24c1.19-2.37,2.65-4.63,3.89-6.98,1.33-2.52,2.49-5.14,3.52-7.8-2.51,2.31-4.89,4.75-7.17,7.3-.62,3.03-1.47,6.01-2.73,8.8.83-.45,1.66-.88,2.49-1.32Z"/>
  <path class="cls-4" d="M420.32,110.18c.94-1.63,1.72-3.32,2.4-5.05-4.96,2.97-9.41,6.72-13.17,11.09-.44,1.46-.91,2.88-1.45,4.28,2.39-1.37,5.13-2.36,7.9-3.07,1.1-2.61,2.92-4.79,4.33-7.24Z"/>
  <path class="cls-4" d="M375.84,94.86c.94.26,1.44.73,1.67,1.32,1.24-1.46,2.48-2.93,3.67-4.44,1.79-2.26,3.53-4.57,5.18-6.94.15-.22.44-.58.77-1.02.06-.13.14-.25.27-.35,0,0,.01,0,.02-.01.76-.97,1.69-2.22,2.27-3.27-1.44.85-3.07,2.28-3.93,2.83-2.19,1.4-4.41,2.73-6.65,4.04-1.24,2.66-2.53,5.29-3.97,7.77.24,0,.48.01.71.07Z"/>
  <path class="cls-3" d="M494.23,112.02c-3.36,3.74-6.1,7.75-9.95,11.09-.48.41-.43.93-.16,1.32-6.94,2.97-13.17,6.59-19.17,10.93.58-1.24,1.14-2.46,1.65-3.62.05-.12.07-.24.1-.36,3.71-4.73,8.18-9.44,11.16-14.62.62-1.08-.85-2.24-1.77-1.34-4.02,3.94-7.26,8.96-10.65,13.52-.46-.14-1-.14-1.57.12-7.03,3.2-13.68,7.03-19.74,11.65,2.53-2.52,4.96-5.12,7.19-7.92.81-1.02-.44-2.32-1.47-1.44-3.23,2.76-6.16,5.76-8.99,8.89-.4-.09-.84-.06-1.3.15-7.83,3.61-15.74,7.17-21.72,13.26-.07-.1-.14-.2-.22-.29,3.33-2.88,6.46-5.99,9.5-8.95,1.01-.98.44-2.99-.99-3.17,6.85-4.15,13.01-9.67,18.2-15.6,6.55-.59,13.61-1.96,19.4-4.99,1.24-.65.38-2.5-.93-2.18-3.51.86-6.95,1.88-10.41,2.85,3.41-2.5,6.53-5.57,9.2-8.26,1.85-1.86,9.21-8.1,8.62-11.68,5.01-2.38,10.41-5.02,14.11-8.98.57-.61.02-1.92-.91-1.53-5.31,2.2-10.09,5.75-15.15,8.55-2.66-.59-7.01,1.83-8.77,2.55-4.34,1.78-8.53,4.11-12.29,6.95,1.93-3.22,5.42-7.94,4.53-11.47-.07-.26-.22-.52-.43-.74,2.52-4.12,4.79-8.61,6.23-13.07.43-1.34-1.42-1.9-2.17-.9-3,4.06-5.42,8.87-7.36,13.63-4.05,1.24-8,6.84-10.41,9.38-4.14,4.36-7.92,9.04-11.13,14.1-.37-.17-.81-.21-1.28-.04-.32.11-.64.24-.95.36.28-.44.55-.88.83-1.32.69-1.11-.18-2.92-1.62-2.77-.99.1-2.02.24-3.07.4,3.83-3.88,6.08-10.01,7.45-14.81.04-.15.05-.3.06-.44,3.94-3.48,7.54-7.59,9.52-12.41.34-.82-.97-1.56-1.53-.88-3.25,3.96-6.25,7.94-9.93,11.45-.29,0-.59.05-.88.18-6.72,3.19-12.19,7.77-16.4,13.62-.29-.09-.61-.1-.94.02-1.61.62-3.46,1.37-5.31,2.24,1.11-1.35,2.1-2.8,2.94-4.39.47-.89.19-1.84-.47-2.38,3.22-2.07,6.19-4.8,8.91-7.42.33.37.86.56,1.34.25,4.41-2.85,8.78-5.62,12.67-9.14.75-.68-.2-1.8-1.06-1.35-3.82,2.03-7.26,4.54-10.68,7.12-.05-.26-.14-.52-.31-.73,3.94-3.33,7.16-8.21,9.26-12.61.23-.48.22-.97.07-1.4,4.02-4.43,7.7-9.23,10.13-14.68.31-.68-.59-1.22-1.02-.59-3.38,4.84-6.66,9.69-10.57,14.13-.31-.02-.65.02-.99.2-4.49,2.33-8.62,5.18-11.95,8.88-.02-.38-.23-.71-.53-.95,1.55-2.93,3.47-5.89,4.57-9.01.36-1.01-1.09-1.44-1.65-.68-1.94,2.63-3.29,5.87-4.82,8.75-.15.28-.15.55-.08.79-5.08,2.8-9.45,6.18-13.15,10.38.16-.92.3-1.83.44-2.74,3.12-2.53,6.67-5.56,8.58-9.1.41-.76-.13-1.51-.81-1.64,2.51-3.89,4.5-8.09,5.92-11.86.03-.02.06-.02.1-.05,4.97-3.78,10.14-7.45,14.6-11.8.67-.65-.2-1.82-1.03-1.3-4.82,3.04-9.2,6.76-13.59,10.39-.59-.67-1.68-.97-2.53-.5-.14.07-.28.15-.42.22,2.95-4.96,4.8-10.93,6.22-15.94.03-.1.03-.19.03-.29,2.16-1.94,4.38-3.9,6.08-6.17.58-.77-.56-1.84-1.34-1.31-2.95,1.98-5.45,4.8-8,7.27-2.72,2.38-5.27,4.91-7.6,7.62.26-1.78.47-3.55.66-5.29.09-.85-.61-1.46-1.39-1.61,2.8-4.37,5.64-8.73,7.91-13.39.47-.97-.79-1.64-1.44-.82-3.78,4.82-6.82,10.16-10.04,15.35-.15.24-.18.47-.15.69-4.51,3.06-8.33,6.75-11.34,11.1.72-1.88,1.34-3.77,1.68-5.65.21-1.16-1.41-2.02-2.06-.85-1.71,3.07-2.76,6.72-3.8,10.2-4.3,3.22-8.36,6.85-11.69,11.04.4-2.1.8-4.18,1.25-6.19.05-.24.05-.45.04-.66,2.51-4.49,5.13-8.92,7.57-13.45.37-.69-.61-1.55-1.17-.88-3.28,3.91-5.79,8.21-7.91,12.76-.69-.11-1.46.11-1.99.8-5.6,7.32-10.13,15.17-13.29,23.69-.1-1.87-.19-3.71-.25-5.5.77-1.32,1.42-2.67,2-3.84,1.14-2.3,2.08-4.72,2.74-7.21,7.45-5.84,12.74-15.67,16.06-23.92.12-.3.11-.58.04-.84.99-1.22,1.94-2.47,2.9-3.69,1.73-2.2,3.68-4.52,4.89-7.02.62-1.28-.92-2.59-2.05-1.55-1.99,1.84-3.58,4.23-5.14,6.43-1.15,1.62-2.36,3.25-3.44,4.94-.09.05-.17.11-.26.16,2.75-4.82,4.9-10.19,6.73-15.33,2.82-4.42,5.99-8.9,7.95-13.7.31-.76-.92-1.47-1.44-.82-3.3,4.13-5.68,9.13-8.2,13.8-5.08,4.43-9.59,9.02-12.88,14.65-.13-.26-.35-.45-.61-.6,1.82-4.53,4.17-8.74,6.06-13.24.46-1.1-1.27-2.03-2.03-1.16-3.54,4.04-5.49,9.81-6.57,15.09-3.27,3.03-6.47,6.36-8.78,10.18.07-1.31.12-2.61.17-3.88.02-.69-.54-1.22-1.17-1.36,1.74-4.16,3.5-8.57,4.21-12.9.19-1.18-1.49-2.14-2.14-.88-2.49,4.81-3.82,10.59-5.12,15.82-.03.14-.03.26-.02.38-3.4,4.09-6.24,8.68-8.07,13.63-.21-.56-.67-.92-1.19-1.06,1.14-5.19,2.67-10.27,3.68-15.48.23-1.18-1.44-2.05-2.09-.86-3.1,5.73-4.21,12.5-4.68,18.91-.01.18.02.35.09.49-1.85,3.4-3.37,7.41-4.26,11.45-.41-.34-.95-.46-1.45-.36-.02-5.32.68-10.47.97-15.8.07-1.32-1.93-1.52-2.3-.3-1.73,5.79-1.38,12.38-.65,18.3.02.15.06.28.13.39-.36.95-.73,1.89-1.07,2.86-.02-.35-.04-.71-.06-1.07-.08-1.43-1.31-2.12-2.45-1.88-.04-2.24-.08-4.48.11-6.73.29-3.55,1.09-7,1.57-10.52.18-1.33-1.82-1.39-2.24-.3-2.26,5.9-2.8,13.31-1.66,19.67-2.66,3.99-4.68,8.78-5.22,13.62-.18-.37-.32-.75-.51-1.13-.24-.47-.66-.75-1.13-.87.54-1.95.9-3.96,1.47-5.89.96-3.3,2.31-6.4,3.48-9.62.44-1.21-1.37-1.83-2.03-.84-3.11,4.69-6.03,11.98-5.51,17.85-5.58,10.4-4.7,22.98,1.67,32.78-.35-.06-.73,0-1.06.3-19.42,17.21-39.24,35.23-53.92,56.71-1.01-.4-1.9.85-1.15,1.68-.05.08-.11.15-.16.23-2.27-.6-4.58-.5-6.71.8-3.2,1.96-3.65,5.19-1.54,7.47-.83.79-1.6,1.67-2.34,2.52-3.01-.38-6.37,1.02-7.24,3.7-2.29-.42-4.74-.46-7.38-.01-.87.15-1.31.81-1.39,1.55-.5.25-.79.95-.29,1.42,1.54,1.46,3.03,2.94,4.5,4.44-3.27-.67-7.07-.5-11.47.75-.52.15-.72.57-.66.97-.38.31-.53.87-.09,1.39,1.15,1.35,2.24,2.69,3.3,4.04-8.55,3.61-16.9,7.95-25.1,12.58-32.41,14.44-63.54,33.01-93.42,51.42-18.02,11.1-35.7,22.73-52.99,34.9-2.17,1.53-4.37,3.06-6.57,4.59-7.03,3.22-13.82,6.75-21.15,9.41-4.62,1.68-9.84,2.84-13.8,5.85-4.68,3.55-7.09,9.59-3.91,14.44-1.23,1.14-2.48,2.26-3.67,3.43-.5.49-.47,1.14-.19,1.65,0,0,0,0,0,0-4.05,3.91-1.78,14.32,1.88,17.75.15.14.35.23.55.26-.76,4.57.11,9.9,2.1,13.08-3.62,2.77-6.15,6.95-5.88,11.59.2,3.6,2.54,7.56,6.7,7.18.83-.08,1.57-.34,2.26-.72-1.27,5.81,1.63,14.15,8.07,11.36.02,0,.03-.02.05-.03.22.03.46.01.72-.12,3.45-1.72,6.6-3.73,9.59-6.15.24-.19.49-.39.73-.59-2.77,3.28-5.5,6.59-8.14,9.99-.62.8-.49,1.6,0,2.16-.17,2.41,2.15,5.66,3.82,6.74,1.22.79,2.78,1.46,4.44,1.88.86,4.69,4.08,12.62,9.42,12.12.29.36.76.53,1.23.18.41-.31.8-.64,1.2-.95.11-.07.21-.16.31-.24,1.47-1.14,2.92-2.3,4.35-3.49.7,2.4,2,4.78,3.22,6.79,1.2,1.96,3.3,4.4,5.92,3.17.35-.16.63-.37.87-.59.02-.02.05-.02.07-.04.17-.14.33-.3.5-.44.62,2.63,2.03,5.29,3.24,7.17,1.75,2.71,5.07,7.11,8.93,5.71,1.36-.49,2.07-1.45,2.39-2.61,13.63-15.48,25.15-33.02,38.09-49.07,13.73-17.02,27.9-33.68,42.55-49.95,28.34-31.5,58.4-61.45,89.92-89.88.04,1.07,1.34,1.89,2.31,1.26,3.9-2.55,6.35-5.56,7.99-9.55.2-.3.37-.61.51-.94.56-.06,1.1-.42,1.06-1.07-.07-1-.14-2.05-.23-3.12,1.28-1.14,2.47-2.37,3.5-3.75.15-.2.31-.42.48-.65.01.03.02.07.03.1.33,1.09,1.81,1.88,2.87,1.14,3.64-2.54,5.35-5.6,5.85-8.86,5.84-1.63,8.56-6.12,9.38-11.75,1.04-.06,2-.68,2.29-1.82,13.96-6.01,26.88-15.6,39.95-23.23,14.8-8.64,30.06-16.47,44.87-25.07,8.86,11.75,27.05,12.97,39.6,6.09,5.98.8,12.23,1,17.98-.48,1.53-.4,1.21-2.71-.38-2.71-5.54,0-11,.47-16.52.49-.16-.33-.41-.63-.75-.85-.81-.53-1.67-1.05-2.54-1.58,8.38-.5,15.97-4.47,22.52-9.63,5.99.46,12.04,0,17.62-2.36.95-.4.48-2.02-.53-1.92-5.27.52-10.4,1.26-15.62,1.49-.24-.55-.71-1.03-1.28-1.23-.35-.12-.69-.22-1.04-.34,5.89-1.18,11.36-4.37,16.02-8.32.27.15.59.23.89.18,6.12-.91,12.13-4.22,17.58-8.27,3.73-.42,7.44-.95,11.13-1.73,1.29-.27,1.01-2.3-.31-2.25-2.15.08-4.28.24-6.4.46,2.74-2.33,5.28-4.75,7.53-7,.02-.02.03-.05.05-.07,5.13.08,10.67-.79,14.86-3.77,1-.71.45-2.46-.89-2.07-4.62,1.32-8.83,2.84-13.57,3.31-.35-.75-1.08-1.35-2.03-1.44,7.28-5.76,13.21-14.7,17.61-21.93.8-1.31,0-2.46-1.16-2.82,3.47-3.03,7.11-6.68,8.95-10.85.38-.86-.69-1.93-1.44-1.09ZM439.17,148.4c6.92-4.94,14-9.56,21.57-13.44-1.19,2.46-2.43,4.89-3.78,7.26-1.43,2.51-3.19,4.84-4.64,7.33-5.58.79-11.05,2.11-16.34,4.06,1.1-1.72,2.18-3.45,3.2-5.21ZM435.73,146.15c-1.49,2.45-2.98,4.91-4.56,7.31-2.03,3.09-5.02,6.23-6.32,9.75-4.47,1.01-8.84,2.4-13.01,4.23,2.44-3,4.25-6.4,5.54-10.28,5.67-4.42,11.88-7.93,18.36-11.02ZM360.08,171.09c10.29-.85,19.82-.83,29.42,1.87-10.24.87-20.04,2.97-29.42-1.87ZM383.37,177.77c-2.52.57-5.02,1.25-7.5,2.05.27-.46.53-.92.72-1.39,2.25-.15,4.53-.4,6.77-.67ZM360.73,181.45c-12.22,4.69-23.83,11.83-35.1,18.29-1.48.85-2.99,1.69-4.51,2.54,12.05-8.85,24.24-17.55,36.05-26.71.28-.22.41-.48.47-.77.97.71,2.03,1.26,3.12,1.74-.35,1.62-.31,3.27-.02,4.91ZM288.44,183.53c-7.98,6.32-15.11,13.37-20.65,21.13-.95-.96-1.93-1.89-2.97-2.73,9.21-7.28,17.09-16.52,25.26-24.82,9.77-9.93,19.73-19.7,29.37-29.75.44.41.95.75,1.5,1.03-11.33,11.01-22.27,23-32.52,35.14ZM322.76,150.04c.24-.29.33-.62.3-.92.23.04.45.1.68.12.4.04.85.04,1.31,0-1.94,1.54-3.8,3.19-5.66,4.77,1.13-1.33,2.27-2.65,3.37-3.98ZM301.27,179.39c9.73-6.81,20.13-12.55,30.96-17.43-9.83,6.55-19.15,14.14-28.15,21.54-10.56,8.68-21.78,17.75-30.66,28.24-1.15-1.8-2.41-3.5-3.79-5.09,10.61-9.08,20.02-19.13,31.64-27.26ZM331.79,158.18c1.33-.88,2.59-1.83,3.8-2.82,1.67.35,3.31.18,4.53-.75.02.79.02,1.58.08,2.36-.34.2-.67.41-1,.6-.27-1.01-1.46-1.93-2.76-1.39-1.53.64-3.09,1.31-4.65,1.99ZM340.17,149.55c-1.18-.27-2.5-.1-3.69-.08-.55,0-1.09.03-1.63.06,2.72-6.63,3.43-13.66,2.42-20.55.2-.18.35-.45.37-.81.19-4.02,1.43-7.99,3.49-11.47.44,1.48.8,2.97,1.05,4.5.46,2.79.25,5.62.79,8.38.15.77.75,1.03,1.36.95-2.31,6.15-3.77,12.63-4.16,19.03ZM343.61,160.87c9.9-4.73,19.83-7.72,30.65-7.91-9.16,6.2-19.35,7.9-30.83,8.32.08-.13.13-.26.17-.42ZM364.68,115.39c-1.88,2.1-3.61,4.31-5.09,6.67.37-3.89.49-7.76.36-11.5-.02-.79-.64-1.44-1.36-1.68,1.76-1.38,3.48-2.77,5.24-4.1.28-.05.52-.21.69-.5,1.99-1.46,4.06-2.81,6.34-3.93.29-.02.56-.14.79-.37.35-.16.69-.34,1.05-.49-.06.14-.13.28-.21.45-.87,1.71-1.77,3.41-2.71,5.09-1.74,3.1-4.6,6.3-5.15,9.83-.03.18,0,.36.05.53ZM376.08,109.65c-.75,3.79-1.66,7.54-2.99,11.21-1.87,5.14-4.65,9.76-6.99,14.65-4.04,2.22-7.9,4.74-11.49,7.59,1.69-4.11,2.93-8.44,3.8-12.84,5.09-7.93,10.2-14.92,17.68-20.61ZM399.21,113.23c-2.49,2.96-5.56,5.36-8.66,7.86-3.22,2.59-6.44,5.76-10.11,7.93-1.85.69-3.68,1.42-5.49,2.2-.14.03-.27.08-.41.11-.36.06-.6.23-.79.43-.69.31-1.39.6-2.07.92,1.97-2.91,3.59-6.14,4.87-9.52,7.15-4.28,14.64-7.67,22.65-9.92ZM377.97,118.93c.77-2.61,1.33-5.26,1.74-7.86,2.73-4.82,6.78-8.84,11.55-11.74-1.19,4.47-2.13,9.14-2.47,13.65-3.77,1.66-7.39,3.63-10.82,5.95ZM384.31,132.06c-2.06,3.15-4.32,6.17-6.87,9-2.4,2.67-5.27,4.98-7.83,7.52-7.56.62-14.93,2.59-21.55,6.16,1.56-2.07,2.93-4.27,4.15-6.57,10.34-6.31,20.66-12.07,32.09-16.12ZM397.61,139.71c-3.82,5.56-8.22,10.6-12.72,15.78-2.81.24-5.59.6-8.35,1.12,2.01-1.28,3.94-2.67,5.74-4.14,1.69-1.39.16-3.72-1.64-3.88-1.55-.14-3.11-.21-4.66-.24.52-.42,1.01-.88,1.51-1.33.23.44.78.72,1.36.42,6.3-3.22,12.22-6.72,18.64-9.45-.19.56-.14,1.18.11,1.71ZM395.76,159.28c-4.58,3.04-9.54,4.61-14.43,7.67-.06.04-.09.11-.14.17-7.66-1.09-15.48-.71-22.75,1.83.64-.79,1.29-1.57,1.92-2.37.83-1.04,1.91-2.22,2.31-3.51.69-.21,1.38-.44,2.06-.68,10.32-2.03,20.56-3.35,31.03-3.11ZM358.56,164.1c-.15.26-.3.53-.45.78-.6,1.01-1.17,2.03-1.74,3.05-.05-.07-.06-.14-.12-.21-.74-.81-1.96-1.16-2.9-1.72-.48-.29-.89-.66-1.26-1.05,2.17-.09,4.33-.41,6.47-.85ZM387.56,168.35c2.91-.71,5.71-2.12,8.29-3.85.64-.08,1.27-.19,1.9-.31-1.96,1.68-3.81,3.57-4.96,5.71-1.71-.57-3.45-1.1-5.22-1.55ZM403.57,164.38c2.96-2.35,6.15-4.37,9.48-6.15-1.82,4.68-4.6,9.06-8.05,12.72-1.32.78-2.61,1.6-3.88,2.48-.13-.14-.27-.29-.47-.39-1.41-.67-2.87-1.28-4.34-1.86,2.54-2.09,4.75-4.82,7.25-6.8ZM403.05,158.38c.62-1.25-.39-2.75-1.86-2.87-4.03-.32-8.03-.43-12.01-.29,1.95-1.61,3.75-3.4,5.45-5.29,8.69-2.03,17.67-3.46,26.58-4.45-5.28,5.61-11.24,9.89-18.15,12.89ZM455.56,107.67c2.54-1.32,5.14-2.47,7.84-3.43.31-.11.87-.22,1.45-.35-3.31,3.14-5.86,7.4-9.32,10.51-2.75,2.48-5.97,4.5-8.88,6.8-.31-.68-1.02-1.15-1.99-.88-2,.56-3.96,1.2-5.89,1.89,1.55-1.91,2.95-3.95,4.25-6.04,3.97-3.16,7.98-6.14,12.53-8.5ZM426.91,123.7c6.04-7.33,12.06-14.62,19.1-21.06.53-.48,1.7-2.02,1.79-2.09-.17.15-1.03,1.44-1.46,2.34-1.11,2.31-2.3,4.59-3.56,6.83-2.67,4.76-5.92,9.19-8.44,14.02-.04.08-.05.15-.07.23-3.72,1.56-7.32,3.36-10.8,5.43,1.23-1.88,2.36-3.79,3.43-5.69ZM439.45,125.58c-6.55,6.6-13.94,11.71-22.19,16.59-.1.06-.15.14-.23.2-1.86.29-3.72.59-5.56.95,2.96-2.46,5.61-5.32,8.02-8.39,6.28-3.88,12.96-7,19.95-9.36ZM420.75,126.01c-4.38,6.55-9.56,12.31-14.62,18.5-2.98.7-5.95,1.46-8.93,2.33,2.56-3.27,4.81-6.78,6.79-10.32,5.56-3.76,10.78-7.57,16.75-10.52ZM409.55,116.21c3.76-4.37,8.21-8.11,13.17-11.09-.67,1.73-1.46,3.42-2.4,5.05-1.41,2.45-3.23,4.63-4.33,7.24-2.77.71-5.51,1.71-7.9,3.07.54-1.4,1.02-2.82,1.45-4.28ZM414,122.34c1.8-.53,3.62-1,5.44-1.45-.44.63-.87,1.26-1.32,1.89-5.13,2.41-10.11,5.47-14.04,9.41-.34-.15-.74-.2-1.17-.06-.68.2-1.36.42-2.03.64,1.35-1.53,2.49-3.29,3.51-4.86.73-1.12,1.36-2.27,1.95-3.44,2.61-.46,5.11-1.37,7.65-2.12ZM405.35,117.95c-1.01,2.64-2.3,5.18-3.84,7.56-2.03,3.12-5.36,5.63-6.95,8.94-.09.19-.12.42-.12.64-4.07,1.65-8.01,3.66-11.51,6.2,3.13-3.86,5.8-8.08,7.97-11.91.59-1.06.09-2.33-.86-2.87.19-.15.37-.31.56-.46.83-.67,1.68-1.34,2.51-2.01.09.02.18.04.29.01,2.62-.68,4.86-2.36,7.18-3.69,1.55-.89,3.15-1.67,4.77-2.42ZM408.84,96.01c.38.14.82.11,1.16-.23,2.54-2.55,5.23-4.92,8.19-6.92-.35.53-.7,1.06-1.06,1.58-1.52,2.19-3.22,4.28-4.53,6.6-1.67.19-3.26.59-4.78,1.19.36-.74.69-1.48,1.02-2.22ZM410.09,100.41c-1.09.95-2.18,1.89-3.27,2.84-1.13.98-2.35,1.92-3.53,2.9.92-1.34,1.78-2.73,2.58-4.17,1.35-.71,2.76-1.23,4.22-1.57ZM405.47,95.35c-.9,1.78-1.84,3.54-2.86,5.26-1.88,3.18-4.24,6.11-5.91,9.39,0,.02,0,.04-.02.06-1.44.45-2.88.91-4.29,1.44.65-2.01,1.19-4.09,1.67-6.18,3.3-3.83,7.12-7.24,11.4-9.96ZM398.16,87.19c-2.86,3.62-6.72,6.32-9.54,9.9-3.3,2.29-6.11,5.07-8.35,8.32-.23-1.05-1.63-1.72-2.59-1.09-1.72,1.14-3.43,2.36-5.08,3.67.89-1.73,1.69-3.44,2.46-4.96,4.35-3.82,7.99-8.46,11.35-13.1.91-1.26,2.67-3.23,4.17-5.34,4.54-1.71,8.88-4.1,13.15-6.49-1.52,3.21-3.35,6.27-5.58,9.1ZM408.1,60.47c-1.03,2.66-2.19,5.27-3.52,7.8-1.24,2.35-2.7,4.6-3.89,6.98-.83.44-1.67.87-2.49,1.32,1.26-2.79,2.11-5.77,2.73-8.8,2.28-2.54,4.66-4.98,7.17-7.3ZM382.63,79.14c.19-.07.36-.18.48-.39,3.82-6.7,8.97-12.54,15.26-17.05-1.06,5.66-2.89,11.09-3.99,16.75-.02.1,0,.18,0,.27-.43.25-.87.5-1.3.76.1-.64.08-1.24-.12-1.78-.24-.64-.71-.98-1.4-1.04-1.91-.18-3.51,1.47-4.98,2.47-1.93,1.3-3.83,2.64-5.71,4,.59-1.33,1.17-2.66,1.75-3.98ZM385.75,82.98c.86-.55,2.48-1.98,3.93-2.83-.57,1.05-1.51,2.3-2.27,3.27,0,0-.01.01-.02.01-.13.1-.21.23-.27.35-.34.43-.62.8-.77,1.02-1.65,2.37-3.38,4.68-5.18,6.94-1.19,1.5-2.43,2.97-3.67,4.44-.22-.59-.73-1.06-1.67-1.32-.23-.06-.47-.08-.71-.07,1.45-2.48,2.74-5.11,3.97-7.77,2.24-1.3,4.46-2.64,6.65-4.04ZM368.97,89.72c2.87-3.29,5.77-6.44,8.96-9.35-2.85,5.24-5.7,10.68-7.51,16.14-1.21.55-2.4,1.15-3.56,1.8.87-2.78,1.51-5.68,2.1-8.59ZM354.8,106.62c2.93-6.68,6.27-13.15,10.17-19.3-1.21,4.6-2.26,9.27-2.54,13.85-3.03,2.24-5.86,4.99-7.59,8.31,0-.95-.01-1.9-.04-2.85h0ZM356.36,116.67c-.61,13.6-5.52,24.77-11.99,36.64,1.59-13.51,4.85-24.76,11.99-36.64ZM351.06,117.1c-1.63,2.54-3.12,5.22-4.43,8,.14-2.47-.26-5.06-.94-7.53,1.48-5.92,2.2-11.86,4.96-17.18-.24,5.56-.46,11.36.41,16.72ZM363.83,62.26c3.14-4.8,6.35-9.73,10.07-14.18-2.01,3.76-3.82,7.66-5.07,11.62-.06.21-.05.4,0,.57-1.92,1.29-3.74,2.71-5.35,4.35.14-.79.24-1.57.34-2.36ZM362.53,69.03c2.34-1.72,4.62-3.48,6.97-5.13-1.58,3.14-3.36,6.18-5.41,9.04-1.47,2.04-3.14,3.9-4.83,5.76-.21-.14-.45-.25-.71-.29,1.83-2.78,3.08-6.03,3.97-9.38ZM351.98,71.06c.08-.04.16-.09.24-.17,2.91-2.97,5.54-6.12,8.41-9.09-.42,2.77-1.03,5.5-1.91,8.18-1.15,3.52-2.92,6.78-3.97,10.33-.36.26-.73.5-1.07.78.81-2.04,1.61-4.05,2.44-5.95.64-1.47-.71-3.1-2.31-2.26-.77.4-1.51.83-2.25,1.28.17-1.02.3-2.05.41-3.08ZM351.77,85.88c1.24-1.22,2.56-2.29,4.02-3.17-.4.49-.82.96-1.2,1.47-.38.5-.16,1.07.26,1.41-.6,1.64-1.26,3.26-2.09,4.85-1.3,2.47-3.51,4.82-4.49,7.45-2.48,4.46-3.89,9.5-4.4,14.6-.15-.34-.3-.68-.46-1.01-.38-.79-1.14-1.01-1.87-.88,2.32-4.6,4.15-9.49,5.81-14.18.16-.45.08-.87-.13-1.22,1.75-2.89,3.21-6.09,4.55-9.33ZM348.79,68.33c-.51,2.94-1.07,5.86-1.45,8.81-2.69,2.2-5.04,4.76-6.84,7.7,0-.46-.01-.92-.01-1.39,2.33-5.41,4.9-10.43,8.3-15.13ZM340.08,91.4c.06-.5.09-1,.13-1.5,2.42-3.52,5.06-6.65,8.15-9.33.74.08,1.59-.27,1.87-1.07.07-.2.13-.41.19-.62.08-.06.15-.13.23-.19-2.69,5.33-5.57,10.91-7.04,16.49-1.6.95-3.15,1.93-4.63,3.01.67-2.18.84-4.6,1.09-6.8ZM335.61,88.95c.41-1.4.91-2.78,1.4-4.17-.01,1.93-.09,3.86-.28,5.8-.33,3.37-1.51,6.85-1.03,10.22-.92.81-1.81,1.66-2.66,2.55,0-1.49-.06-2.96-.14-4.43,1.12-3.25,1.74-6.67,2.71-9.97ZM332.95,106.99c2.94-2.46,5.96-4.8,9.16-6.88-2.58,5.96-5.63,11.74-8.02,17.75-.03-.07-.06-.14-.09-.21-.44-1.01-1.48-1.03-2.29-.59.69-3.29,1.08-6.67,1.24-10.06ZM332.47,124.05c2.16,7.75,1.77,15.48-.77,23.21-1.24-8.09-1.38-15.55.77-23.21ZM332.73,154.3c-3.31,1.72-6.44,4.02-9.41,6.09-2.66,1.86-5.44,3.73-8,5.8-5.05,2.7-10.07,5.62-14.94,8.8,3.29-3.42,6.52-6.89,9.7-10.4,3.11-2.25,6.19-4.52,9.2-6.9,3.11-2.46,6.54-4.85,9.49-7.58.51,1.63,2.06,3.17,3.95,4.2ZM327.69,103.52c.75-1.28,1.45-2.62,2.06-4,.64,7.99-.24,15.58-1.69,23.82-.05.27,0,.5.12.68-.02.14-.04.27-.07.41-.18.89-.6,1.76-.58,2.67,0,.26.14.47.31.64-1.03.36-2.01.96-2.87,1.62,2.9-8.26,3.09-17.03,2.72-25.85ZM324.46,100.84c1.6,8.94-.16,17.89-2.64,26.62-.07-3.61-.63-7.19-1.63-10.71,1.01-5.83,1.87-10.87,4.27-15.91ZM320.55,138.16c.11-.07.2-.17.28-.29.32-.49.6-.99.89-1.49.09-.04.19-.1.27-.17,1.39-1.24,2.55-2.55,4.12-3.6.42-.29.86-.53,1.3-.79-.19,2.07-.25,4.16-.13,6.23-2.75-.12-5.02.66-7.16,1.92.18-.6.29-1.2.44-1.8ZM319.46,143.44c2.52-1.11,5.62-1.2,8.29-1.15.1.59.22,1.17.35,1.75-1.25.42-2.32,1.3-3.74,1.38-1.95.1-3.35-1.03-4.91-1.96,0,0,0-.01.01-.02ZM315.19,113.72c3.56,8.42,4.35,17.53,2.76,26.61-5.45-8.17-6.27-17.64-2.76-26.61ZM315.54,143.62c.19-.16.28-.34.34-.53.17.23.32.46.49.69.27.35.62.53.99.61-10.04,9.97-19.78,20.25-29.68,30.35-8.22,8.37-17.46,16.52-24.56,25.9-.44-.31-.89-.62-1.34-.91,17.82-18.86,34.23-38.81,53.76-56.12ZM251.76,210c.76,1.12,1.48,2.24,2.17,3.36-1.24-.69-2.53-1.23-3.79-1.61.57-.56,1.12-1.14,1.62-1.76ZM257.68,220.12c2.4,4.83,4.24,9.72,5.63,14.83-.1-.16-.2-.32-.3-.48-5.03-7.87-11.24-16.22-19.98-18.94,2.7-4.81,10.56,1.61,14.65,4.58ZM217.38,239.53c1.17-.63,2.35-1.25,3.53-1.89.22-.12.38-.29.5-.47,2.03-1.21,4.02-2.46,6.01-3.7.12.27.23.55.36.82-38.06,24.32-75.15,50.06-111.09,77.3-17.87,13.54-35.47,27.43-52.76,41.68-14.38,11.84-30.2,23.63-43.7,36.91-.29-3.18-1.53-9.47-4-11.56,15.58-11.28,29.74-24.73,44.79-36.67,18.29-14.5,37.07-28.4,56.3-41.68,17.81-12.29,36.01-24.05,54.55-35.24,14.83-8.95,30.5-16.78,45.52-25.49ZM18.06,392.29c-1.55,1.58-3.04,3.2-4.52,4.82-1.07-4.23-1.96-8.08-.4-12.52.33-.94.5-2.47,1.57-2.14.38.12.86,3.04.96,3.41.62,2.2,1.07,4.35,2.29,6.31.03.05.07.08.1.12ZM32.98,344.2c.2-.08.41-.16.61-.24-7.36,5.33-14.58,10.86-21.27,16.82-4.14-9.94,13.91-14.02,20.65-16.58ZM57.97,332.22c17.31-12.15,34.98-23.79,53-34.89,7.81-4.81,15.72-9.39,23.69-13.87-6.56,4.31-13.08,8.67-19.54,13.13-17.44,12.03-34.51,24.58-51.17,37.63-15.6,12.22-32.39,24.57-46.36,38.85-.79-2.92-3.35-5.97-6.22-6.71,16.06-10.53,30.9-23.11,46.61-34.13ZM9.81,382.36c-.56-2.66-1.47-5.25-1.53-8.04-.04-1.95.36-4.6,2.96-3.82,1.7.51,2.46,3.38,3.44,4.63.15.19.34.32.55.44-1.06,1.13-2.15,2.24-3.17,3.39-.06.07-.09.14-.13.22-.9.84-1.59,1.93-2.12,3.17ZM10.6,413.84c-2.61-.76-2.45-4.37-2.09-6.52.29-1.74.99-3.32,1.95-4.76.06.2.17.4.37.55,1.58,1.29,3.54,1.85,4.06,4.07.59,2.53-.91,7.64-4.28,6.66ZM13.9,400.83c17.15-12.08,32.34-27.53,48.45-40.89,17.68-14.66,35.67-28.97,53.96-42.89,36.63-27.89,74.48-54.21,113.33-79.03.66,1.26,1.34,2.51,2.04,3.75-34.72,22.26-68.18,46.47-100.74,71.67-34.27,26.53-69.88,53.68-99.78,84.98-.2.21-.32.43-.37.64-3.11,2.09-5.82,4.91-8.58,7.41-1.23,1.11-2.5,2.19-3.71,3.33.05-.37.1-.75.11-1.11.06-2.8-1.76-6.94-4.71-7.86ZM40.72,404.53c-.95-1.72-3.56-4.62-6.07-5.34,32.75-25.95,63.37-54.41,96.41-80.11,33.25-25.87,67.66-50.15,102.46-73.96.82,1.5,1.6,3.01,2.34,4.54-35.49,31.79-72.79,60.35-110.96,89.05-29.5,22.19-58.25,45.45-82.98,72.6.44-2.28-.13-4.83-1.21-6.8ZM38.15,410.3c-.32,2.07-2.24,2.79-3.91,1.46-1.14-.9-1.74-2.45-2.03-3.82-.39-1.88-.04-3.67.29-5.49.74.47,1.64.74,2.49,1.34,2,1.43,3.54,4.03,3.16,6.51ZM20.75,424.41c-2.54,1.28-3.34-3.46-3.42-4.82-.1-1.57.19-3.08.41-4.61,1.38,1.02,2.54,2.05,3.28,3.73.51,1.15,1.46,4.83-.27,5.7ZM30.72,418.79c-1.65,1.49-3.35,2.93-5.09,4.34.18-1.15.15-2.34-.05-3.43-.54-2.82-2.18-5.58-4.54-7.33,1.11-.95,2.19-1.93,3.29-2.88,1.28-1.1,2.63-2.18,3.97-3.27.03,1.97.52,3.95,1.33,5.56.85,1.69,2.39,3.18,4.15,3.98-1.04,1.01-2.03,2.09-3.06,3.03ZM135.31,335.97c34.7-25.97,72.37-51.03,102.14-82.7.79,2,1.46,4.01,2.06,6.04-35.51,26.37-69.57,54.93-102.5,84.31-17.18,15.32-34.09,30.96-50.52,47.05-9.17,8.99-18.88,17.87-28.1,27.14-.79.07-1.58.67-1.69,1.62,0,.04,0,.08,0,.11-4.64,4.72-9.15,9.53-13.36,14.53-.57-1.53-1.59-2.93-2.89-3.9-1.46-1.08-4.65-2.14-7.41-2.1,28.99-35.73,65.4-64.5,102.27-92.1ZM61.76,420.12c9.02-9.08,17.84-18.42,27.09-27.14,16.76-15.78,33.68-31.39,50.94-46.64,32.65-28.86,66.54-56.07,100.83-82.99.42,1.63.82,3.27,1.22,4.91-31.96,25.17-62.4,52.25-91.88,80.17-14.47,13.7-28.68,27.67-42.6,41.91-12.95,13.24-27.37,26.52-38.28,41.57-1.02-4.73-4.05-10.37-7.31-11.8ZM63.84,434.54c-1.36-.96-2.03-6.09-2.38-7.67-.22-.97-.36-1.95-.5-2.93,1.3,1.51,2.33,4.01,2.73,5,.44,1.08.79,2.23,1.06,3.37.2.86,1.32,3.8-.9,2.23ZM32.41,437.28c-1.42-.55-2.71-1.34-3.4-2.73-.17-.34-.25-.69-.32-1.04,0,0,0,0,0,0,.26-.34.53-.66.8-1,1.93.51,4.06-.58,6.08-.06,1.76.45,5.65,3.42,3.13,5.33-1.56,1.19-4.7.13-6.29-.5ZM43.41,448.87c-.57,2.87-1.94,1.58-2.88.57-1.74-1.87-2.75-4.41-3.81-6.81,1.64,0,3.19-.37,4.47-1.22.68,1.55,1.28,3.13,1.73,4.76.21.76.65,1.9.49,2.71ZM47.09,448.21c-.29-3.37-1.98-7.25-2.93-9.27-.11-.23-.34-.45-.6-.62.1-.36.18-.73.22-1.1,4.52-3.96,8.89-8.11,13.2-12.34.25,1.48.58,2.95.9,4.35.51,2.22,1.06,4.69,2.08,6.8-4.39,4-8.73,7.98-12.87,12.18ZM57.18,456.11c-1.02.29-3.41-5.88-4.61-8.67.23-.19.46-.38.68-.58,1.19,2.64,4.27,9.15,3.93,9.25ZM62.23,452.98c-.57-.27-1.32-.21-1.62.44-.1.22-.14.46-.21.68-.05-.15-.08-.32-.13-.47-1.04-3.03-2.5-6.36-4.91-8.61,2.32-2.05,4.62-4.13,6.92-6.24,2.17,1.45,5.12,1.59,6.63-1.14.32-.57.47-1.33.52-2.18,5.87-4.96,11.38-10.43,16.75-16.06-.18.4-.07.76.19,1-2.49,4.04-4.93,8.13-7.67,11.91-5.18,7.13-11.01,13.75-16.46,20.66ZM70.78,467.42c-1.68.94-4.77-4.84-5.4-6.21-.81-1.73-1.03-3.76-1.59-5.58.51-.49,1.02-.97,1.52-1.47.9,1.84,2.42,3.43,3.39,5.23.61,1.13,3.6,7.2,2.09,8.04ZM151.35,368.49c-14.18,15.82-27.94,31.99-41.23,48.54-12.09,15.04-25.29,30.26-35.52,46.7-.2-.72-.42-1.4-.62-1.97-1.15-3.25-3.36-7.92-6.77-9.59,4.91-5.23,9.3-11.01,13.47-16.74,3.91-5.37,8.35-11.18,11.75-17.3,3.51-4.5,6.82-9.14,9.92-13.92,2.47-3.27,4.88-6.58,7.25-9.91.29-.3.58-.61.87-.91,14.41-14.69,29.09-29.13,44.06-43.26,28.53-26.94,58.26-52.52,88.32-77.78.31,1.21.64,2.42.98,3.63-32.46,29.22-63.38,60.05-92.48,92.51ZM254.33,266.12c-.38.36-.42.78-.28,1.12-.33.19-.6.49-.73.96-.95,3.41-2.4,5.91-4.54,8.16.51-18.7-7.59-39.3-22.37-51.37,5.96.32,11.72-.06,16.22,4.47.58.68,1.15,1.37,1.72,2.06,2.58,3.7,3.7,9.12,4.97,13.36,2.11,7.02,3.63,14.08,5.02,21.23h0ZM258.32,261.21c-.44.73-.95,1.41-1.46,2.07-.5-5.5-1.29-11.62-2.72-17.43,2.2,3.95,4.11,8.11,5.69,12.51-.61.87-1,2-1.51,2.85ZM264.03,258.45c-5.05-15.56-14.31-30.19-27.97-39.74,9.56.11,15.75,6.27,21.01,13.85,2.74,3.94,7.22,9.82,8.82,15.51.17,1.21.34,2.41.48,3.66.02.17.08.31.13.45-.04,2.26-.75,4.4-2.48,6.27ZM269.95,250.81c-.02-.22-.02-.43-.05-.65.46-14.95-6.27-30.26-16.64-40.98.05-.13.08-.27.06-.43,3.65-3.62,6.73-3.95,9.24-.98,2.2,1.48,3.91,3.43,5.11,5.84,2.3,3.86,3.57,8.58,4.72,12.9,2.64,9.89,3.03,16.58-2.44,24.31ZM274.86,214.11c10.95-8.89,20.8-19.19,31.7-28.18,10.73-8.86,22.26-16.62,33.3-25.05.04.33.25.64.54.84-22.58,16.11-45.97,33.91-64.17,54.97-.43-.88-.89-1.74-1.37-2.59ZM278.77,222.78c-.41-1.17-.86-2.32-1.34-3.47,21.55-18.85,41.77-38.37,65.29-55.16,1.62.36,3.25.59,4.88.72-.06.43.01.89.22,1.34.07.16.18.32.28.47-.02.01-.03.01-.05.02-23.79,16.83-49.11,34.87-69.26,56.06ZM280.38,228.32c-.23-.97-.48-1.94-.76-2.91,23.69-18.26,45.71-38.23,70.29-55.56.27-.19.45-.42.58-.67.95.65,2.02,1.14,3.07,1.28h0c.57.89,1.2,1.68,1.87,2.39-.1.04-.2.06-.3.12-13.84,9.61-27.28,19.82-40.87,29.77-11.31,8.29-23.33,16.27-33.88,25.58ZM319.28,214.1c-12.48,7.41-26.68,14.77-37.61,24.51-.04-2.49-.29-5.05-.75-7.63,5.2-3.08,10.25-6.48,15.19-10.04,10.22-4.91,19.77-11.75,29.59-17.24,11.74-6.57,24.38-12.02,35.89-18.98.52,1.56,1.29,3.57,2.63,4.64,0,0,0,0,0,0-15.43,7.27-30.32,16.06-44.95,24.74ZM366.84,185.47c-.98,1.28-.64.96-1.05-.21-.45-1.31-1.11-2.52-1.49-3.86-.37-1.29-.65-2.6-.95-3.91,2.7.78,5.64,1.09,8.7,1.1-.28.36-.55.73-.83,1.1-1.47,1.92-2.9,3.86-4.38,5.78ZM370.52,190.29c11.21-2.21,19.92,1.39,29.76,6.33-.04.12-.07.25-.08.37-11.15,3.98-21.01.5-29.68-6.7ZM399.79,190.79c-.27.06-.47.18-.63.32-8.87-4.63-19.59-8.03-28.59-4.37.27-.38.52-.74.77-1.06.61-.79,1.33-1.62,2.05-2.48,16.3-3.6,31.76-3.51,47.92-.3-6.58,4.35-13.51,6.1-21.51,7.89ZM419.99,177.58c-.23.1-.37.25-.49.42-5.6-1.36-11.27-2.07-16.95-2.18,12.66-6.13,25.02-10.15,39.03-10.47-6.27,5.74-13.45,8.55-21.59,12.22ZM454.6,161.03c-2.15.33-4.29.67-6.44,1.01-.35-.47-.91-.8-1.65-.82-5.37-.16-10.77.16-16.08.97.73-.98,1.4-2.02,2.05-3.05,10.49-3.24,20.87-5.46,31.78-5.71-3.02,2.76-6.21,5.32-9.65,7.61ZM473.46,139.55c-2.89,3.18-6.25,5.94-9.15,9.1-2.52.04-5.02.14-7.52.37,2.36-2.86,4.37-6.21,6.13-9.56,5.69-3.36,11.71-6.44,17.81-9.18-2.22,3.24-4.61,6.35-7.27,9.27Z"/>
</svg>