<?xml version="1.0" encoding="UTF-8"?>
<svg id="Objects" xmlns="http://www.w3.org/2000/svg" viewBox="0 0 500 500">
  <defs>
    <style>
      .cls-1 {
        fill: #de953d;
      }

      .cls-2 {
        fill: #280d05;
      }

      .cls-3 {
        fill: #f9da55;
      }
    </style>
  </defs>
  <path class="cls-1" d="M200.54,279.34c-.33.21-.66.4-.99.61-.27.17-.54.22-.81.23-3.63,3.16-7.29,6.27-10.95,9.31,7.27-2.93,14.79-5.17,22.5-6.77-3.26-.9-6.51-2.02-9.75-3.38Z"/>
  <path class="cls-3" d="M168.17,288.4c12.97-21.03,20.14-44.46,21.63-68.81-32.51,23-44.98,62.54-48.72,100.47,10.15-9.24,19.42-19.23,27.09-31.66ZM147.21,304.28c4.7-21.98,14.48-42.56,24.68-62.56,1.25-2.46,4.87-.3,3.72,2.13-9.51,20.18-16.53,41.24-25.33,61.7-.78,1.82-3.43.44-3.07-1.27Z"/>
  <path class="cls-1" d="M146.11,350.68c16.94-4.97,32.9-11.54,49.17-17.94-11.37.73-22.67,2.43-33.85,5.25-21.49,5.43-39.74,15.48-59.01,25.4,44.38,13.52,89.65,2.71,121.03-30.52-5.41-.4-10.8-.59-16.19-.57-.15.52-.46.99-.98,1.31-17.53,10.95-38.65,17.53-58.84,21.77-3.13.66-4.41-3.8-1.32-4.71Z"/>
  <path class="cls-1" d="M113.99,349c14.08-8.64,30.15-14.67,46.83-18.52-4.71-.11-9.39-.39-13.98-.89-.74-.08-1.32-.36-1.83-.72-8.53,6.95-18.02,12.61-28.44,16.49-.85,1.22-1.7,2.45-2.58,3.64Z"/>
  <path class="cls-1" d="M137.46,302.26c-3.51,11.64-8.24,23-14.25,33.5,4.11-3.32,8.99-6.63,12.41-9.99v-.03c0-7.97.49-15.81,1.83-23.48Z"/>
  <path class="cls-3" d="M369.81,148.79c7.75-4.51,16.07-8.36,24.55-11.82,15.23-11.8,27.4-24.86,38.15-40.35-19.44,8.93-37.12,20.64-53.57,34.3-2.72,6.03-5.74,12.07-9.14,17.87Z"/>
  <path class="cls-3" d="M152.05,322.65c35.61,1.77,72.15-3.97,92.07-35.14-27.6-.81-53.05,5.92-77.35,18.28-4.46,6.06-9.37,11.73-14.72,16.86ZM175.42,309.71c13.47-5.39,27.82-10.59,42.36-12.16,2.22-.24,2.43,3.05.5,3.65-13.92,4.32-28.05,7.35-41.78,12.36-2.49.91-3.46-2.9-1.08-3.85Z"/>
  <path class="cls-3" d="M349.13,175.54c5.8-1.82,11.65-3.52,17.55-5.06,2.27-.6,5.29,1.17,5.02,3.75-.6,5.65-2.23,10.64-4.66,15.13,9.71-6.83,20.17-12.31,28.82-20.84,9.54-9.41,16.95-20.38,22.27-32.45-18.19,6.77-35.68,15.2-53.97,21.61-4.49,6.55-9.49,12.63-15.05,17.86ZM372.1,169.43c4.03-3.91,8.07-7.8,12.2-11.61,3.75-3.46,7.44-7.4,11.77-10.14,2.15-1.36,3.89,1.54,2.53,3.21-3.28,4.03-7.84,7.31-11.8,10.69-4.05,3.46-8.18,6.82-12.32,10.18-1.64,1.32-3.94-.81-2.38-2.33Z"/>
  <path class="cls-3" d="M260.65,231.33c7.71-.38,15.44-.4,23.12-1.48,9.84-1.37,19.28-4.56,29.05-6.05,22.68-9.56,46.02-22.16,50.29-44.25-27.89,7.7-54.32,18.69-80.34,31.19-6.77,7.66-14.17,14.63-22.12,20.6ZM293.96,218.06c16.31-8.85,31.29-19.62,47.31-28.85,2.17-1.25,4.65,1.78,2.73,3.47-13.86,12.13-31.16,21.21-47.64,29.4-2.71,1.34-5.08-2.56-2.39-4.01Z"/>
  <path class="cls-1" d="M313.31,237.91c-38.3,3.65-72.56,17.3-105.27,36.84,41.05,7.8,76.33-8.82,105.27-36.84ZM247.73,268.84c13.89-9.21,28.17-18.69,43.08-26.22,2.1-1.06,3.64,1.71,1.82,3.04-13.47,9.83-28.42,18.23-42.97,26.42-2.16,1.22-3.96-1.91-1.93-3.25Z"/>
  <path class="cls-1" d="M96.76,334.95c4.24-20.1,13.01-40.5,23.28-57.84.92-1.55,3.71-.49,3.02,1.25-8.71,22.09-15.69,44.52-23.9,66.73-.25.68-.85,1.1-1.51,1.28.45,3.71,1.04,7.37,1.77,10.9,18.64-28.94,33.53-56.8,38.07-91.59-32.07,8.44-41.74,39.34-40.73,69.27Z"/>
  <path class="cls-3" d="M273.21,156.83c-43.23,17.37-64.05,55.83-61.82,100.58,28.93-28.92,56.6-59.35,61.82-100.58ZM220.6,220.79c7.57-13.74,16.84-28.23,29.07-38.46,1.49-1.24,4.24.46,2.9,2.19-9.84,12.7-20.17,24.44-28.25,38.4-1.37,2.37-5.04.26-3.73-2.13Z"/>
  <path class="cls-3" d="M358.44,363.09c-27.4,4.93-51.6,16.79-73.39,33.76,29.78,3.43,65.25-1.33,73.39-33.76Z"/>
  <path class="cls-1" d="M221.07,259.45c14.8-9.26,30.99-16.24,47.84-21.2-5.37-.21-10.53-.87-15.17-2.06-6.48,4.19-13.29,7.71-20.42,10.35-3.96,4.4-8.04,8.71-12.25,12.91Z"/>
  <path class="cls-3" d="M281.08,200.5c7.65-8.9,14.33-18.47,20.1-28.53-.02-.31,0-.64.19-.96,1.01-1.8,2.09-3.55,3.23-5.26,4.03-7.68,7.56-15.61,10.56-23.77-8.79,3.72-16.08,7.89-23.86,13.27-2.62,2.21-5.17,4.53-7.59,6.92-1.86,1.83-3.52,3.7-5.32,5.41-5.94,23.77-17.91,45.26-33.18,64.79,12.62-9.84,25.17-19.42,35.87-31.86ZM294.34,157.66c.99-1.64,3.6-.15,2.61,1.5-7.37,12.19-14.66,24.41-22.39,36.37-.78,1.2-2.65.13-1.95-1.12,6.98-12.41,14.39-24.55,21.74-36.75Z"/>
  <path class="cls-3" d="M291.45,200.13c15.6-8.82,32.03-15.92,49-21.73,6.23-10.78,14.52-20.4,21.02-31.07,5.91-9.71,10.82-19.79,15.28-30.14-6.24,3.62-12.26,7.36-18.14,11.25,1.15.5,1.82,2.28.81,3.4-14.06,15.44-29.9,29.29-43.93,44.82-1.89,2.1-4.92-.95-3.11-3.05,11.42-13.3,23.42-27.21,36.95-38.79-12.61,8.94-24.53,18.65-36.02,29.43-5.99,12.33-13.29,24.59-21.85,35.88Z"/>
  <path class="cls-1" d="M41.31,435.26c4.78-1.87,12.79-20.15,16-24.73,8.43-12,17.58-23.43,27.08-34.6-22.18,15.41-44.41,30.11-64.68,48.4,6.18,5.11,15.14,13.46,21.6,10.93Z"/>
  <path class="cls-1" d="M402.2,320.03c8.33,3.94,15.52,8.19,25.63,8.7,9.65.49,18.74-2.21,26.64-7.19-17.28-4.83-34.56-4.82-52.28-1.51Z"/>
  <g>
    <path class="cls-2" d="M486.21,56.96c-15.87,6.24-30.18,17.13-43.52,27.52-.37,0-.77.08-1.17.24-21.68,8.84-41.42,20.72-58.36,36.29,1.46-3.68,2.83-7.33,4.05-10.88.15-.43.17-.84.13-1.24,3.39-3.76,6.85-7.46,10.45-11.02,4.47-4.44,9.58-8.37,13.83-12.99,1.23-1.33-.38-3.75-2.06-2.62-9.2,6.17-17.24,15.25-24.43,23.85-.96-.4-2.08-.42-3.05.16-20.18,12.03-43.37,24.22-61.27,40.79,1.32-3.43,2.57-6.85,3.67-10.2.4-1.23.06-2.29-.65-3.05,10.1-9.56,19.61-19.99,26.81-31.67,1-1.62-1.38-3.51-2.71-2.05-10.55,11.55-20.5,23.41-31.61,34.41-9.29,4.78-18.52,10.9-26.44,17.91-3.19,1.86-6.54,4-9.51,6.47.47-2.6.9-5.2,1.22-7.85.17-1.41-.78-2.63-2.02-3.29,4.19-5.17,8.53-10.22,13.14-15.03,4.77-4.99,10.36-9.39,14.85-14.6,1.24-1.43-.39-4.05-2.2-2.8-11.22,7.74-20.59,19.94-28.92,30.5-.44.56-.48,1.18-.31,1.73-48.57,15.49-82.14,65.71-70.73,115.89-10.77,10.68-21.51,21.24-31.15,32.16-.13.15-.19.3-.27.45-.29.16-.59.29-.88.45,16.02-25.72,24.64-56.71,24.9-84.3,0-.29-.06-.55-.12-.81,4.25-9.15,9.31-17.81,13.36-27.08.98-2.25-1.88-5.19-3.83-2.9-6.46,7.56-10.69,17.33-13.74,27.11-.84.08-1.67.38-2.36.96-23.43,19.87-40.74,45.13-49.72,73.43,1.28-6.73,2.18-13.44,2.76-20.02,9.87-13.36,18.2-29.55,24.74-44.23.98-2.2-1.87-3.91-3.31-1.9-8.97,12.54-18.3,27.2-24.78,41.78-.2,0-.4.02-.59.05-49.38,9.44-55.72,63.3-46.6,103.41.19.82.63,1.35,1.16,1.72,0,.03,0,.06-.02.09-30.52,13.28-58.22,36.4-82.3,58.53-1.57,1.44-.98,3.79.64,4.86,8.39,5.56,16.8,10.9,25.62,15.78.91.5,2.21.24,2.73-.7,14.54-26.81,33.66-51.86,55.22-73.62.3.23.6.46,1.01.6,48.84,17.69,102.31,2.7,135.3-36.33,16.12-7.77,32.84-15.36,47.84-25.03,2.38-1.54.33-4.7-2.17-3.65-15.57,6.5-30.43,15.25-45.09,23.65-.62-.76-1.58-1.31-2.8-1.44-9.05-.97-18.52-1.35-28.14-1.12,21.35-6.29,40.19-18.62,51.25-39.32.03-.05.04-.1.06-.16,17.79-1.21,35.2-4.55,51.98-10.6,1.82-.66,1.12-3.24-.81-2.86-14.33,2.83-28.66,5.53-43.07,7.85,24.27-8.31,46.51-25.21,63.63-43.44,12.93-4.23,26.68-7.84,38.74-13.87,2.51-1.26.72-4.93-1.86-4.34-12.06,2.78-23.88,8.08-35.49,12.74-.6-1.28-1.8-2.25-3.53-2.16-3.16.15-6.32.38-9.48.66,10.25-4.94,20.07-10.88,29.04-16.89,7.54-5.05,14.42-10.51,19.57-17.09.43.24.92.37,1.4.3,30.64-4.46,54.72-39,64.14-65.31.15-.42.17-.85.13-1.26,14.64-6.7,29.01-16.03,39.77-27.34,1.4-1.48-.41-4.03-2.26-2.88-13.88,8.63-27.37,17.91-41.1,26.8-.39-.02-.78.01-1.17.14-2.3.78-4.63,1.58-6.96,2.39,11.89-10.89,21.15-25.25,29.05-38.45.5-.84.52-1.85.25-2.79,13.37-9.85,28.01-17.7,41.5-27.3,1.46-1.04.64-3.92-1.35-3.14ZM57.31,410.54c-3.21,4.58-11.23,22.86-16,24.73-6.46,2.53-15.41-5.81-21.6-10.93,20.27-18.29,42.5-32.99,64.68-48.4-9.5,11.17-18.66,22.6-27.08,34.6ZM349.31,134.82c-13.53,11.58-25.52,25.48-36.95,38.79-1.81,2.1,1.22,5.15,3.11,3.05,14.03-15.53,29.87-29.38,43.93-44.82,1.01-1.11.35-2.89-.81-3.4,5.88-3.89,11.91-7.63,18.14-11.25-4.46,10.35-9.37,20.42-15.28,30.14-6.5,10.67-14.78,20.29-21.02,31.07-16.98,5.81-33.4,12.9-49,21.73,8.56-11.29,15.86-23.55,21.85-35.88,11.49-10.79,23.41-20.49,36.02-29.43ZM278.4,167.57c1.81-1.71,3.47-3.58,5.32-5.41,2.42-2.39,4.97-4.71,7.59-6.92,7.78-5.38,15.07-9.55,23.86-13.27-3,8.16-6.53,16.1-10.56,23.77-1.14,1.71-2.22,3.46-3.23,5.26-.18.32-.21.65-.19.96-5.77,10.07-12.45,19.63-20.1,28.53-10.69,12.45-23.25,22.03-35.87,31.86,15.27-19.52,27.24-41.02,33.18-64.79ZM253.74,236.19c4.64,1.19,9.8,1.85,15.17,2.06-16.85,4.97-33.04,11.95-47.84,21.2,4.2-4.2,8.29-8.51,12.25-12.91,7.13-2.65,13.94-6.16,20.42-10.35ZM273.21,156.83c-5.22,41.24-32.88,71.67-61.82,100.58-2.23-44.75,18.58-83.21,61.82-100.58ZM198.75,280.18c.27,0,.54-.06.81-.23.33-.21.66-.4.99-.61,3.24,1.36,6.49,2.48,9.75,3.38-7.7,1.6-15.23,3.84-22.5,6.77,3.66-3.04,7.32-6.15,10.95-9.31ZM189.8,219.59c-1.5,24.35-8.66,47.78-21.63,68.81-7.67,12.43-16.94,22.41-27.09,31.66,3.74-37.93,16.21-77.47,48.72-100.47ZM145.01,328.86c.51.36,1.09.64,1.83.72,4.6.5,9.27.78,13.98.89-16.68,3.85-32.75,9.88-46.83,18.52.89-1.19,1.74-2.42,2.58-3.64,10.42-3.88,19.91-9.54,28.44-16.49ZM135.63,325.77c-3.43,3.36-8.42,6.67-12.53,9.99,6.01-10.5,10.97-21.85,14.48-33.5-1.33,7.67-1.95,15.5-1.95,23.48v.03ZM97.65,346.37c.66-.18,1.25-.6,1.51-1.28,8.22-22.21,15.2-44.64,23.9-66.73.69-1.75-2.1-2.8-3.02-1.25-10.27,17.34-19.03,37.74-23.28,57.84-1.01-29.92,8.66-60.83,40.73-69.27-4.54,34.79-19.43,62.66-38.07,91.59-.73-3.54-1.31-7.19-1.77-10.9ZM206.28,333.62c.52-.32.83-.8.98-1.31,5.39-.02,10.78.16,16.19.57-31.37,33.22-76.64,44.03-121.03,30.52,19.27-9.91,37.52-19.97,59.01-25.4,11.18-2.83,22.49-4.52,33.85-5.25-16.27,6.4-32.23,12.97-49.17,17.94-3.08.91-1.8,5.37,1.32,4.71,20.19-4.24,41.31-10.81,58.84-21.77ZM152.05,322.65c5.36-5.13,10.26-10.8,14.72-16.86,24.29-12.36,49.75-19.09,77.35-18.28-19.92,31.16-56.45,36.91-92.07,35.14ZM208.04,274.74c32.71-19.54,66.97-33.19,105.27-36.84-28.94,28.01-64.22,44.64-105.27,36.84ZM312.82,223.8c-9.77,1.5-19.21,4.68-29.05,6.05-7.68,1.07-15.42,1.1-23.12,1.48,7.95-5.96,15.35-12.93,22.12-20.6,26.02-12.5,52.45-23.48,80.34-31.19-4.26,22.08-27.6,34.69-50.29,44.25ZM418.14,136.07c-5.33,12.07-12.73,23.04-22.27,32.45-8.65,8.53-19.11,14-28.82,20.84,2.42-4.49,4.06-9.48,4.66-15.13.27-2.58-2.75-4.35-5.02-3.75-5.91,1.55-11.76,3.25-17.55,5.06,5.56-5.23,10.56-11.31,15.05-17.86,18.28-6.41,35.77-14.85,53.97-21.61ZM394.36,136.97c-8.48,3.46-16.8,7.31-24.55,11.82,3.4-5.8,6.41-11.84,9.14-17.87,16.44-13.66,34.12-25.36,53.57-34.3-10.76,15.48-22.92,28.54-38.15,40.35Z"/>
    <path class="cls-2" d="M361.87,355.83c-31.64,4.69-60.94,18.28-82.77,41.47-1.05,1.12-.27,2.46.87,2.72-.12,1.7.68,3.49,2.62,3.96,34.67,8.35,77.68-5.33,83.45-44.07.39-2.66-1.45-4.49-4.16-4.08ZM285.05,396.85c21.79-16.97,45.99-28.82,73.39-33.76-8.13,32.43-43.61,37.18-73.39,33.76Z"/>
    <path class="cls-2" d="M464.09,316.39c-22.74-8.42-47.31-8.93-69.52,1.21-2.03.92-.77,3.7,1.16,3.66,15.47,22.89,51.62,16.16,70.11,1.65,2.57-2.01.73-5.6-1.75-6.52ZM427.83,328.73c-10.11-.51-17.31-4.76-25.63-8.7,17.72-3.32,35-3.32,52.28,1.51-7.9,4.98-17,7.68-26.64,7.19Z"/>
    <path class="cls-2" d="M171.89,241.72c-10.2,20-19.98,40.58-24.68,62.56-.36,1.71,2.29,3.08,3.07,1.27,8.8-20.45,15.82-41.51,25.33-61.7,1.15-2.44-2.47-4.59-3.72-2.13Z"/>
    <path class="cls-2" d="M217.78,297.55c-14.54,1.57-28.89,6.77-42.36,12.16-2.37.95-1.41,4.76,1.08,3.85,13.72-5.01,27.86-8.05,41.78-12.36,1.93-.6,1.72-3.88-.5-3.65Z"/>
    <path class="cls-2" d="M249.67,182.33c-12.24,10.23-21.51,24.72-29.07,38.46-1.31,2.39,2.35,4.51,3.73,2.13,8.08-13.96,18.4-25.7,28.25-38.4,1.34-1.73-1.41-3.43-2.9-2.19Z"/>
    <path class="cls-2" d="M290.81,242.62c-14.92,7.53-29.19,17.01-43.08,26.22-2.03,1.34-.23,4.47,1.93,3.25,14.54-8.19,29.5-16.59,42.97-26.42,1.82-1.33.28-4.1-1.82-3.04Z"/>
    <path class="cls-2" d="M341.27,189.21c-16.02,9.23-30.99,20-47.31,28.85-2.69,1.46-.32,5.36,2.39,4.01,16.48-8.18,33.78-17.27,47.64-29.4,1.93-1.69-.55-4.72-2.73-3.47Z"/>
    <path class="cls-2" d="M294.34,157.66c-7.35,12.2-14.76,24.34-21.74,36.75-.7,1.25,1.17,2.32,1.95,1.12,7.74-11.97,15.03-24.19,22.39-36.37,1-1.65-1.62-3.14-2.61-1.5Z"/>
    <path class="cls-2" d="M396.07,147.68c-4.33,2.74-8.02,6.68-11.77,10.14-4.13,3.81-8.18,7.69-12.2,11.61-1.56,1.52.74,3.65,2.38,2.33,4.14-3.36,8.27-6.72,12.32-10.18,3.96-3.38,8.52-6.66,11.8-10.69,1.36-1.67-.37-4.57-2.53-3.21Z"/>
  </g>
</svg>