<?xml version="1.0" encoding="UTF-8"?>
<svg id="Objects" xmlns="http://www.w3.org/2000/svg" viewBox="0 0 500 500">
  <defs>
    <style>
      .cls-1 {
        fill: #de953d;
      }

      .cls-2 {
        fill: #b7572c;
      }

      .cls-3 {
        fill: #280d05;
      }

      .cls-4 {
        fill: #f9da55;
      }
    </style>
  </defs>
  <path class="cls-4" d="M202.74,171.33c.18,9.08-1.53,18.11-5.65,26.26.13.54.29,1.08.4,1.63,3.82-8.91,10.35-16.4,18.15-22.3,1.89-4.43,4.29-8.54,5.53-13.28,1.25-4.79,1.94-9.73,2.56-14.64-9.58,4.88-16.21,12.73-20.99,22.33ZM217.02,161.37c-1.71,3.88-4.05,7.54-6.15,11.23-.55.96-2.04.1-1.5-.86,2.08-3.7,3.99-7.59,6.44-11.06.52-.74,1.57-.11,1.21.7Z"/>
  <path class="cls-4" d="M278.04,122.4c17.42-5.38,32.67-15.41,38.77-32.81-16.47,7.3-28.35,18.75-38.77,32.81ZM293.43,110.33c4.35-4.74,9.22-9.54,14.39-13.41.82-.61,1.59.64,1.02,1.3-4.12,4.83-9.22,9.32-14.18,13.32-.86.69-1.99-.38-1.23-1.21Z"/>
  <path class="cls-4" d="M265.66,139.67c-.87,1.46-1.51,3.03-1.9,4.71,14.25-5.63,27.42-10.4,38.24-21.46-.66.06-1.34.14-2.03.23-.08.17-.19.32-.36.43-6.79,4.52-14.82,7.76-22.21,11.22-1.06.5-1.97-.97-.93-1.56,5.06-2.86,10.18-6,15.47-8.64-8.9,2.06-18.43,5.87-23.93,11.96-.73,1.08-1.51,2.12-2.34,3.12Z"/>
  <path class="cls-4" d="M224.7,90.38c1.58-6.76,1.74-13.39.46-20.1-5.26,8.84-8.28,17.06-7.94,27.93,0,.13-.05.25-.13.34.07,1.02.15,2.05.16,3.07,1.63-4.34,4.18-8.07,7.45-11.24ZM221.61,83.75c.18-1.05,1.82-.61,1.63.44-.43,2.37-.8,4.75-1.52,7.05-.19.59-1.15.5-1.13-.15.11-2.47.6-4.9,1.02-7.34Z"/>
  <path class="cls-4" d="M230.13,90.62c-5.26,3.94-9.19,8.91-12.38,14.79-.14.26-.36.37-.59.38-.36,5.46-1.61,10.82-3.91,15.91,12.88-3.13,16.02-18.93,16.89-31.09ZM222.26,108.51c.65-2.72,2.09-5.25,3.29-7.76.61-1.27,2.48-.16,1.91,1.09-1.12,2.46-2.11,5.09-3.73,7.28-.53.71-1.69.3-1.47-.61Z"/>
  <path class="cls-1" d="M215.02,124.59c-1.01.13-2.07.11-3.18-.06-.53.97-1.09,1.93-1.7,2.88-.06.1-.14.15-.21.22.12,1.97.17,3.93.08,5.89,1.37-3.23,3.05-6.19,5-8.93Z"/>
  <path class="cls-1" d="M203.52,156.53s-.06-.02-.1-.03c-.39.7-.78,1.39-1.21,2.08-.22.35-.54.48-.85.46.48,2.4.84,4.83,1.07,7.27,1.55-3.75,3.76-7.16,6.44-10.18-1.68.36-3.46.5-5.36.39Z"/>
  <path class="cls-4" d="M209.77,138.16c-.05.09-.11.16-.18.21-.71,5.1-2.2,10.13-4.52,14.96,16.4-.27,21.44-22.66,22.71-36.78-7.65,5.67-13.64,13.22-18.02,21.61ZM222.53,128.35c-2.2,3.99-5.35,7.57-8.12,11.18-.69.9-2.25.06-1.57-.9,2.67-3.78,5.18-7.9,8.41-11.25.66-.68,1.72.19,1.29.97Z"/>
  <path class="cls-4" d="M212.31,88.69c-3.51,6.77-5.38,13.65-6.28,21.28,1.57,4.13,2.73,8.34,3.38,12.6,4.55-10.98,6.19-22.38,2.9-33.88ZM210.91,97.28c0-1.3,1.99-1.29,2.05,0,.18,4.1.89,8.58.23,12.65-.16.99-1.81.95-2,0-.83-4.03-.29-8.55-.28-12.65Z"/>
  <path class="cls-2" d="M194.79,365.52c-3.71-22.35-3.88-45.88-3.99-68.2-.13-25.16.87-50.79,5.31-75.65-.05,0-.1,0-.15,0-.82-.3-1.59-1.07-2.16-1.92-3.69,21.99-6.01,44.26-7.06,66.52-1.03,21.85.72,43.5.64,65.29,2.7,4.58,5.21,9.22,7.41,13.97Z"/>
  <path class="cls-4" d="M179.72,173.2c-2.33,15.96-1.27,33.7,15.09,41.88.69-15.99-3.68-29.98-15.09-41.88ZM190.98,199.37c-2.95-3.82-4.48-8.79-5.55-13.41-.21-.93,1.22-1.32,1.45-.39,1.19,4.72,3.35,8.88,5.19,13.35.28.68-.73.93-1.09.45Z"/>
  <path class="cls-1" d="M202.22,109.59c-6.69,15.32-6.78,30.28-.84,46.07,6.52-14.82,7.52-31.24.84-46.07ZM201.01,120.22c1.22,5.8,2.71,11.64,3.1,17.56.06.94-1.35,1.05-1.61.21-1.71-5.61-2.35-11.53-3.24-17.3-.17-1.11,1.51-1.62,1.75-.47Z"/>
  <path class="cls-4" d="M196.07,193.85c4.23-17.39,4.45-33.9-3.43-50.37-5.92,10.87-6.41,21.3-5.38,33.41,3.89,5.07,6.91,10.85,8.82,16.95ZM192.55,165.97c.02-1.05,1.55-1.02,1.64,0,.42,5.09,1.6,9.94,2.48,14.96.14.78-1.02,1.41-1.4.58-2.22-4.79-2.82-10.32-2.72-15.54Z"/>
  <path class="cls-4" d="M283.33,108.7c1.83-8.43,4.3-16.75,6.68-25.04.41-1.42,2.61-.82,2.25.61-1.75,6.94-3.45,13.94-5.49,20.82,1.47-1.46,2.98-2.87,4.56-4.22,2.68-8.53,4.39-16.36,3.85-24.47-.21-.18-.35-.43-.34-.78.02-.5.08-.99.13-1.49-.3-2.58-.83-5.2-1.65-7.9-7.87,12.27-20.42,32.52-12.43,45.34.79-.98,1.6-1.94,2.43-2.88Z"/>
  <path class="cls-4" d="M312.6,59.5c-2.81,4.67-5.98,9.13-8.5,14-.37.72-1.64.2-1.33-.55,2.4-5.91,5.33-12.17,9.88-16.8.17-.17.36-.24.55-.25.08-.55.19-1.07.25-1.62-.36-.07-.7-.36-.73-.71-7.25,4.55-11.75,10.9-14.59,18.91.88,5.37.96,10.91,0,16.22,6.89-9.21,12.21-18.27,14.48-29.2Z"/>
  <path class="cls-1" d="M319.5,84.28c3.74-2.52,7.42-4.62,10.2-8.52,2.54-3.56,3.95-7.74,4.57-12.02-8.1,2.74-15.47,6.54-22.91,10.71-3.3,7.33-8.01,13.96-14.37,18.86-.47,1.5-1.03,2.97-1.69,4.4,7.38-5.6,15.64-10.12,24.09-13.4.04-.01.08-.01.12-.02ZM312.71,82.85c4.46-3.62,8.85-7.57,13.74-10.63.77-.48,1.59.61.96,1.22-4.14,3.98-9.06,7.29-13.67,10.73-.78.58-1.78-.72-1.04-1.32Z"/>
  <path class="cls-4" d="M319.44,66.33c5.09-2.86,10.56-5.11,16.12-6.86,6-5.71,10.01-12.25,11.53-20.39-4.77,2.26-9.51,4.61-14.42,6.57-.9,2.1-1.86,4-2.47,5.3-2.68,5.72-6.26,10.99-10.76,15.39ZM331.47,55.1c2.51-3.71,5.39-8.2,9.08-10.87.71-.51,1.69.49,1.21,1.19-1.2,1.71-2.82,3.17-4.21,4.74-1.64,1.85-3.21,3.76-4.69,5.74-.6.8-1.97.06-1.39-.8Z"/>
  <path class="cls-4" d="M347.33,30.8c-2.24,2.61-4.85,4.97-7.25,7.41-.8.82-2.07-.43-1.27-1.24,3.06-3.1,5.96-6.57,9.49-9.15.19-.14.41-.09.59.04.7-1.33,1.4-2.67,2.12-3.99-5.81,4.31-11.02,9.19-16.12,14.35-.17,1.5-.6,3.11-1.16,4.71,3.4-2.09,6.92-4.01,10.41-5.95,1.06-2.06,2.12-4.12,3.19-6.18Z"/>
  <path class="cls-4" d="M331.02,39.69c0-.11.02-.22.07-.34.14-.84.07-1.57-.45-1.89-.63-.4-6.6,5.22-7.18,5.77-2.27,2.16-4.22,4.58-6.17,7.01-.43,5.99-1.63,12.18-3.62,18.14,7.09-7.34,13.05-15.2,16.16-25.06.26-.84.92-2.33,1.19-3.63ZM328.22,46.06c-1.79,2.08-3.86,3.79-5.42,6.1-1.54,2.28-2.75,4.7-3.61,7.3-.4,1.2-2.24.71-1.93-.52,1.37-5.38,4.53-11.69,9.64-14.56,1.13-.63,2.09.78,1.32,1.68Z"/>
  <path class="cls-1" d="M276.57,110.43c-.27,3.22-.79,6.52-1.59,9.78,1.24-2.15,2.61-4.23,4.08-6.24-1.06-1.12-1.88-2.31-2.49-3.54Z"/>
  <path class="cls-4" d="M214.97,182.55c-2.17,6.01-5.5,11.78-8.28,17.54-.48.99-1.92.13-1.48-.85,1.95-4.28,3.71-8.81,5.81-13.09-4.82,4.97-8.97,10.62-12.92,16.88.46,3.84.46,7.7-.05,11.52,18.98-4.25,24.92-22.78,27.26-39.65-3.82,2.21-7.2,4.73-10.32,7.48,0,.06,0,.12-.03.18Z"/>
  <path class="cls-4" d="M264.28,135.72c3.19-6.08,6.16-12.07,7.59-18.98.66-3.19,3.42-23.47-.37-24.79-3.62-1.26-10.46,14.22-11.45,17.39-3.1,9.96-1.08,19.19,2.67,28.45.47-.71.98-1.4,1.55-2.07ZM261.89,123.89c-.04-7.77,2.3-15.72,5.09-22.92.49-1.26,2.53-.76,2.1.57-2.41,7.47-3.56,14.99-5.25,22.61-.24,1.09-1.93.81-1.94-.26Z"/>
  <path class="cls-1" d="M202.51,178.15c-.6,6.74-2.33,13.34-5.42,19.44.13.54.29,1.08.4,1.63,3.82-8.91,10.35-16.4,18.15-22.3,1.89-4.43,4.29-8.54,5.53-13.28.53-2.03.94-4.08,1.31-6.15-4.4,8.72-11.35,17.14-19.97,20.66Z"/>
  <path class="cls-1" d="M314.36,90.79c-1.92,2.05-3.89,4.06-5.89,6.01.49.18.78.95.37,1.42-4.12,4.83-9.22,9.32-14.18,13.32-.86.69-1.99-.38-1.23-1.21,1.03-1.12,2.09-2.24,3.17-3.35-3.85,2.85-7.93,5.4-12.3,7.6-2.15,2.51-4.24,5.11-6.26,7.83,17.42-5.38,32.67-15.41,38.77-32.81-.84.37-1.63.81-2.45,1.2Z"/>
  <path class="cls-1" d="M299.96,123.14c-.08.17-.19.32-.36.43-6.79,4.52-14.82,7.76-22.21,11.22-.55.26-1.05-.01-1.27-.41-2.12.49-4.25.66-6.22.32-.67.59-1.32,1.2-1.9,1.85-.73,1.08-1.51,2.12-2.34,3.12-.87,1.46-1.51,3.03-1.9,4.71,14.25-5.63,27.42-10.4,38.24-21.46-.66.06-1.34.14-2.03.23Z"/>
  <path class="cls-1" d="M180.13,173.65c-.14-.15-.27-.3-.41-.45-2.33,15.96-1.27,33.7,15.09,41.88.15-3.55.04-7-.33-10.35-10.35-4.56-12.43-20.52-14.35-31.08Z"/>
  <path class="cls-1" d="M214.17,195.22c-3.48,3.97-9.6,11.24-15.81,10.58.18,2.92.09,5.85-.3,8.75,17-3.81,23.52-19.07,26.39-34.34-2.28,5.57-6.36,10.52-10.28,15.01Z"/>
  <path class="cls-1" d="M262.79,124.83c-.46-.06-.9-.4-.9-.94-.03-6,1.36-12.1,3.28-17.88,1.14-4.81,2.6-9.62,4.96-13.86-3.75,1.97-9.2,14.38-10.07,17.18-3.1,9.96-1.08,19.19,2.67,28.45.47-.71.98-1.4,1.55-2.07.79-1.51,1.57-3.01,2.31-4.53-2.24-1.58-3.35-3.84-3.81-6.36Z"/>
  <path class="cls-1" d="M194.64,406.05c10.15,23.84,12.69,51.15,12.76,77,2.59-5.13,6.98-9.6,12.27-11.42-20.36-41.24-.87-92.51,34.82-118.82.14-.24.35-.41.63-.47.07-.05.14-.11.21-.16,1.22-.88,2.41-.1,2.8,1.01,12.21,4.57,24.89,14.71,22.95,28.78-1.81,13.12-12.96,25.31-24.26,33.35,17.19-2.96,30.23-19.26,30.93-36.27.84-20.44-14.77-34.2-33.57-38.74-.03,0-.05-.03-.08-.04-29.23,16.48-43.98,46.43-44.59,78.81,0,.51-.87.67-.95.13-1.94-12.91-.06-25.85,4.64-37.8-.28-.3-.46-.72-.4-1.28,2.29-22.24,6.38-44.58,16.61-64.76,10.26-20.24,26.98-35.92,41.5-53.13,22.6-26.79,39.47-56.11,52.9-87.4-4.51,8.35-9.34,16.49-14.2,24.37-11.99,19.46-25.66,37.95-40.79,55.19-16.02,18.26-34.6,34.86-47.15,55.8-13.81,23.04-17.77,49.02-13.84,75.25.13.84-1.13,1.23-1.33.36-4.51-19.25-3.21-39.85,3.26-58.58,0-.02,0-.03,0-.05-.17-15.19,2.86-31.1,5.46-46.06,2.72-15.66,6.23-31.18,10.5-46.51,4.43-15.88,9.79-31.5,15.94-46.81,5.44-13.54,10.93-27.9,18.83-40.25,0-.03-.02-.05-.03-.08,0-.03,0-.07-.01-.1-.42-.33-.45-.96-.13-1.41,0-.2,0-.4,0-.59-18.57,33.9-33.25,68.4-42.43,106.09-5.02,20.6-8.75,41.48-11.78,62.45-2.63,18.18-3,37.66-6.94,55.79.14,2.56.27,5.12.36,7.68,0,.04-.01.07-.02.1,2.43,7.57,3.86,15.5,3.78,23.97-.01,1.14-1.72,1.12-1.79,0-.59-8.61-2.62-16.66-5.55-24.34,0,0,0-.02,0-.02-11.61-30.44-37.59-55.24-46.88-87.08-5.36-18.37-6.46-37.57-8.19-56.5-1.09-11.95-3-23.22-5.6-34.42.78,20.78-2.8,41.82-3.83,62.51-1.48,29.75,4.01,55.67,20.88,80.67,14.29,21.17,32.25,40.12,42.34,63.8Z"/>
  <path class="cls-2" d="M257.01,278.01c-11.12,9.18-20.04,20.22-27.83,32.32-12.17,18.89-21.66,41.4-22.51,64.06.24,3.67.61,7.36,1.17,11.05.08.52-.38.87-.79.85.37,3.53.98,7.05,1.84,10.55.9-5.26,2.35-10.43,4.31-15.42-.28-.3-.46-.72-.4-1.28,2.29-22.24,6.38-44.58,16.61-64.76,7.08-13.96,17.22-25.75,27.6-37.37Z"/>
  <path class="cls-2" d="M262.12,354.9c10.8,5.14,20.68,14.54,18.95,27.08-1.81,13.12-12.96,25.31-24.26,33.35,14.9-2.57,26.67-15.16,30-29.54-.33-15.62-8.75-31.29-24.7-30.89Z"/>
  <path class="cls-2" d="M212.14,424.44c-.14-.35-.28-.7-.42-1.04-.68-1.63-1.44-3.23-2.19-4.82,0,.17-.02.34-.02.51,0,.51-.87.67-.95.13-.18-1.17-.29-2.35-.4-3.52-3.03-6.14-6.39-12.12-9.61-18.18-9.89-18.64-23.48-34.06-36.51-50.55-16.65-21.08-26.45-44.8-30.72-70.15.9,23.53,7.06,44.8,20.98,65.44,14.29,21.17,32.25,40.12,42.34,63.8,10.15,23.84,12.69,51.15,12.76,77,2.59-5.13,6.98-9.6,12.27-11.42-7.39-14.97-9.51-31.25-7.53-47.19Z"/>
  <path class="cls-4" d="M277.63,125.88c-.75.12-1.52.18-2.28.26-.4.57-.8,1.14-1.2,1.72.08-.05.17-.11.25-.16,1.06-.65,2.14-1.25,3.24-1.82Z"/>
  <g>
    <path class="cls-3" d="M372.71,8.02c.54-.56-.14-1.44-.84-1.06-5.32,2.89-10.14,7.01-14.82,10.98-.42-.69-1.3-1.1-2.12-.58-7.51,4.8-14.64,10.5-20.34,17.34-.17-.45-.37-.86-.66-1.23,1.87-4.84,4.15-9.45,6.37-14.16.38-.8-.65-1.37-1.19-.68-3.31,4.22-5.47,9.26-6.89,14.41-6.38,1.83-12.75,8.59-16.72,14.98,2.21-7.74,5.88-14.46,9.77-21.66.56-1.04-.86-2.27-1.73-1.31-6.05,6.67-9.33,15.73-10.97,24.45-7.06,3.76-12.84,9.82-15.73,17.09-.43-1.54-.91-3.05-1.46-4.52-.2-.53-.58-.88-1.03-1.04,1.09-5.39,2.83-10.5,4.36-15.8.29-1.01-1.2-1.64-1.73-.72-3.03,5.23-4.24,11.37-4.71,17.33-6.5,9.54-11.71,19.99-15.22,30.95-.2.63-.39,1.27-.58,1.91-.5-2.84-1.44-5.25-3.14-6.4,1.29-6,1.51-12.35,2.5-18.37.15-.92-1.19-1.33-1.45-.39-1.59,5.66-3.35,12.03-3.37,18.09-5.97.21-11.94,14.1-13.43,18.19-4.11,11.3-3.18,24.81,3.44,35.01-23.59,31.34-37.08,70.62-46.4,108.04-5.25,21.1-9.07,42.53-12.16,64.04-1.53,10.6-3.55,21.64-4.99,32.71-1.33-16.05-2.77-32.1-2.86-48.29-.16-26.46,2.09-52.72,3.39-79.11.22.03.44.04.68,0,22.21-4.69,28.56-27.22,30.75-46.62.02-.16,0-.3-.02-.44,3.69-5.43,7.3-11.53,8.77-17.93.23-1-1.28-1.76-1.78-.74-2.87,5.87-5.22,11.79-8.68,17.36-.37-.03-.73.02-1.05.18-1.83.94-3.62,1.96-5.38,3.04,4.08-7.91,5-18.32,6.02-26.45,5.41-7.07,10.5-14.71,13.4-23.11.37-1.09-1.27-1.71-1.85-.77-4.47,7.24-8.31,14.81-12.85,22.01-.39-.06-.79-.02-1.12.12-.77.32-1.52.7-2.27,1.07,6.46-9.62,9.1-23.65,9.29-32.98,3.24-5.63,6.5-11.62,8.2-17.9.28-1.02-1.25-1.71-1.78-.74-2.9,5.34-5.11,11.12-7.59,16.68-.54-.25-1.18-.29-1.72.09-.26.18-.49.37-.75.55,3.9-8.65,5.67-19.35,5.87-24.75,0-.06-.02-.11-.02-.16,1.49-3.58,3.19-7.17,4.2-10.9.2-.73-.89-1.21-1.26-.52-1.69,3.13-2.88,6.54-4.13,9.88-.52-.21-1.13-.22-1.64.1-1.42.88-2.76,1.84-4.02,2.86,2.28-7.43,2.32-14.94.21-22.58-.07-.27-.22-.49-.4-.66.69-3.34,1.89-6.52,2.61-9.85.15-.71-.84-1.19-1.24-.51-1.71,2.97-2.39,6.53-2.87,9.91-.44.08-.85.32-1.12.73-3.75,5.87-8.25,13.02-9.72,20.29-.14-.47-.24-.95-.39-1.41-.29-.91-1.2-1.31-2.01-1.14.12-4.69.23-9.43-.43-14.06-.16-1.1-1.74-.69-1.84.24-.57,5.33-.08,10.8.23,16.15-3.62,6.13-5.87,12.97-6.26,20-.11-.23-.2-.46-.31-.68-.2-.41-.54-.65-.93-.77-.2-1.94-.58-3.88-.72-5.81-.21-2.92-.16-5.85-.38-8.77-.07-1.03-1.68-1.39-1.94-.26-1.06,4.71-1.23,11.25.56,16.16-5.14,8.91-7.58,19.24-7.25,29.48-.9-6.34-1.12-12.62-1.41-19.08-.05-1.12-1.85-1.49-2.09-.28-1.53,7.77-.52,16.01,1.74,23.57-.03.03-.06.06-.08.09-6.22,9.61-9.87,22.08-7.76,33.54-1.1-1.14-2.24-2.24-3.43-3.28-1.78-8.91-4.21-17.57-4.68-26.73-.06-1.22-1.95-1.24-1.95,0,0,8.91.65,18.16,4.11,26.48-.17.17-.3.38-.34.67-2.66,17.15-2.73,39.09,15.55,47.48-4.48,22.3-7.74,44.68-9.14,67.39-1.22,19.77-2.27,40.67-.16,60.63-11.08-17.75-23.84-34.96-29.88-54.7-6.11-19.97-6.96-40.99-9.09-61.61-1.69-16.33-3.65-34.62-11.56-49.53-.2-.94-.37-1.88-.59-2.82-.16-.65-.86-.85-1.42-.68-.32-.52-.63-1.05-.97-1.56-.44-.66-1.61-.26-1.35.56.7,2.25,1.37,4.47,2.03,6.69,3.69,52.21-16.55,106.41,12.2,154.52,13.05,21.83,31.25,40.32,43.21,62.82,15.05,28.33,14.91,59.38,16.95,90.41.02.29.09.54.19.77.03,1,.05,1.89.74,2.72.29.35.76.36,1.15.19.38.41,1.22.34,1.43-.3,1.33-4.14,3.39-8.21,6.31-11.49,2.95-3.31,6.45-4.91,10.18-7.08,1.37-.8.8-2.54-.46-2.89-6.21-21.61-9.16-42.52-2.35-64.57,6.28-20.35,19.42-37.93,36.75-50.56,11.75,8.27,25.2,16.35,17.29,32.84-5.5,11.46-15.24,20.33-25.82,27.22-2.01,1.31-.66,3.94,1.56,3.63,22.3-3.14,40.65-16.97,41.48-40.6.73-20.76-14.91-40.07-36.2-42.61-.56-.43-1.33-.59-2.14-.15-14.8,8.09-27.31,20.72-35.41,35.55,2.88-22.5,8.32-44.88,20.69-64.32,12.23-19.21,29.46-34.94,43.4-52.92,27.1-34.95,49.52-76.32,59.85-119.27.16-.64-.12-1.13-.55-1.4-.52-.89-2.05-1.21-2.61-.08-11.52,23.34-21.7,46.75-35.8,68.82-14.13,22.12-30.5,42.58-48.47,61.8-14.87,15.9-30.33,31.91-39.82,51.56,1.52-11.88,2.5-23.86,4.6-35.68,2.68-15.09,6.05-30.07,10.11-44.86,4.06-14.78,8.69-29.43,14-43.82,5.41-14.67,12.6-28.69,17.96-43.34.72.41,1.87.03,2.22-.82,17.29-.77,33.14-13.26,44.02-25.36.04-.05.07-.1.1-.15,7.21-2.34,14.93-5.98,20.1-11.42.78-.82-.21-2.13-1.23-1.56-6.45,3.57-12.38,7.59-19.06,10.75-.28-.26-.65-.44-1.12-.45-4.32-.12-8.6.25-12.79,1.06,12.42-6.95,22-19.04,27.76-31.82,8.09-3.32,16.56-8.41,22.53-14.78.74-.79-.23-2.22-1.23-1.56-4.38,2.89-8.67,5.87-13,8.81,4.59-4.85,7.73-11.64,8.69-17.53,5.87-2.76,11.91-5.5,17.32-9.06.67-.44.26-1.72-.59-1.38-5.75,2.31-11.16,5.46-16.51,8.56.01-.17.05-.35.06-.51.01-.2-.03-.38-.09-.56,7.65-5.74,12.37-15.2,12.94-24.47.01-.16,0-.31-.04-.45,4.4-3.44,9.4-6.77,13.1-10.87.78-.86-.22-2.32-1.31-1.66-4.95,3-9.31,7.47-13.69,11.25-.26.02-.52.07-.76.21-.49.28-.99.56-1.48.84,3.28-4.92,6.55-9.85,9.56-14.93,5.58-3.8,11.55-7.64,16.19-12.43ZM225.32,174.89c-2.35,16.87-8.28,35.4-27.26,39.65.5-3.81.51-7.68.05-11.52,3.95-6.26,8.1-11.9,12.92-16.88-2.1,4.29-3.86,8.81-5.81,13.09-.44.97,1.01,1.84,1.48.85,2.78-5.76,6.11-11.53,8.28-17.54.02-.06.02-.12.03-.18,3.12-2.75,6.5-5.27,10.32-7.48ZM223.73,149c-.62,4.91-1.31,9.85-2.56,14.64-1.24,4.74-3.64,8.85-5.53,13.28-7.8,5.89-14.34,13.39-18.15,22.3-.11-.55-.27-1.09-.4-1.63,4.13-8.15,5.83-17.18,5.65-26.26,4.77-9.6,11.41-17.45,20.99-22.33ZM201.36,159.05c.31.02.63-.1.85-.46.43-.69.81-1.38,1.21-2.08.04,0,.06.02.1.03,1.9.12,3.68-.03,5.36-.39-2.68,3.02-4.89,6.43-6.44,10.18-.23-2.44-.59-4.87-1.07-7.27ZM205.08,153.33c2.31-4.84,3.81-9.86,4.52-14.96.07-.05.13-.12.18-.21,4.38-8.39,10.37-15.94,18.02-21.61-1.28,14.12-6.31,36.51-22.71,36.78ZM209.93,127.63c.07-.07.15-.13.21-.22.61-.95,1.17-1.91,1.7-2.88,1.11.17,2.17.19,3.18.06-1.95,2.75-3.64,5.7-5,8.93.09-1.96.04-3.93-.08-5.89ZM217.22,98.22c-.34-10.87,2.67-19.09,7.94-27.93,1.28,6.71,1.12,13.34-.46,20.1-3.27,3.17-5.81,6.9-7.45,11.24-.01-1.02-.09-2.05-.16-3.07.08-.09.14-.2.13-.34ZM217.15,105.8c.23-.02.45-.13.59-.38,3.19-5.88,7.12-10.85,12.38-14.79-.87,12.16-4.01,27.96-16.89,31.09,2.3-5.09,3.55-10.45,3.91-15.91ZM212.31,88.69c3.3,11.5,1.65,22.89-2.9,33.88-.65-4.25-1.81-8.47-3.38-12.6.89-7.63,2.76-14.51,6.28-21.28ZM202.22,109.59c6.69,14.83,5.69,31.25-.84,46.07-5.94-15.79-5.85-30.75.84-46.07ZM192.64,143.48c7.88,16.47,7.66,32.98,3.43,50.37-1.91-6.11-4.93-11.89-8.82-16.95-1.02-12.12-.53-22.55,5.38-33.41ZM179.72,173.2c11.41,11.89,15.78,25.89,15.09,41.88-16.36-8.18-17.42-25.92-15.09-41.88ZM186.74,286.26c1.05-22.26,3.37-44.53,7.06-66.52.57.85,1.34,1.63,2.16,1.92.05.02.1,0,.15,0-4.44,24.86-5.44,50.49-5.31,75.65.11,22.32.28,45.85,3.99,68.2-2.2-4.75-4.72-9.39-7.41-13.97.08-21.79-1.67-43.43-.64-65.29ZM241.65,187.79c-6.15,15.32-11.52,30.93-15.94,46.81-4.27,15.33-7.78,30.84-10.5,46.51-2.6,14.96-5.63,30.87-5.46,46.06,0,.02,0,.03,0,.05-6.47,18.73-7.77,39.33-3.26,58.58.2.87,1.45.48,1.33-.36-3.93-26.23.03-52.21,13.84-75.25,12.54-20.93,31.12-37.54,47.15-55.8,15.12-17.24,28.79-35.73,40.79-55.19,4.85-7.88,9.69-16.02,14.2-24.37-13.43,31.29-30.3,60.61-52.9,87.4-14.52,17.21-31.24,32.9-41.5,53.13-10.23,20.17-14.32,42.52-16.61,64.76-.06.56.12.97.4,1.28-4.7,11.95-6.58,24.9-4.64,37.8.08.54.94.39.95-.13.61-32.38,15.36-62.33,44.59-78.81.03,0,.05.03.08.04,18.8,4.55,34.41,18.3,33.57,38.74-.7,17.01-13.75,33.31-30.93,36.27,11.3-8.04,22.45-20.23,24.26-33.35,1.94-14.07-10.75-24.22-22.95-28.78-.39-1.11-1.58-1.89-2.8-1.01-.07.05-.14.11-.21.16-.28.06-.49.24-.63.47-35.69,26.31-55.18,77.57-34.82,118.82-5.29,1.81-9.68,6.28-12.27,11.42-.07-25.85-2.61-53.16-12.76-77-10.08-23.68-28.05-42.63-42.34-63.8-16.87-25-22.36-50.92-20.88-80.67,1.03-20.69,4.61-41.73,3.83-62.51,2.6,11.2,4.51,22.47,5.6,34.42,1.73,18.93,2.83,38.13,8.19,56.5,9.3,31.84,35.28,56.64,46.88,87.08,0,0,0,.02,0,.02,2.93,7.69,4.96,15.73,5.55,24.34.08,1.12,1.78,1.14,1.79,0,.08-8.47-1.35-16.39-3.78-23.97,0-.04.02-.06.02-.1-.09-2.56-.22-5.12-.36-7.68,3.94-18.13,4.32-37.61,6.94-55.79,3.03-20.97,6.75-41.85,11.78-62.45,9.19-37.68,23.86-72.19,42.43-106.09,0,.2,0,.39,0,.59-.32.45-.29,1.08.13,1.41,0,.03,0,.07.01.1,0,.03.02.05.03.08-7.9,12.35-13.39,26.71-18.83,40.25ZM317.3,50.24c1.95-2.43,3.9-4.85,6.17-7.01.59-.56,6.56-6.17,7.18-5.77.52.33.58,1.05.45,1.89-.05.11-.07.23-.07.34-.28,1.3-.93,2.8-1.19,3.63-3.11,9.87-9.06,17.73-16.16,25.06,1.99-5.96,3.2-12.16,3.62-18.14ZM298.12,72.48c2.84-8.02,7.34-14.37,14.59-18.91.03.36.37.64.73.71-.06.55-.17,1.08-.25,1.62-.19,0-.38.08-.55.25-4.55,4.63-7.47,10.9-9.88,16.8-.31.75.96,1.27,1.33.55,2.53-4.86,5.69-9.32,8.5-14-2.27,10.92-7.59,19.99-14.48,29.2.96-5.31.88-10.85,0-16.22ZM293.33,66.24c.82,2.69,1.35,5.31,1.65,7.9-.05.49-.11.99-.13,1.49-.02.34.13.6.34.78.54,8.11-1.17,15.94-3.85,24.47-1.58,1.35-3.09,2.76-4.56,4.22,2.05-6.88,3.74-13.88,5.49-20.82.36-1.43-1.84-2.03-2.25-.61-2.39,8.29-4.85,16.61-6.68,25.04-.83.94-1.65,1.9-2.43,2.88-8-12.82,4.56-33.07,12.43-45.34ZM276.57,110.43c.61,1.23,1.43,2.42,2.49,3.54-1.47,2.01-2.84,4.09-4.08,6.24.8-3.26,1.32-6.56,1.59-9.78ZM275.35,126.14c.76-.08,1.53-.14,2.28-.26-1.09.58-2.18,1.17-3.24,1.82-.08.05-.17.11-.25.16.4-.58.8-1.15,1.2-1.72ZM262.73,137.78c-3.76-9.26-5.77-18.49-2.67-28.45.99-3.17,7.82-18.65,11.45-17.39,3.79,1.32,1.03,21.61.37,24.79-1.43,6.91-4.41,12.9-7.59,18.98-.57.66-1.08,1.35-1.55,2.07ZM299.6,123.57c.17-.11.28-.27.36-.43.69-.09,1.37-.16,2.03-.23-10.82,11.06-23.98,15.83-38.24,21.46.39-1.68,1.03-3.25,1.9-4.71.83-1,1.61-2.04,2.34-3.12,5.5-6.09,15.02-9.89,23.93-11.96-5.29,2.65-10.41,5.78-15.47,8.64-1.04.59-.13,2.06.93,1.56,7.39-3.46,15.42-6.7,22.21-11.22ZM278.04,122.4c10.41-14.06,22.3-25.51,38.77-32.81-6.1,17.4-21.35,27.43-38.77,32.81ZM329.7,75.76c-2.78,3.9-6.46,6-10.2,8.52-.04.01-.08,0-.12.02-8.45,3.28-16.7,7.8-24.09,13.4.67-1.43,1.23-2.9,1.69-4.4,6.36-4.89,11.07-11.53,14.37-18.86,7.44-4.16,14.81-7.96,22.91-10.71-.62,4.28-2.03,8.45-4.57,12.02ZM347.09,39.07c-1.52,8.15-5.52,14.68-11.53,20.39-5.56,1.76-11.03,4-16.12,6.86,4.5-4.4,8.08-9.67,10.76-15.39.61-1.3,1.57-3.19,2.47-5.3,4.91-1.96,9.65-4.3,14.42-6.57ZM348.89,27.85c-.17-.12-.39-.18-.59-.04-3.53,2.58-6.44,6.04-9.49,9.15-.8.81.46,2.06,1.27,1.24,2.4-2.43,5.02-4.79,7.25-7.41-1.07,2.06-2.13,4.12-3.19,6.18-3.49,1.94-7.01,3.86-10.41,5.95.56-1.6.99-3.22,1.16-4.71,5.1-5.16,10.31-10.04,16.12-14.35-.72,1.32-1.42,2.66-2.12,3.99Z"/>
    <path class="cls-3" d="M192.07,198.91c-1.85-4.47-4-8.63-5.19-13.35-.23-.93-1.67-.53-1.45.39,1.07,4.62,2.6,9.59,5.55,13.41.37.47,1.37.22,1.09-.45Z"/>
    <path class="cls-3" d="M194.18,165.97c-.08-1.02-1.62-1.05-1.64,0-.1,5.21.5,10.74,2.72,15.54.38.83,1.54.2,1.4-.58-.88-5.01-2.06-9.86-2.48-14.96Z"/>
    <path class="cls-3" d="M215.81,160.67c-2.45,3.48-4.37,7.36-6.44,11.06-.54.96.96,1.82,1.5.86,2.1-3.69,4.44-7.35,6.15-11.23.36-.8-.69-1.44-1.21-.7Z"/>
    <path class="cls-3" d="M201.01,120.22c-.24-1.14-1.93-.64-1.75.47.89,5.78,1.53,11.69,3.24,17.3.25.84,1.67.72,1.61-.21-.38-5.92-1.88-11.77-3.1-17.56Z"/>
    <path class="cls-3" d="M221.25,127.38c-3.23,3.36-5.74,7.47-8.41,11.25-.68.96.88,1.8,1.57.9,2.78-3.61,5.93-7.19,8.12-11.18.43-.78-.63-1.66-1.29-.97Z"/>
    <path class="cls-3" d="M212.96,97.28c-.06-1.29-2.05-1.3-2.05,0-.01,4.1-.55,8.62.28,12.65.2.95,1.84.99,2,0,.66-4.07-.05-8.55-.23-12.65Z"/>
    <path class="cls-3" d="M225.55,100.75c-1.2,2.51-2.64,5.04-3.29,7.76-.22.91.95,1.32,1.47.61,1.62-2.19,2.61-4.82,3.73-7.28.57-1.25-1.3-2.36-1.91-1.09Z"/>
    <path class="cls-3" d="M221.61,83.75c-.42,2.44-.91,4.86-1.02,7.34-.03.65.94.74,1.13.15.73-2.3,1.09-4.68,1.52-7.05.19-1.05-1.45-1.49-1.63-.44Z"/>
    <path class="cls-3" d="M266.98,100.97c-2.79,7.2-5.13,15.15-5.09,22.92,0,1.06,1.7,1.35,1.94.26,1.69-7.62,2.84-15.14,5.25-22.61.43-1.33-1.61-1.83-2.1-.57Z"/>
    <path class="cls-3" d="M307.82,96.92c-5.17,3.87-10.04,8.67-14.39,13.41-.76.83.37,1.9,1.23,1.21,4.96-3.99,10.06-8.49,14.18-13.32.56-.66-.2-1.91-1.02-1.3Z"/>
    <path class="cls-3" d="M326.46,72.22c-4.9,3.05-9.28,7.01-13.74,10.63-.74.6.26,1.9,1.04,1.32,4.6-3.44,9.53-6.74,13.67-10.73.63-.61-.19-1.7-.96-1.22Z"/>
    <path class="cls-3" d="M326.89,44.38c-5.11,2.87-8.27,9.17-9.64,14.56-.31,1.23,1.53,1.72,1.93.52.86-2.6,2.07-5.02,3.61-7.3,1.56-2.3,3.63-4.01,5.42-6.1.77-.89-.19-2.31-1.32-1.68Z"/>
    <path class="cls-3" d="M340.55,44.23c-3.7,2.67-6.57,7.16-9.08,10.87-.58.86.79,1.6,1.39.8,1.48-1.98,3.04-3.89,4.69-5.74,1.39-1.57,3.02-3.03,4.21-4.74.48-.69-.5-1.7-1.21-1.19Z"/>
  </g>
</svg>