<?xml version="1.0" encoding="UTF-8"?>
<svg id="Objects" xmlns="http://www.w3.org/2000/svg" viewBox="0 0 500 500">
  <defs>
    <style>
      .cls-1 {
        fill: #de953d;
      }

      .cls-2 {
        fill: #b7572c;
      }

      .cls-3 {
        fill: #280d05;
      }

      .cls-4 {
        fill: #f9da55;
      }
    </style>
  </defs>
  <g>
    <path class="cls-4" d="M231.99,134.25c5.82-12.36,6.28-26.64-1.97-37.71-7.11,13.12-8.94,25.87-10.71,40.81,0,.07-.04.11-.05.17.72,5.64.36,11.36-1.09,16.85,4.72-6.63,10.3-12.64,13.82-20.13ZM231.12,108.24c.26-1.11,2.17-.88,2.04.27-1.12,9.87-2.85,20.45-6.46,29.75-.53,1.36-2.42.82-2.2-.6,1.55-9.83,4.31-19.73,6.61-29.42Z"/>
    <path class="cls-1" d="M208.84,120.07s-.06-.01-.09-.02c-5.28,15.61-5.72,31.62-1.48,47.64,10.32-15.41,11.75-32.15,1.57-47.62ZM209.77,136.44c.05-1.25,1.92-1.25,1.97,0,.25,6,.57,11.93-.15,17.92-.13,1.05-1.54,1.05-1.67,0-.72-5.99-.4-11.91-.15-17.92Z"/>
    <path class="cls-4" d="M230.44,153.54c-1.31-.04-2.64-.14-3.98-.31-.42-.05-.76-.22-1.05-.42-2.83,2.95-5.98,5.55-9.38,7.69-.16.37-.31.75-.48,1.12,4.49-3.38,9.55-6.05,14.9-8.09Z"/>
    <path class="cls-4" d="M246.38,242.53c14.04-9.17,26.05-20.02,34.87-34.17-4.23,1.63-8.31,3.58-12.14,6.04-3.44,2.22-6.31,4.97-9.78,6.94-3.2,7.67-7.55,14.78-12.96,21.19ZM260.12,227.59c4.3-6.35,9.43-12.7,15.94-16.97.62-.41,1.23.48.77.97-5.26,5.61-10.9,10.72-15.71,16.75-.44.56-1.38-.17-.99-.75Z"/>
    <path class="cls-1" d="M228.72,149.05c17.4-.58,33.91-8.52,40.38-24.9-1.74.1-3.41.29-5.05.55-.48.16-.96.33-1.46.45-.26.06-.51.03-.73-.04-11.02,2.32-19.85,8.36-28.04,16.36-1.5,2.66-3.2,5.2-5.1,7.57ZM242.14,141.07c5.29-3.77,10.5-7.62,16.21-10.76.9-.49,1.97.76,1.13,1.44-5.09,4.18-10.67,7.63-16.22,11.19-1.21.78-2.24-1.07-1.12-1.87Z"/>
    <path class="cls-4" d="M320.44,203.63c-.57,1.11-1.21,2.28-1.89,3.48,1.87-1.12,3.72-2.27,5.33-3.89,2.46-2.48,4.3-5.36,5.66-8.5-1.09,1.41-2.44,2.67-3.65,3.96-.74.79-1.95-.4-1.21-1.18,1-1.04,1.96-2.19,3.01-3.2-3.14.31-6.18.89-9.16,2.13-.43,1.44-.92,2.85-1.51,4.17.3-.06.59-.14.89-.19,1.95-.36,3.44,1.44,2.53,3.23Z"/>
    <path class="cls-4" d="M279.59,225.66c4.16-8.14,11.45-14.45,19.79-18.85.76-2.49,1.49-4.99,2.17-7.5-3.8,4.03-7.85,7.71-11.32,12.07-.53.67-1.73-.24-1.2-.91,3.61-4.59,7.59-9.52,12.38-12.97.23-.16.46-.15.64-.04.07-.26.15-.52.21-.78-5.34,3.01-9.91,6.78-14.76,10.48-4.34,7.72-9.64,15-15.88,21.36,2.64-1.06,5.3-2,7.98-2.85Z"/>
    <path class="cls-4" d="M240.27,122.58c3.35-6.35,7.9-11.89,13.29-16.5,2.24-10.18,3.32-20.62.98-30.79-4,4.34-7.46,8.98-9.97,14.41-2.62,5.68-3.33,11.63-4.95,17.47,1.16,5.01,1.35,10.22.65,15.4ZM247.82,89.11c.18-1.12,2.1-.85,2,.27-.53,6.19-1.34,12.35-3.86,18.09-.45,1.02-1.82.21-1.68-.7.93-5.93,2.6-11.71,3.53-17.66Z"/>
    <path class="cls-2" d="M143.55,287.45c2.88-12.33,7.59-24.64,12.85-36.52-4.23-20.18-2.4-42.26-4.82-62.84-2.61-22.14-7.35-44.5-17.94-64.4-9.2-17.29-22.59-32.99-40.16-42.54-16.73-9.09-33.53-10.3-50.85-7.48,45.66,2.85,77.38,44.39,90.97,85.87,9.27,28.3,13.39,58.56,13,88.25-.17,12.78-1.04,26.3-3.06,39.67Z"/>
    <path class="cls-4" d="M329.71,185.14c.63-1.47,1.19-2.96,1.72-4.46-3.91,2.44-7.51,5.28-11.22,8.04-.22,1.33-.46,2.69-.76,4.06,2.24-1.32,4.87-1.95,7.56-2.25.78-1.83,1.93-3.59,2.7-5.39ZM325.62,185.97c.77-.74,1.5-1.56,2.39-2.17.59-.41,1.42.41,1,.98-.62.87-1.45,1.59-2.21,2.34-.76.75-1.95-.42-1.18-1.16Z"/>
    <path class="cls-1" d="M381.41,105.63c-5.18.36-14.64-.16-21.99,1.6-1.64,1.34-3.36,2.58-5.14,3.74,17.09,10.12,37.07,7.87,50.65-5.75-7.85-.18-15.67-.13-23.52.41ZM392.53,108.79c-5.78,2.87-12.27,4.3-18.52,5.83-1.9.46-2.57-2.18-.79-2.83,5.92-2.17,11.98-4.58,18.28-5.41,1.37-.18,2.52,1.67,1.03,2.41Z"/>
    <path class="cls-4" d="M274.54,111.32c3.69-4.51,5.59-9.34,6.87-14.69-18.25,4.3-32.44,16.05-41.82,32.06-.15.26-.4.39-.66.43-.19.7-.39,1.39-.61,2.08,7.3-6.36,17.09-10.26,26.73-11.52,3.29-2.62,6.73-5,9.48-8.36ZM259.59,111.78c3.3-2.97,6.51-6.31,10.19-8.84.88-.6,1.68.67,1.07,1.36-2.87,3.29-6.52,6.03-9.8,8.91-.99.87-2.46-.55-1.47-1.44Z"/>
    <path class="cls-4" d="M427.73,57.56c2.19-3.2,4.27-6.34,6.16-9.57-3.7,2.67-7.95,4.91-11.74,6.87-1.26.65-2.3-1.11-1.12-1.87,2.77-1.78,5.54-3.56,8.26-5.42,2.57-1.75,4.99-3.87,7.71-5.39,1.03-2.14,1.96-4.33,2.74-6.63-9.9,5.01-19.06,11.64-26.63,19.67-1.06,3.44-2.35,6.82-3.91,10.06,5.26-3.48,11.83-5.95,18.53-7.72Z"/>
    <path class="cls-4" d="M394.95,81.26c6.57-10.08,12.06-20.14,14.87-31.63-4.86,3.01-9.5,6.3-13.84,10.06-3.8,3.3-7.28,6.96-11.16,10.16-3.01,7.9-6.99,15.72-12,22.77,6.57-5.14,14.12-8.71,22.13-11.37ZM404.32,59.09c.74-.56,1.79.53,1.28,1.26-5.8,8.24-13.47,15.21-19.68,23.18-.7.9-2.27.06-1.59-.91,5.78-8.21,11.87-17.38,19.99-23.53Z"/>
    <path class="cls-4" d="M432.38,56.44c7.24-1.57,14.3-2.4,19.72-2.84.32-.03.61.04.88.16,8.03-5.8,15.63-12.29,21.54-20.16-13.96,2.2-25.65,7.2-37,16.22-1.51,2.36-3.2,4.59-5.13,6.62ZM445.38,50.36c5.18-2.89,10.24-5.96,15.82-8.04.94-.35,1.31.98.63,1.47-4.76,3.4-10.09,5.83-15.32,8.47-1.28.65-2.39-1.2-1.13-1.9Z"/>
    <path class="cls-4" d="M411.53,84.11c-7.8,5.07-16.46,8.78-24.38,13.72-1.79,1.12-3.37-1.62-1.65-2.76,6.86-4.56,14.08-9.26,21.96-11.96-15.17,3.63-29.39,9.15-41.94,19.65.37-.05.75-.09,1.12-.14,10.48-1.47,21.05-2.12,31.62-2.07,7.14-6.42,14.74-11.66,21.48-18.34.07-.09.16-.17.25-.25.59-.58,1.18-1.16,1.75-1.77-3.47.61-6.9,1.27-10.29,2.01.67.34.85,1.41.07,1.91Z"/>
    <path class="cls-4" d="M437.37,60.41c-6.37,4.69-14.18,7.95-21.23,11.55-1.2.61-2.22-1.08-1.06-1.79,4.58-2.79,9.18-5.89,13.95-8.56-9.36,2.44-18.55,6.22-24.67,12.04-1.51,2.18-3.13,4.29-4.95,6.24,9.15-2.62,18.75-4.23,28.05-5.74,1.45-.23,2.65.58,3.06,1.68,6.66-4.5,12.18-9.89,16.87-16.76-.04-.26-.03-.52.02-.77-3,.33-6.24.78-9.56,1.38-.08.28-.23.54-.48.72Z"/>
    <path class="cls-4" d="M281.26,53.56c-9.78,7.03-16.79,16.04-22.22,26.67.44,6.1.25,12.09-.98,18,11.97-13.69,25.64-24.93,23.2-44.66ZM276.18,65.81c-2.8,3.94-5.66,7.47-7.51,11.98-.48,1.16-2.41.66-1.94-.52,1.8-4.47,4.32-9.31,8.14-12.45.68-.56,1.89.18,1.31.99Z"/>
    <path class="cls-4" d="M297.38,73.84c-7.3,2-14.07,5.39-20.45,9.76-3.8,5.89-8.57,11.26-13.75,15.76,6.27-3.57,13.19-6.11,20.43-7.47,1.66-.31,2.94.94,2.62,2.57-.19.99-.44,2.02-.73,3.07,10.24-5.76,17.47-14.29,21.03-25.43-2.81.28-5.53.78-8.19,1.46-.32.25-.66.32-.97.28ZM293.52,79.36c-1.02,1.83-2.71,3.38-4.12,4.95-1.53,1.71-3.15,3.34-4.75,4.98-1.04,1.06-2.5-.48-1.61-1.58,1.45-1.79,2.88-3.59,4.41-5.32,1.39-1.58,2.73-3.38,4.45-4.63,1.01-.74,2.15.65,1.63,1.6Z"/>
    <path class="cls-4" d="M297.9,69.16c2.39-4.66,5.33-9.04,7.35-13.93,1.92-4.63,3.17-9.34,4.22-14.17-9.84,4.48-17.74,11.52-24.16,20.09-.59,5.6-2.32,11.1-4.89,16.3,5.18-3.93,11.13-6.66,17.48-8.29ZM289.87,62.83c3.65-3.38,6.68-7.19,9.87-10.97.53-.63,1.45.18,1.1.83-2.38,4.38-5.86,8.17-9.5,11.58-.96.91-2.44-.54-1.47-1.44Z"/>
    <path class="cls-1" d="M355.16,104.65c8.65-8.2,16.14-16.82,21.51-27.13-4.48,3.89-8.86,7.79-12.86,12.3-.79.9-2.4-.32-1.68-1.27,4.59-6.05,10.23-11.98,16.88-15.97.87-2.02,1.68-4.09,2.39-6.24-8.99,2.33-16.83,6.71-22.74,14.18-6.92,8.74-7.21,17.5-8.78,27.64,1.31-1.68,3.16-2.77,5.27-3.51Z"/>
    <path class="cls-1" d="M210.46,169.68c11.54,11,42.71-4.21,50.17-16.99-19.14-.33-33.96,6.33-49.7,16.42-.15.19-.31.38-.47.58ZM226.22,164.22c5.1-3.09,11.58-6.33,17.67-6.63,1.34-.07,2,2.01.71,2.58-2.71,1.18-5.66,1.74-8.47,2.67-3.05,1.01-6.07,2.19-9.05,3.39-1.22.5-1.89-1.39-.86-2.01Z"/>
    <path class="cls-1" d="M149.49,314.6c-.44.73-1.77.23-1.43-.59,3.84-9.41,9.89-17.76,17.3-25.21,7.39-19.74,21.42-38.29,34.2-54.84,13.02-16.85,27.44-32.64,43.08-47.19,31.73-29.51,69.09-55.4,109.52-72.1-.29-.17-.58-.31-.87-.49-.41-.25-.63-.58-.79-.92-.53.29-1.05.61-1.58.88-.1.05-.19.06-.29.09-37.59,18.02-72.55,40.83-103.75,68.19-15.43,13.53-29.9,28.09-43.33,43.54-12.96,14.91-23.87,31.37-36.78,46.29-.04.05-.09.08-.14.11-2.83,7.97-5.8,15.87-9.28,23.54-.56,1.22-2.2.26-2.02-.84,3.36-20.87,13.19-41.91,21.78-61.19,9.23-20.73,19.38-41.93,32.52-60.59-.22-.2-.45-.38-.67-.59-.4-.41-.56-.85-.61-1.3-.09-.1-.18-.21-.25-.32-.29-.06-.55-.21-.75-.46-12.04,20.07-24.84,39.4-35.05,60.54-10.68,22.09-16.77,45.55-26.45,67.9-.19.43-.49.62-.81.65-.51,1.54-1.08,3.07-1.59,4.6-.94,2.8-1.91,5.38-3.17,7.93-1.78,6.32-3.92,12.46-6.44,18.35-1.3,6.55-2.9,13.13-5.85,18.66-.46.87-1.84.44-1.84-.49.01-4.57.95-9.3,2.21-14.03-.18-.37-.26-.78-.16-1.22,4.64-20,9.83-39.07,12.78-58.94-6.52-19.48-12.7-58.68-38.15-57.63-21.56.89-42.17,21.79-55.88,36.2-14.39,15.11-34.52,33.57-36.55,55.19-1.79,19.07,8.97,32.96,19.88,46.78-6.53-12.54-12.1-26.19-11.69-39.95.48-16.37,11.19-29.83,22.19-41.15,12.41-12.79,26.33-27.68,41.82-36.82,12.75-7.52,24.13-2.19,32.66,8.46,22.31,27.88,17.86,66.99,9.83,99.02-5.89,23.51-13.42,46.39-16.37,70.53-2.59,21.26-2.62,42.69-4.5,63.99,2.27-1.96,4.98-3.6,7.29-5.08,4.51-2.89,9.26-5.39,14.22-7.43.07-.03.14-.01.21-.04-10.84-49.46,7.74-106.8,53.16-133.49,45.32-26.63,120.17-24.91,147.36-75.1-19.54,23.09-55.21,31.38-83.36,37.18-41.52,8.55-88.83,18.8-105.01,62.66-.36.98-1.84.6-1.61-.43,1.56-6.9,4.26-13.1,7.82-18.69-.14-.19-.24-.4-.15-.64,7.17-19.76,23.89-38.01,39.29-52.1,15.06-13.78,32.19-25.06,50.69-33.81-.09-.23-.13-.47-.11-.72-31.58,14.77-64.24,33.06-82.54,63.12Z"/>
    <path class="cls-2" d="M164.77,272.24c-.04.05-.09.08-.14.11-2.57,7.21-5.26,14.37-8.33,21.35-.51,2.76-1.15,5.49-1.77,8.24,3.11-4.66,6.75-9.04,10.82-13.14,7.39-19.74,21.42-38.29,34.2-54.84,13.02-16.85,27.44-32.64,43.08-47.19,31.73-29.51,69.09-55.4,109.52-72.1-.29-.17-.58-.31-.87-.49-.41-.25-.63-.58-.79-.92-.53.29-1.05.61-1.58.88-.1.05-.19.06-.29.09-37.59,18.02-72.55,40.83-103.75,68.19-15.43,13.53-29.9,28.09-43.33,43.54-12.96,14.91-23.87,31.37-36.78,46.29Z"/>
    <path class="cls-2" d="M121.79,423.37c-1.6-12.07-1.73-24.3-1.06-36.5.7-12.79.59-26.84,3.51-39.69.19-4.09,1.01-8.28,2.13-12.47-.18-.37-.26-.78-.16-1.22,4.48-19.35,9.47-37.82,12.47-56.99-1.34-13.18-10.67-26.64-21.12-33.5-3.66-2.4-7.56-3.81-11.53-4.48,2.59,1.92,5.02,4.33,7.25,7.12,22.31,27.88,17.86,66.99,9.83,99.02-5.89,23.51-13.42,46.39-16.37,70.53-2.59,21.26-2.62,42.69-4.5,63.99,2.27-1.96,4.98-3.6,7.29-5.08,4.51-2.89,9.26-5.39,14.22-7.43.07-.03.14-.01.21-.04-3.09-14.08-3.78-28.79-2.16-43.26Z"/>
    <path class="cls-2" d="M241.11,295.22c-34.38,7.08-72.72,15.35-94.08,42.88,13.89-13.05,33.03-20.14,52.06-23.99,22.18-4.49,44.77-7.32,66.73-12.54,24.5-8.87,46.4-20.93,58.64-43.52-19.54,23.09-55.21,31.38-83.36,37.18Z"/>
    <path class="cls-1" d="M250.93,225.11c-2.6,3.47-4.94,7.11-7.5,10.6-.58.79-1.74.12-1.32-.76,3.47-7.42,8.91-15.81,15.39-21.08.13-.1.27-.15.41-.17.74-2.27,1.41-4.56,1.94-6.91-13.52,10.23-19.98,24.04-23.53,40.28,8.89-8.13,15.61-17.83,19.93-28.7-1.75,2.26-3.61,4.45-5.32,6.73Z"/>
    <path class="cls-4" d="M313.37,206.05c-4.92,4.62-10.25,8.81-15.09,13.52-1.06,1.03-2.64-.53-1.63-1.6,2.98-3.18,6.06-6.39,9.4-9.31-8.17,3.63-14.98,9.03-21.58,15.57,5.5-1.46,11.14-2.48,16.96-3.11,1.96-2.07,4.15-3.92,6.07-6.08,2.56-2.89,4.72-6.03,6.66-9.32-.16.04-.31.1-.47.15-.1.09-.2.13-.3.17Z"/>
    <path class="cls-1" d="M243.38,250.37c.14.54.07,1.09-.31,1.54,3.93,10.2,25.23,2.9,36.62-2.42-12.15-.14-24.17.31-36.31.88ZM272.66,251.97c-5.82,2.42-12.45,2.09-18.57,1.37-.76-.09-.81-1.2,0-1.21,6.13-.02,11.94-1.66,17.96-2.4,1.18-.14,1.71,1.78.62,2.23Z"/>
    <path class="cls-4" d="M244.85,246.9c8.55-1.64,17.37-2.32,26.13-2.19.12-.11.26-.21.42-.27,9.56-3.45,17.9-6.32,24.95-11.76-9.69,2.1-19.37,3.6-28.85,6.8-.65.22-.91-.77-.28-1,10.27-3.71,21.17-7.6,32.18-8.41,1.43-1.35,2.8-2.81,4.11-4.47-12.76.92-25.59,3.74-37.56,8.19-6.29,5.39-13.34,9.89-21.11,13.11Z"/>
    <path class="cls-4" d="M306.93,196.39c-.84,2.91-1.92,5.72-3.33,8.37,2.97-1.29,6.02-2.32,9.06-3.15.83-2.15,1.9-4.24,2.61-6.43.72-2.21,1.26-4.46,1.71-6.74-3.18,2.86-6.45,5.74-10.06,7.94ZM310.09,199.58c-.7.81-1.83-.35-1.18-1.16,1.81-2.25,3.52-4.63,5.63-6.62.6-.57,1.64.17,1.18.89-1.61,2.48-3.7,4.65-5.63,6.89Z"/>
  </g>
  <g>
    <path class="cls-3" d="M495.23,20.24c-6.1,1.87-11.87,5.04-17.46,8.07-12.68,1.49-26.35,5.22-36.05,13.61,1.38-3.17,2.49-6.45,3.39-9.72.13-.46.05-.95-.16-1.39,6.74-5.06,13.96-9.35,20.8-14.3.94-.68.44-2.44-.86-2.01-8.85,2.92-16.61,8.94-23.14,15.48-11.38,4.38-20.39,11.3-27.37,20.68.42-1.71.79-3.42,1.1-5.14.1-.57,0-1.12-.24-1.59,4.87-6.02,10.06-11.72,15.02-17.68.83-.99-.4-2.17-1.42-1.39-6.24,4.76-11.51,11.14-15.78,17.76-.34.02-.7.09-1.05.29-8.66,4.77-18.58,11.17-25.35,19.23-.51-.7-1.48-1.09-2.42-.98,4.85-6.89,10.4-13.2,15.54-19.88.66-.86-.71-1.73-1.44-1.09-6.92,5.99-12.25,13.65-17.1,21.29-.07.1-.09.21-.12.31-20.04,4.92-40.83,26.59-33.68,47.9.07.2.2.36.36.49-.35-.02-.72.03-1.1.21-37.42,17.89-72.26,40.57-103.44,67.65-27.53,23.91-57.33,52.84-75.42,85.22,3.48-10,6.98-20,11.23-29.68,8.92-20.31,20.01-39.35,30.12-59.06,16.14,11.33,51.07-7.32,56.65-23.22.05-.14.07-.28.09-.42,7.11-5.48,14.21-10.95,20.35-17.48.69-.73-.21-2.04-1.13-1.44-7.5,4.91-14.09,10.88-20.68,16.89-.21-.07-.42-.13-.64-.15-4.14-.27-8.39-.22-12.67.16,10.41-5.35,18.64-14.8,23.61-25.98.22-.49.28-1,.23-1.48,9.84-4.06,19.07-9.59,25.51-18.09.68-.89-.7-1.66-1.44-1.09-8.28,6.34-16.38,12.55-25.97,16.82,4.55-4.33,8.14-10.25,10.51-16.04,14-5.92,24.51-18.31,28.25-32.8,0-.02,0-.03,0-.05,5.3-2.85,10.45-6.79,14.77-10.71.84-.77-.23-1.95-1.17-1.49-5.15,2.51-10.6,5.77-15.15,9.52-.2-.05-.41-.09-.64-.08-2.05.11-4.08.35-6.08.66,6.44-8.57,9.87-20.77,10.92-30.48.04-.35-.03-.64-.15-.89,6.01-5.84,12.7-10.65,19.01-16.22.9-.79-.25-2.07-1.24-1.57-7.6,3.79-14.24,10.29-19.9,16.69-.33,0-.66.07-.94.19-10.46,4.44-19.54,11.36-25.75,20.54-.04-2.27-.28-4.55-.75-6.82-.07-.33-.26-.61-.5-.85,3.41-4.97,7.23-9.62,10.68-14.58.73-1.05-.85-2.12-1.74-1.31-4.74,4.31-8.41,9.99-11.54,15.59-10.42,6.98-18.57,16.14-23.06,27.47-.21-1.85-.45-3.71-.74-5.58-.12-.8-.72-1.29-1.43-1.49,2.97-6.14,6.01-12.67,7.16-19.2.16-.93-1.18-1.68-1.68-.7-3.38,6.67-5.5,14.05-8.4,20.97-7.18,7.15-14.64,18.33-16.8,29.31-1.42-2.85-3.19-5.58-5.45-8.1-.32-.35-.78-.51-1.25-.57,0-.05.04-.09.04-.14.54-7.06,1.74-14.06,2.75-21.06.13-.89-1.12-1.29-1.41-.38-2.25,7.02-3.09,14.11-3.48,21.45-.02.3.09.52.24.69-.16.15-.35.28-.44.48-5.31,10.87-9.97,23.1-11.17,35.39-1.41-3.68-3.3-7.21-5.64-10.5,1.6-5.52,2.95-11.34,3.47-16.96.13-1.37-1.94-1.5-2.34-.31-1.6,4.75-2.64,9.93-3.39,15.01-.91-.23-1.89.2-2.31,1.28-6.74,17.29-7.41,35.45-1.78,53.04-15.49,17.97-27.57,39.55-37.86,60.66-2.08,4.27-4.2,8.65-6.29,13.1.5-9.29-1.04-19.03-1.65-28.06-.84-12.51-1.92-25-3.8-37.41-3.55-23.39-10.32-46.65-23.73-66.53-22.4-33.22-68.32-56.89-107.49-35.59-1.71.93-.56,3.65,1.33,3.11,1.94-.56,3.87-1.06,5.8-1.55,54.95-1.86,89.04,49.13,101.71,96.22,7.01,26.05,9.8,52.92,8.63,79.81-.13,2.99-.34,5.94-.6,8.87-2.35-8.12-5.56-16.08-8.9-23.67-3.88-8.83-9.07-18.71-18.36-23.09-21.98-10.38-48.77,12.8-63.35,26.62-10.37,9.83-19.85,20.7-28.91,31.69-7.57,9.2-14.89,19.25-17.09,31.13-4.53,24.39,13.15,49.28,31.01,64.5.69.59,1.73.3,2.16-.33.49-.37.78-1.02.4-1.72-9.47-17.19-18.75-34.73-15.33-54.81,2.89-17,15.55-29.47,27.61-41.08,11.11-10.69,34.42-38.75,51.5-29.11,14.84,8.38,20.9,31.33,22.55,46.69,3.51,32.79-8.96,64.06-16.65,95.39-7.92,32.26-9.92,66.63-10.28,99.73-.02,1.41.9,2.13,1.94,2.28.3.27.71.4,1.17.24,4.3-1.44,7.97-5.06,11.8-7.46,4.38-2.74,9-4.97,13.7-7.11.25-.11.42-.27.59-.44.8-.03,1.57-.55,1.51-1.49-1.96-31.22-2.02-61.82,13.23-90.27,15.04-28.08,40.27-44.5,70.16-54.75,45.57-15.63,104.55-23.72,121.51-75.69.25-.76-.03-1.35-.52-1.7.43-1.59-1.66-3.34-2.89-1.79-14.22,17.97-30.76,29.64-52.8,37.1-20.86,7.06-42.88,9.87-64.23,15.1-20.04,4.91-41.98,13.45-57.67,27.59,9.25-12.42,18.33-24.69,30.19-35.44,15.9-14.41,34-25.99,53.62-34.83,1.58,4.18,7.19,6.58,12.26,6.94,13.51.98,26.73-4.15,37.45-11.86,5.22-.27,10.48-1.42,14.63-4.64.97-.75-.09-2.3-1.17-1.98-4.34,1.28-8.4,2.99-12.74,4.09-.3-.52-.85-.93-1.63-1.02-.85-.1-1.71-.18-2.57-.28,10.77-3.5,20.31-12.31,25.86-21.28,7.53-2.17,15.7-5.71,22.07-9.92,1.12-.74.45-2.56-.94-2.19-7.13,1.87-14.85,5.35-21.29,9.28-.43-.54-1.07-.91-1.84-.87-.03,0-.05,0-.08,0,2.65-2.42,5.03-5.35,7.1-8.37,4.24-.7,8.43-4.14,11.3-7.04,3.38-3.41,5.83-7.43,7.46-11.88,5.9-1.38,11.99-3.74,16.79-7.31.93-.7.45-2.6-.89-2.07-5.5,2.15-10.87,4.58-16.37,6.73-.32-.23-.68-.4-1.09-.4-.6,0-1.22.02-1.83.04.78-1.42,1.42-2.94,2.04-4.28,1.2-2.56,2.2-5.17,3.04-7.85,1.83-2.01,3.6-4.06,5.7-5.84,3-2.56,6.41-4.52,9.65-6.76.82-.57.36-2.08-.74-1.71-5.75,1.94-11.74,6.48-15.6,11.65-.41-.11-.86-.1-1.27.12-4.71,2.5-9.27,5.49-12.8,9.43.03-.22.07-.47.1-.68.02-.14,0-.27-.02-.39,3.12-4.78,6.88-9.02,10.19-13.66.64-.89-.7-1.71-1.44-1.09-4.38,3.63-7.66,8.76-10.41,13.69-.37.02-.73.14-1,.37-3.41,2.96-7.13,5.84-10.33,9.1-.02-.67-.33-1.22-.79-1.59,2.8-3.94,5.65-7.95,7.69-12.2.51-1.06-.9-2.4-1.79-1.35-3.42,4.04-6.15,8.77-8.87,13.37-5.52,2.35-11.42,5.77-15.89,10.25,2.43-3.13,4.66-6.39,6.45-9.98.44-.88-.74-1.53-1.32-.76-3.07,4.04-5.99,8.19-9.11,12.2-6.82,2.15-15.56,5.47-21.89,10.36.92-3.17,1.71-6.4,2.26-9.71.02-.14.02-.28,0-.42.83-1.06,1.66-2.13,2.5-3.19,1.06-1.35,2.26-2.72,2.92-4.3.46-1.09-1.11-1.69-1.85-1.06-1.29,1.11-2.23,2.76-3.17,4.15-.56.83-1.12,1.65-1.68,2.48-.48-.2-1.03-.19-1.6.17-15.49,10-28.17,27.32-28.59,46.04-19.25,8.9-42.37,19.99-60.31,35.13,9.53-14.14,17.92-29.07,28.38-42.67,13.52-17.58,28.51-34.07,44.83-49.2,32.28-29.95,68.84-52.4,108.53-71.55.83-.4,1.14-1.18,1.09-1.97,19.43,9.59,41.59,5.03,55.84-11.87.01-.01.02-.03.03-.05.28.65.93,1.17,1.83,1,7.53-1.44,15.6-2.29,22.83-4.83,1.37-.48,1.28-2.75-.37-2.65-7.81.48-15.69,2.84-23.32,4.46-.18.04-.3.12-.43.19-.13-1-.92-1.87-2.19-1.93-1.93-.1-3.86-.18-5.8-.23,8-4.29,15.27-11.16,21.53-17.69,2.12-.98,4.15-2.12,6.14-3.34,6.22-.11,12.4-.32,18.58-1.28,1.31-.2.9-2.09-.3-2.16-4.49-.28-8.95-.14-13.4.13,6.41-4.82,11.92-10.84,16.12-17.57.47-.33.92-.67,1.38-1,6.06-.95,12.56-2.52,17.66-5.75,1.37-.87.52-3.03-1.13-2.62-3.28.82-6.52,1.95-9.75,3.11,7.33-6.18,13.84-13.15,20.45-20.28.65-.7.78-1.81.45-2.69,4.95-2.01,9.94-4.16,14.35-7.07,1.1-.73.45-2.62-.94-2.19ZM243.07,251.91c.38-.45.45-1,.31-1.54,12.15-.56,24.16-1.02,36.31-.88-11.39,5.31-32.69,12.62-36.62,2.42ZM299.4,230.07c-11.01.81-21.91,4.7-32.18,8.41-.63.23-.37,1.22.28,1,9.48-3.2,19.16-4.7,28.85-6.8-7.05,5.44-15.39,8.32-24.95,11.76-.16.06-.29.15-.42.27-8.76-.13-17.59.54-26.13,2.19,7.76-3.22,14.81-7.72,21.11-13.11,11.97-4.46,24.79-7.28,37.56-8.19-1.31,1.66-2.68,3.12-4.11,4.47ZM307.48,215.05c-1.92,2.16-4.11,4.02-6.07,6.08-5.82.62-11.46,1.64-16.96,3.11,6.6-6.54,13.41-11.94,21.58-15.57-3.33,2.92-6.42,6.13-9.4,9.31-1,1.07.57,2.64,1.63,1.6,4.84-4.71,10.17-8.91,15.09-13.52.1-.04.21-.09.3-.17.16-.04.31-.1.47-.15-1.95,3.28-4.1,6.43-6.66,9.32ZM320.21,188.71c3.71-2.76,7.31-5.59,11.22-8.04-.53,1.5-1.09,2.99-1.72,4.46-.77,1.8-1.92,3.56-2.7,5.39-2.69.3-5.32.93-7.56,2.25.3-1.37.54-2.73.76-4.06ZM318.53,196.42c2.99-1.24,6.02-1.82,9.16-2.13-1.06,1.02-2.02,2.16-3.01,3.2-.75.79.46,1.97,1.21,1.18,1.21-1.29,2.56-2.56,3.65-3.96-1.35,3.14-3.2,6.02-5.66,8.5-1.61,1.63-3.46,2.78-5.33,3.89.68-1.19,1.32-2.36,1.89-3.48.91-1.78-.58-3.58-2.53-3.23-.3.05-.59.13-.89.19.59-1.33,1.08-2.73,1.51-4.17ZM306.93,196.39c3.61-2.2,6.88-5.08,10.06-7.94-.45,2.27-.99,4.53-1.71,6.74-.71,2.18-1.79,4.28-2.61,6.43-3.05.83-6.1,1.86-9.06,3.15,1.41-2.65,2.49-5.46,3.33-8.37ZM287.49,207.15c4.86-3.71,9.43-7.47,14.76-10.48-.06.26-.14.52-.21.78-.18-.11-.41-.12-.64.04-4.79,3.45-8.77,8.38-12.38,12.97-.53.67.67,1.58,1.2.91,3.47-4.36,7.52-8.04,11.32-12.07-.68,2.51-1.4,5.01-2.17,7.5-8.34,4.4-15.63,10.71-19.79,18.85-2.68.85-5.34,1.79-7.98,2.85,6.24-6.36,11.54-13.63,15.88-21.36ZM269.11,214.4c3.83-2.46,7.91-4.41,12.14-6.04-8.82,14.16-20.83,25.01-34.87,34.17,5.41-6.41,9.76-13.52,12.96-21.19,3.47-1.97,6.33-4.72,9.78-6.94ZM259.85,206.8c-.54,2.35-1.21,4.65-1.94,6.91-.14.02-.29.07-.41.17-6.47,5.27-11.92,13.65-15.39,21.08-.41.88.74,1.55,1.32.76,2.56-3.49,4.9-7.13,7.5-10.6,1.71-2.28,3.57-4.47,5.32-6.73-4.33,10.87-11.05,20.57-19.93,28.7,3.56-16.25,10.02-30.05,23.53-40.28ZM413.11,55.22c7.57-8.04,16.74-14.66,26.63-19.67-.78,2.3-1.71,4.49-2.74,6.63-2.72,1.52-5.14,3.64-7.71,5.39-2.72,1.86-5.49,3.64-8.26,5.42-1.19.76-.15,2.53,1.12,1.87,3.79-1.96,8.04-4.2,11.74-6.87-1.89,3.22-3.98,6.37-6.16,9.57-6.69,1.77-13.26,4.24-18.53,7.72,1.55-3.25,2.84-6.62,3.91-10.06ZM384.81,69.85c3.88-3.2,7.37-6.86,11.16-10.16,4.33-3.77,8.98-7.05,13.84-10.06-2.81,11.49-8.3,21.56-14.87,31.63-8.01,2.65-15.57,6.22-22.13,11.37,5.01-7.05,8.99-14.87,12-22.77ZM358.67,80.52c5.91-7.46,13.74-11.84,22.74-14.18-.71,2.16-1.52,4.23-2.39,6.24-6.64,3.99-12.29,9.92-16.88,15.97-.72.95.89,2.17,1.68,1.27,3.99-4.51,8.38-8.41,12.86-12.3-5.38,10.31-12.86,18.92-21.51,27.13-2.11.74-3.96,1.82-5.27,3.51,1.57-10.14,1.85-18.9,8.78-27.64ZM260.63,152.69c-7.46,12.78-38.63,28-50.17,16.99.15-.19.32-.38.47-.58,15.74-10.08,30.57-16.74,49.7-16.42ZM306.53,72.09c-3.56,11.15-10.79,19.67-21.03,25.43.29-1.05.54-2.08.73-3.07.32-1.63-.96-2.88-2.62-2.57-7.25,1.35-14.17,3.9-20.43,7.47,5.18-4.51,9.94-9.87,13.75-15.76,6.38-4.36,13.16-7.75,20.45-9.76.31.04.64-.03.97-.28,2.66-.68,5.38-1.18,8.19-1.46ZM285.31,61.15c6.42-8.57,14.32-15.61,24.16-20.09-1.04,4.83-2.3,9.54-4.22,14.17-2.02,4.89-4.96,9.26-7.35,13.93-6.35,1.63-12.29,4.36-17.48,8.29,2.57-5.2,4.3-10.69,4.89-16.3ZM259.04,80.23c5.43-10.62,12.44-19.63,22.22-26.67,2.43,19.74-11.23,30.97-23.2,44.66,1.23-5.91,1.42-11.9.98-18ZM244.57,89.71c2.5-5.43,5.97-10.08,9.97-14.41,2.34,10.17,1.25,20.62-.98,30.79-5.39,4.61-9.94,10.15-13.29,16.5.71-5.19.51-10.4-.65-15.4,1.62-5.84,2.33-11.79,4.95-17.47ZM238.93,129.11c.26-.04.5-.17.66-.43,9.38-16,23.58-27.76,41.82-32.06-1.28,5.35-3.18,10.18-6.87,14.69-2.75,3.36-6.19,5.74-9.48,8.36-9.64,1.26-19.43,5.16-26.73,11.52.22-.69.42-1.39.61-2.08ZM261.86,125.11c.22.07.47.1.73.04.5-.12.98-.29,1.46-.45,1.63-.26,3.31-.45,5.05-.55-6.47,16.38-22.98,24.32-40.38,24.9,1.9-2.38,3.61-4.92,5.1-7.57,8.2-8,17.02-14.04,28.04-16.36ZM219.26,137.53c.01-.06.04-.11.05-.17,1.77-14.95,3.6-27.69,10.71-40.81,8.25,11.07,7.78,25.35,1.97,37.71-3.52,7.48-9.1,13.5-13.82,20.13,1.45-5.49,1.81-11.21,1.09-16.85ZM225.41,152.82c.29.2.63.37,1.05.42,1.35.17,2.67.26,3.98.31-5.35,2.04-10.41,4.71-14.9,8.09.18-.37.32-.75.48-1.12,3.4-2.14,6.55-4.75,9.38-7.69ZM208.76,120.05s.06.02.09.02c10.18,15.47,8.75,32.21-1.57,47.62-4.24-16.03-3.8-32.03,1.48-47.64ZM133.6,159.53c-13.59-41.48-45.31-83.02-90.97-85.87,17.31-2.81,34.12-1.61,50.85,7.48,17.57,9.55,30.96,25.25,40.16,42.54,10.59,19.91,15.33,42.27,17.94,64.4,2.43,20.58.59,42.66,4.82,62.84-5.26,11.87-9.98,24.18-12.85,36.52,2.01-13.38,2.89-26.89,3.06-39.67.39-29.69-3.73-59.96-13-88.25ZM242.64,186.76c-15.64,14.55-30.06,30.34-43.08,47.19-12.79,16.55-26.81,35.11-34.2,54.84-7.41,7.45-13.46,15.8-17.3,25.21-.34.83.99,1.32,1.43.59,18.3-30.06,50.96-48.35,82.54-63.12-.02.25.02.49.11.72-18.5,8.75-35.63,20.03-50.69,33.81-15.4,14.09-32.12,32.34-39.29,52.1-.09.24,0,.46.15.64-3.56,5.59-6.26,11.79-7.82,18.69-.23,1.04,1.25,1.42,1.61.43,16.18-43.86,63.49-54.1,105.01-62.66,28.15-5.8,63.82-14.09,83.36-37.18-27.19,50.19-102.04,48.46-147.36,75.1-45.42,26.69-64,84.03-53.16,133.49-.07.02-.14,0-.21.04-4.97,2.04-9.72,4.54-14.22,7.43-2.31,1.48-5.02,3.13-7.29,5.08,1.88-21.3,1.91-42.73,4.5-63.99,2.95-24.14,10.47-47.01,16.37-70.53,8.03-32.03,12.48-71.14-9.83-99.02-8.53-10.66-19.91-15.98-32.66-8.46-15.49,9.14-29.41,24.03-41.82,36.82-10.99,11.32-21.7,24.78-22.19,41.15-.4,13.76,5.17,27.41,11.69,39.95-10.92-13.81-21.67-27.7-19.88-46.78,2.03-21.62,22.16-40.08,36.55-55.19,13.71-14.41,34.32-35.31,55.88-36.2,25.46-1.05,31.63,38.15,38.15,57.63-2.95,19.87-8.15,38.93-12.78,58.94-.1.44-.02.85.16,1.22-1.26,4.73-2.2,9.46-2.21,14.03,0,.93,1.38,1.35,1.84.49,2.95-5.53,4.55-12.1,5.85-18.66,2.52-5.89,4.66-12.03,6.44-18.35,1.26-2.56,2.23-5.13,3.17-7.93.51-1.52,1.08-3.05,1.59-4.6.32-.03.62-.22.81-.65,9.68-22.35,15.77-45.81,26.45-67.9,10.22-21.13,23.01-40.47,35.05-60.54.2.25.46.4.75.46.07.11.16.22.25.32.05.45.2.89.61,1.3.21.21.44.39.67.59-13.15,18.66-23.29,39.86-32.52,60.59-8.59,19.28-18.42,40.32-21.78,61.19-.18,1.1,1.46,2.06,2.02.84,3.48-7.67,6.44-15.57,9.28-23.54.05-.04.09-.06.14-.11,12.91-14.92,23.82-31.38,36.78-46.29,13.43-15.45,27.9-30.01,43.33-43.54,31.21-27.36,66.17-50.17,103.75-68.19.09-.03.19-.04.29-.09.54-.28,1.05-.59,1.58-.88.16.34.39.67.79.92.28.18.58.32.87.49-40.43,16.7-77.79,42.59-109.52,72.1ZM404.93,105.22c-13.58,13.62-33.56,15.88-50.65,5.75,1.78-1.16,3.5-2.41,5.14-3.74,7.35-1.77,16.81-1.24,21.99-1.6,7.85-.54,15.67-.58,23.52-.41ZM419.99,81.96c-.09.08-.19.16-.25.25-6.74,6.67-14.35,11.91-21.48,18.34-10.57-.05-21.14.6-31.62,2.07-.36.05-.75.09-1.12.14,12.55-10.5,26.77-16.02,41.94-19.65-7.89,2.7-15.1,7.4-21.96,11.96-1.72,1.14-.14,3.88,1.65,2.76,7.92-4.94,16.58-8.65,24.38-13.72.77-.5.6-1.57-.07-1.91,3.39-.74,6.82-1.4,10.29-2.01-.57.61-1.16,1.19-1.75,1.77ZM447.39,59.08c-4.69,6.87-10.2,12.25-16.87,16.76-.41-1.1-1.61-1.91-3.06-1.68-9.3,1.51-18.9,3.12-28.05,5.74,1.82-1.95,3.45-4.06,4.95-6.24,6.13-5.82,15.31-9.6,24.67-12.04-4.77,2.67-9.37,5.77-13.95,8.56-1.16.7-.14,2.4,1.06,1.79,7.05-3.6,14.85-6.86,21.23-11.55.25-.18.4-.44.48-.72,3.32-.6,6.56-1.05,9.56-1.38-.06.26-.07.52-.02.77ZM452.97,53.77c-.27-.11-.55-.19-.88-.16-5.41.43-12.48,1.26-19.72,2.84,1.93-2.02,3.62-4.26,5.13-6.62,11.35-9.02,23.04-14.03,37-16.22-5.91,7.87-13.51,14.36-21.54,20.16Z"/>
    <path class="cls-3" d="M276.06,210.61c-6.51,4.27-11.64,10.62-15.94,16.97-.39.58.55,1.31.99.75,4.81-6.03,10.45-11.15,15.71-16.75.46-.49-.14-1.38-.77-.97Z"/>
    <path class="cls-3" d="M272.04,249.74c-6.01.74-11.83,2.37-17.96,2.4-.81,0-.76,1.12,0,1.21,6.13.73,12.75,1.05,18.57-1.37,1.09-.45.56-2.38-.62-2.23Z"/>
    <path class="cls-3" d="M314.54,191.8c-2.11,1.99-3.82,4.37-5.63,6.62-.65.81.48,1.97,1.18,1.16,1.93-2.24,4.02-4.41,5.63-6.89.47-.72-.58-1.46-1.18-.89Z"/>
    <path class="cls-3" d="M328.01,183.8c-.89.61-1.62,1.42-2.39,2.17-.76.74.42,1.91,1.18,1.16.76-.75,1.59-1.47,2.21-2.34.41-.58-.41-1.39-1-.98Z"/>
    <path class="cls-3" d="M231.12,108.24c-2.3,9.69-5.06,19.6-6.61,29.42-.22,1.42,1.67,1.95,2.2.6,3.6-9.3,5.34-19.88,6.46-29.75.13-1.15-1.78-1.38-2.04-.27Z"/>
    <path class="cls-3" d="M211.74,136.44c-.05-1.25-1.92-1.25-1.97,0-.25,6.01-.57,11.93.15,17.92.13,1.05,1.54,1.05,1.67,0,.72-5.98.4-11.91.15-17.92Z"/>
    <path class="cls-3" d="M243.89,157.59c-6.09.3-12.57,3.54-17.67,6.63-1.03.62-.36,2.51.86,2.01,2.97-1.21,6-2.38,9.05-3.39,2.81-.93,5.76-1.49,8.47-2.67,1.29-.56.63-2.65-.71-2.58Z"/>
    <path class="cls-3" d="M258.35,130.31c-5.71,3.14-10.92,6.99-16.21,10.76-1.13.8-.09,2.65,1.12,1.87,5.55-3.56,11.13-7.01,16.22-11.19.84-.68-.23-1.94-1.13-1.44Z"/>
    <path class="cls-3" d="M269.78,102.94c-3.68,2.52-6.89,5.87-10.19,8.84-.99.89.48,2.31,1.47,1.44,3.28-2.88,6.93-5.63,9.8-8.91.61-.7-.19-1.97-1.07-1.36Z"/>
    <path class="cls-3" d="M247.82,89.11c-.93,5.94-2.6,11.72-3.53,17.66-.14.91,1.23,1.72,1.68.7,2.52-5.74,3.33-11.9,3.86-18.09.1-1.11-1.83-1.39-2-.27Z"/>
    <path class="cls-3" d="M274.87,64.82c-3.82,3.14-6.34,7.98-8.14,12.45-.48,1.18,1.46,1.68,1.94.52,1.85-4.51,4.72-8.04,7.51-11.98.58-.81-.63-1.55-1.31-.99Z"/>
    <path class="cls-3" d="M291.89,77.76c-1.72,1.25-3.05,3.04-4.45,4.63-1.53,1.73-2.96,3.53-4.41,5.32-.89,1.1.57,2.65,1.61,1.58,1.6-1.64,3.22-3.27,4.75-4.98,1.41-1.57,3.1-3.11,4.12-4.95.53-.94-.61-2.34-1.63-1.6Z"/>
    <path class="cls-3" d="M299.74,51.86c-3.18,3.78-6.22,7.6-9.87,10.97-.97.9.5,2.35,1.47,1.44,3.63-3.42,7.11-7.2,9.5-11.58.36-.65-.57-1.46-1.1-.83Z"/>
    <path class="cls-3" d="M404.32,59.09c-8.12,6.14-14.21,15.31-19.99,23.53-.68.97.89,1.81,1.59.91,6.22-7.97,13.89-14.94,19.68-23.18.51-.73-.54-1.82-1.28-1.26Z"/>
    <path class="cls-3" d="M461.2,42.33c-5.58,2.08-10.64,5.15-15.82,8.04-1.26.7-.15,2.55,1.13,1.9,5.22-2.64,10.56-5.07,15.32-8.47.68-.49.31-1.81-.63-1.47Z"/>
    <path class="cls-3" d="M391.49,106.38c-6.29.83-12.36,3.24-18.28,5.41-1.78.65-1.1,3.29.79,2.83,6.25-1.53,12.74-2.96,18.52-5.83,1.48-.74.34-2.59-1.03-2.41Z"/>
  </g>
</svg>