<?xml version="1.0" encoding="UTF-8"?>
<svg id="Objects" xmlns="http://www.w3.org/2000/svg" viewBox="0 0 500 500">
  <defs>
    <style>
      .cls-1 {
        fill: #de953d;
      }

      .cls-2 {
        fill: #b7572c;
      }

      .cls-3 {
        fill: #280d05;
      }

      .cls-4 {
        fill: #f9da55;
      }
    </style>
  </defs>
  <path class="cls-4" d="M241.67,102.31c7.65-7.36,16.41-13.29,26.16-17.82-.26-.35-.35-.83-.09-1.3,2.49-4.57,6.88-8.17,9.9-12.45,2.21-3.13,4.15-6.41,5.88-9.8-8.96,3.56-16.45,8.75-24.3,14.51-3.61,9.24-8.93,17.73-16.27,23.68-.41,1.07-.83,2.13-1.28,3.18ZM261.05,82.78c3.07-3.37,5.98-7.06,9.34-10.15.49-.45,1.4.17.96.73-2.82,3.64-6.28,6.91-9.42,10.29-.55.59-1.42-.28-.89-.87Z"/>
  <path class="cls-1" d="M237.56,110.86c-1.65,3.1-3.42,6.13-5.29,9.09-.16.25-.39.4-.65.46-.15,1.19-.34,2.37-.62,3.5,7.72-7.08,17.88-11.45,28.21-14.78,2.76-3.61,6.11-6.79,8.76-10.53,2.98-4.18,5.49-8.62,7.66-13.23-14.55,5.56-27.42,14.29-38.07,25.48ZM251.6,104.51c3.83-3.24,7.56-6.71,11.68-9.6.61-.43,1.26.49.78.99-3.47,3.53-7.47,6.6-11.25,9.8-.83.7-2.04-.48-1.21-1.19Z"/>
  <path class="cls-4" d="M260.81,51.52c-4.85,4.64-8.79,9.82-12.94,15.13.83,7.79.06,15.46-1.83,22.9,2.96-4.13,5.83-8.29,8.03-13.02,3.71-7.98,5.82-16.37,6.75-25ZM250.84,75.11c.29-5.39,2.71-10.26,5.67-14.73.7-1.07,2.38-.12,1.74,1-2.53,4.44-3.95,9.22-5.76,13.95-.31.82-1.7.77-1.65-.22Z"/>
  <path class="cls-4" d="M288.87,30.1c.56-3.01,1.66-6.02,2.92-8.98-4.48,5.41-8.47,11.21-11.98,17.29-.02.03-.04.04-.06.07-.02.06-.03.13-.04.19,2.64-3.28,5.64-6.14,9.16-8.57Z"/>
  <path class="cls-4" d="M276.61,60.07c6.81-9.07,12.76-18.03,16.04-28.77-5.65,3.38-10.69,7.66-14.52,12.98-2.54,7.77-6.29,15.12-11.37,21.57,3.07-2.21,6.41-4.13,9.84-5.78Z"/>
  <path class="cls-4" d="M264.29,55.72c-.56,3.87-1.38,7.79-2.47,11.7,7.14-9.4,12.38-19.46,15.01-30.85-4.96,5.98-8.97,12.23-12.54,19.15ZM269.39,53.62c-.51.69-1.65.29-1.43-.59.57-2.32,2.08-4.66,3.11-6.83.46-.97,1.89-.12,1.45.83-.96,2.12-1.76,4.7-3.13,6.59Z"/>
  <path class="cls-1" d="M144.06,420.98c1.2,21-2.43,41.91.23,62.74,2.07-4.24,5.03-7.92,9.01-11.18.51-.42,1.07-.56,1.6-.51-8.15-28.78-1.42-61.22,15.51-85.8,17.27-25.07,44.32-41.49,71.74-54.1,32.69-15.02,67.34-26.05,97.15-46.53,27.01-18.55,62.12-49.07,58.88-84.31-11.23,47.77-70.33,72.78-111.1,90.87-50,22.18-106.28,47.27-129.72,99.74-.71,1.59-3.49.42-2.86-1.18,1.91-4.83,4.11-9.42,6.54-13.83,4.36-18.8,17.16-37.49,28.17-53.13,10.99-15.62,24.01-30.08,38.67-42.48,12.21-10.33,29.86-26.47,46.71-27.5,17.87-1.1,21.49,15.31,20.3,29.39,0,.11-.06.18-.08.28,4.32-1.88,8.65-3.79,12.98-5.77-2.44-18.58-.63-50.47-29.08-43.06-18.02,4.69-35.28,16.13-49.21,27.94-31,26.28-50.09,60.34-69.74,94.84-.33.58-1.32.18-1.1-.45,7-20.01,19.39-39.64,32.03-57.29-.03-.18-.03-.38.06-.6,12.53-30.73,33.96-59.72,54.1-86.06,20.2-26.41,42.9-51.04,67.37-73.66-.38-.5-.7-1.05-.94-1.68-.34-.18-.64-.44-.8-.88-.03-.08-.04-.15-.07-.23-31.59,27.61-60.81,56.59-85.34,90.67-22.81,31.69-40.06,65.97-56.29,101.13-.05.78-.08,1.56-.13,2.34-.08,1.09-.87,1.59-1.66,1.56-.77,1.69-1.55,3.37-2.32,5.06-.4.89-1.82.24-1.56-.65.67-2.3,1.39-4.59,2.12-6.87-3.71-31.45,3.34-66.92,12.29-96.96,9.28-31.12,23.45-59.88,42.03-86.59-.02-.17,0-.35.12-.53.85-1.26,1.74-2.46,2.67-3.66-.8-.38-1.58-.81-2.3-1.37-21.6,25.37-37.58,54.41-47.46,86.13-10.91,34.96-12.92,70.45-15.73,106.43.13.78.3,1.56.42,2.34.11.71-.24,1.35-.74,1.75-.19,2.38-.39,4.77-.59,7.16-.11,1.26-1.88,1.25-1.99,0-.26-3.05-.45-6.12-.61-9.19-8.39-16.78-11.31-38.21-14.04-56.43-2.8-18.64-4.09-37.51-3.74-56.35.57-30.55,4.82-61.92,13.83-91.53-7.45,15.55-13.83,31.4-17.98,48.55-5.91,24.43-8.01,49.79-6.07,74.84,2.12,27.27,10.11,53.41,16.52,79.89,5.58,23,11.19,48.41,5.42,71.88-.26,1.05-1.86.79-1.87-.25-.05-6.53-.34-12.93-.79-19.28-29.72-35.81-47.74-86.84-50.03-134.52-.2,14.93.59,29.74,3.54,44.78,4.47,22.77,12.35,44.81,23.64,65.19,10.63,19.21,20.98,36.58,22.25,58.93Z"/>
  <path class="cls-2" d="M147.76,429.34c-.76-7.54-1.14-15.05-1.34-22.56-.48,0-.97-.33-.98-.9-.05-6.53-.34-12.93-.79-19.28-29.72-35.81-47.74-86.84-50.03-134.52-.2,14.93.59,29.74,3.54,44.78,4.47,22.77,12.35,44.81,23.64,65.19,10.63,19.21,20.98,36.58,22.25,58.93,1.2,21-2.43,41.91.23,62.74,2.07-4.24,5.03-7.92,9.01-11.18.51-.42,1.07-.56,1.6-.51-2.45-8.66-3.54-17.65-3.42-26.65-2.43-4.89-3.21-10.76-3.73-16.04Z"/>
  <path class="cls-2" d="M168.67,330.69c-.06.85-.56,1.33-1.15,1.49-.29,2.21-.62,4.41-1.06,6.58,6.81-13.63,15.46-26.85,24.24-39.11-.03-.18-.03-.38.06-.6,12.53-30.73,33.96-59.72,54.1-86.06,20.2-26.41,42.9-51.04,67.37-73.66-.38-.5-.7-1.05-.94-1.68-.34-.18-.64-.44-.8-.88-.03-.08-.04-.15-.07-.23-31.59,27.61-60.81,56.59-85.34,90.67-22.81,31.69-40.06,65.97-56.29,101.13-.05.78-.08,1.56-.13,2.34Z"/>
  <path class="cls-2" d="M288.57,253.62c-3.68-.53-7.28-.41-10.78.16,15.12.94,18.23,16.19,17.12,29.39,0,.11-.06.18-.08.28,4.32-1.88,8.65-3.79,12.98-5.77-.18-1.37-.34-2.81-.48-4.31-2.42-9.56-7.68-18.17-18.75-19.75Z"/>
  <path class="cls-2" d="M398.2,201.3c-11.23,47.77-70.33,72.78-111.1,90.87-38.12,16.91-79.88,35.53-107.96,66.67,16.54-17.03,37.27-30.46,58.57-40.49,18.92-8.92,38.7-14.62,58.86-20.17,11-3.03,22.21-6.07,32.77-10.39,8.55-3.5,16.51-8.04,24.39-12.76,23.54-18.59,47.16-44.53,44.48-73.72Z"/>
  <path class="cls-4" d="M233.24,111.63c5.92-14.59,11.94-28.74,10.2-44.73-8.68,11.13-11.11,23.11-12.89,37.11.69,3.04,1.14,6.19,1.3,9.31.45-.59.93-1.12,1.39-1.69ZM234.26,94.19c1.41-6.43,3.49-12.75,7.05-18.37.35-.56,1.4-.18,1.12.46-2.56,6.03-4.99,11.97-6.48,18.36-.25,1.09-1.94.62-1.7-.46Z"/>
  <path class="cls-1" d="M224.86,134.76c-.03.3-.13.61-.38.89-.58.65-1.14,1.31-1.72,1.96.9.56,1.88.94,2.9,1.22.21-.01.41.04.57.17,8.53,1.94,20.4-4.34,26.34-8.3,8.03-5.35,14.28-12.59,18.57-21.02-3.93,1.13-7.74,2.31-11.45,3.62-.06.03-.12.07-.17.11-3.37,6.43-10.18,11.32-16.6,14.5-1.19.59-2.23-1.13-1.05-1.76,5.61-2.96,9.64-6.94,13.75-11.32-10.3,4-19.7,9.18-28.25,17.12-.71.97-1.47,1.9-2.37,2.73-.04.04-.1.05-.15.07Z"/>
  <path class="cls-1" d="M223.1,133.08c.13-.02.25-.02.38-.02.18-.3.38-.57.56-.86.67-5.73,2.9-11.2,3.13-17.1.26-6.6-1.13-12.97-3.65-18.99-4.51,11.9-7.17,24.78-.57,36.5.09.16.11.31.15.47ZM222.25,108.14c-.01-1.08,1.67-1.07,1.71,0,.25,6.37,1.26,13.16.31,19.49-.1.67-1.22.64-1.35,0-1.28-6.27-.6-13.12-.67-19.49Z"/>
  <path class="cls-4" d="M387.63,35.59c.75-1.67,1.54-3.33,2.35-4.97-2.41,1.82-4.65,3.84-6.77,5.98,1.11-.57,2.27-1.18,3.44-1.44.39-.09.78.12.98.43Z"/>
  <path class="cls-1" d="M314,131.31c.4-.38.81-.73,1.22-1.1,2.12-5.41,4-10.91,5.17-16.62.08-.4,2.08-19.21,2.22-24.9-.6.35-1.54.22-1.66-.57-.02-.15-.04-.3-.06-.44-4.1,3.41-9.05,19.98-9.55,22.62-1.28,6.76-.89,13.47.74,20.02.77-.15,1.51.33,1.92,1ZM316.25,98.2c.26-1.05,1.91-.8,1.9.25-.08,8.13-1.47,16.67-3.27,24.6-.19.84-1.53.64-1.51-.2.2-8.11.95-16.74,2.88-24.65Z"/>
  <path class="cls-2" d="M281.4,341.63c10.95-9.13,19.88-20.19,26.58-32.88-5.58,2.73-11.24,5.34-16.98,7.85-.27,8.56-4.1,17.48-9.61,25.02Z"/>
  <path class="cls-4" d="M384.7,43.28c.63-2.16,1.43-4.28,2.33-6.36-1.14.81-2.52,1.38-3.75,2.01-.75.39-1.44-.15-1.6-.76-2.19,2.37-4.21,4.89-5.98,7.58-.01,1.57-.06,3.16-.17,4.75,2.69-2.75,5.79-4.91,9.21-6.49-.09-.2-.13-.44-.05-.72Z"/>
  <path class="cls-1" d="M315.05,136.61c6.22,6.4,25.04-1.17,30.55-4.03,7.87-4.08,13.98-10.07,18.71-17.26-17.42,1.55-31.97,8.07-46.68,16.8-.8,1.52-1.66,3.02-2.59,4.49ZM328.56,132.5c7.63-2.98,13.56-7.65,20.02-12.48.98-.73,1.84.76,1.2,1.53-5.11,6.25-13.09,10.31-20.65,12.99-1.33.47-1.84-1.55-.58-2.04Z"/>
  <path class="cls-4" d="M323.93,123.72c10.09-6.29,21.92-10.01,33.79-11.7.02-.15.07-.3.17-.46,4.42-7.09,9.02-13.89,12.98-21.19-14.25,3.89-26.87,11.39-37.49,21.5-2.56,4.31-5.7,8.31-9.45,11.85ZM344.84,108.57c2.97-2.39,5.86-5.03,9.04-7.15.7-.46,1.45.56.88,1.12-2.68,2.61-5.82,4.83-8.73,7.19-.83.67-2.02-.49-1.19-1.17Z"/>
  <path class="cls-1" d="M337.61,80.28c-4.35,5.86-8.06,12.01-11.43,18.51-.23,3.2-.66,6.3-.99,8.87-.65,4.94-1.74,9.74-3.29,14.39,10.03-12.05,15.84-26.19,15.71-41.77ZM331.3,90.66c.21-1.11,1.87-.62,1.7.46-.75,4.91-1.29,9.92-2.75,14.69-.21.68-1.32.57-1.29-.17.22-5.04,1.4-10.03,2.34-14.98Z"/>
  <path class="cls-4" d="M380.36,60.42c2.77-5.16,6.29-9.96,9.5-14.92-5.63,1.24-10.74,4.2-14.67,8.39-.47,3.7-1.29,7.34-2.67,10.67,2.46-1.35,5.04-2.52,7.71-3.53-.02-.19,0-.39.12-.61ZM377.85,56.61c.91-.99,1.81-1.99,2.72-2.98.84-.92,1.66-2,2.74-2.65.81-.49,1.6.46,1.23,1.2-.56,1.11-1.6,2.02-2.45,2.93-.92.98-1.84,1.96-2.77,2.94-.91.97-2.35-.47-1.47-1.44Z"/>
  <path class="cls-4" d="M351.2,94.52c-.19-.17-.31-.44-.23-.77,2.6-11.76,5.44-22.27,4.69-34.13-7.4,7.99-11.8,17.52-14.39,28.11-.63,5.91-2.05,11.68-4.34,17.1,4.36-4,9.15-7.41,14.26-10.31ZM349.58,71.05c.06-1.33,1.97-1.29,2.08,0,.56,6.57.43,13.88-1.96,20.13-.44,1.15-2.48,1.09-2.35-.31.61-6.63,1.92-13.13,2.23-19.82Z"/>
  <path class="cls-4" d="M371.34,86.3c-.19-.21-.25-.51-.04-.8,4.96-6.74,9.2-14.04,12.42-21.75-2.3.52-4.52,1.24-6.68,2.1.03.21.01.43-.1.65-2.77,5.36-7.01,10.07-10.67,14.85-1.01,1.32-3.3.08-2.31-1.32,2.91-4.08,5.67-8.46,8.97-12.3-5.34,2.78-10.11,6.57-14.13,11.16-1.03,5.23-2.86,10.24-5.79,14.62,5.73-3.06,11.87-5.45,18.33-7.21Z"/>
  <path class="cls-4" d="M370.98,65.45c-.41-.18-.75-.54-.75-1,.05-6.17.96-12.37,1.51-18.57-1.58,1.76-3.04,3.62-4.45,5.51.3.17.52.45.48.85-.51,4.8-.41,10.45-2.15,15-.41,1.08-1.91.88-2.01-.27-.35-4.13.77-8.62,1.64-12.8-2,2.92-3.84,5.95-5.5,9.05.2,3.71.17,7.5-.25,11.24,3.45-3.56,7.3-6.54,11.49-9.02Z"/>
  <g>
    <path class="cls-3" d="M409.71,31.46c.54-.53-.18-1.54-.85-1.08-5,3.51-9.65,7.45-14.24,11.47-.41-.34-.98-.53-1.63-.41-1.88.32-3.69.8-5.43,1.41,3.26-5.12,5.55-10.88,8.11-16.34.19-.39.19-.82.08-1.21,1.99-2.71,3.92-5.43,5.58-8.37.33-.59-.5-1.29-.99-.75-2.19,2.49-4.1,5.14-5.97,7.84-.31-.03-.64.03-.98.24-7.33,4.54-13.23,10.28-17.78,17.2,0-.13,0-.26,0-.38,0-.17-.05-.34-.1-.5,1.16-4.37,2.39-8.77,2.93-13.25.12-1-1.4-1.08-1.71-.23-1.41,3.96-2.23,8.12-3.07,12.24-.38.02-.76.16-1.07.51-5.24,5.88-9.67,11.99-13.22,18.79-.14-1.23-.28-2.46-.46-3.65-.19-1.24-1.74-1.59-2.73-1.06,1.59-6.45,3.28-12.89,3.97-19.5.09-.82-1.15-.89-1.4-.19-2.32,6.57-3.54,13.44-4.96,20.24-.12.55.16.96.56,1.17-5.86,5.95-10.38,12.87-12.9,20.54-.04-.47-.05-.94-.1-1.41-.11-1.15-1.39-2.22-2.51-1.96.33-4.25.75-8.66.16-12.79-.15-1.09-2.04-1.07-2.22,0-.81,4.81-.24,10.03-.06,14.91-4.53,5.83-8.04,11.99-10.42,18.81-.08-3.6-.6-7.06-2.04-9.75-.21-.39-.67-.75-1.15-.89.3-4.86,1.49-9.53,2.74-14.33.3-1.14-1.32-1.84-1.95-.81-2.92,4.82-3.71,10.28-3.4,15.74-5.58,2.83-9.35,13.59-10.86,18.3-3.17,9.91-3.22,20.35-.53,30.28-33.19,24.95-61.94,56.59-86.22,89.81-21.54,29.46-40.89,61.79-53.62,96.09.42-12.24.52-24.44,2.1-36.7,2.08-16.1,5.46-32.07,9.98-47.68,8.82-30.47,22.26-60.01,39.46-86.86.11-.04.22-.11.31-.21,1.08-1.15,2.1-2.32,3.09-3.55.11-.13.21-.26.32-.39,7.97,2.19,18.42-2.29,24.96-5.77,12.27-6.54,21.36-16.9,26.85-29.38,2.69-1.48,5.21-3.18,7.75-4.92,2.7-1.84,5.59-3.61,7.84-5.98,1.02-1.07-.26-2.52-1.53-1.95-3.27,1.46-6.1,3.83-8.98,5.92-1.92,1.4-3.82,2.81-5.62,4.34-.49-.32-1.1-.47-1.64-.32-2.25.61-4.55,1.24-6.87,1.89,6.18-7.04,10.65-16.5,13.87-24.22.07-.16.1-.33.11-.49,4.04-2.19,7.45-5.32,9.39-9.55.33-.71-.6-1.62-1.21-.91-2.82,3.27-5.87,6.29-9.45,8.68-.4-.17-.84-.23-1.25-.09-1.9.64-3.76,1.33-5.6,2.06,2.55-2.36,4.66-5.37,6.62-8.05,3.54-4.84,6.44-10.02,8.87-15.47.58-1.29-.39-3.18-2.06-2.62-1.69.56-3.38,1.18-5.07,1.86,7.2-8.24,11.71-18.52,14.9-28.83,3.99-4.3,8.34-8.52,11.39-13.49.49-.81-.57-1.43-1.23-.93-4.47,3.41-8.08,7.89-11.79,12.11-.16.03-.31.07-.46.14-.4.19-.77.4-1.16.61,2.09-4.44,3.45-9.51,5.11-13.86.05-.14.07-.28.07-.42.52-.83,1.05-1.66,1.53-2.51.8-1.39,1.78-2.83,2.11-4.41.22-1.07-1.09-1.97-1.95-1.11-1.16,1.16-1.81,2.72-2.54,4.16-.43.84-.83,1.69-1.22,2.54-.18.07-.36.16-.51.31-5.84,6.07-10.8,12.64-14.74,19.93.04-.26.1-.52.14-.78.12-.78-.3-1.51-.91-1.87,1.37-4.54,2.88-9.25,2.85-13.9,0-.64-.96-.95-1.27-.34-2.37,4.61-3.09,10.07-4.05,15.17-4.99,5.18-9.33,11.05-12.69,17.41.02-.35.07-.72.09-1.07.04-.84-.43-1.41-1.06-1.68.7-3.86,1.42-7.72,1.61-11.65.04-.77-1.14-.9-1.34-.18-1.12,3.91-1.67,7.92-2.28,11.93-.11.06-.23.12-.33.2-5.66,4.68-11.06,10.1-14.65,16.51-.04-.23-.08-.45-.12-.68-.13-.66-.63-1.13-1.23-1.38,2.36-4.9,3.11-11.19,2.62-16.23-.09-.97-1.66-1.37-1.87-.25-.64,3.38-1.04,6.78-1.74,10.15-.49,2.35-1.24,4.64-1.7,6.99-8.16,9-14.78,20.95-15.86,33.23-.63-1.5-1.3-2.91-1.98-4.19-.38-.7-1.04-1.01-1.73-1.03.59-5.83.36-12.02-.45-17.7-.13-.91-1.74-.91-1.87,0-.93,6.44-1.15,13.55-.21,20.01-4.49,14.63-9.17,29.25-1.15,43.58.2.37.48.57.79.7-.27.26-.53.54-.8.81-1.05,0-1.95.92-1.94,1.97-23.15,23.63-38.91,53.41-49.03,84.5-9.62,29.54-15.26,61.9-15.81,93.59-3.13-12.12-6.79-24.19-8.71-36.59-3-19.4-4.3-39.04-4.04-58.65.52-38.6,8.47-75.32,20.36-111.88.36-.68.72-1.36,1.08-2.04,1.11-2.08-1.8-3.66-3.16-1.81-28.96,39.15-40.74,93.13-38.86,140.77,1.02,25.74,7.13,50.48,13.64,75.32,5.08,19.4,8.71,38.23,10.59,57.56-13.77-21.84-26.23-43.84-34.32-68.6-9.13-27.97-12.46-55.81-13.52-85-.03-.84-1.59-.82-1.59,0v.03c0-.18-.94-.01-1.08.64-8.82,41.97.51,89.21,18.83,127.56,11.16,23.35,25.72,42.8,26.92,69.54,1.07,23.71-3.52,47.38,2.19,70.79.5,2.03,3.99,2.19,4.38,0,1.29-7.35,4.77-13.2,10.6-18,.45-.38.66-.8.7-1.23.86-.16,1.64-.93,1.45-2.05-6.14-37.02,2.75-73.52,30.49-100.34,25.17-24.34,58.8-37.28,90.76-50.55,2.52-1.05,5.03-2.11,7.54-3.19-1.94,5.7-3.62,11.41-6.73,16.75-4.01,6.9-9.45,12.3-15.15,17.84-1.27,1.23.37,3.38,1.93,2.45,19.95-11.95,35.84-28.79,46.22-49.3,19.39-9.91,37.63-21.56,53.89-36.62,22.11-20.48,44.02-48.88,32.66-80.25-.94-2.59-5.11-1.53-4.24,1.15.08.24.13.48.2.72-9.05,43.44-45.83,66.92-84.78,85.11-1.55-15.88.98-38.31-16.93-45.61-16.22-6.61-40.27,9.19-52.96,17.74-13.8,9.29-26.09,20.68-36.8,33.32,4.73-8.05,9.34-16.16,14.37-24.02,8.95-13.99,18.46-27.65,28.46-40.94,20.18-26.83,42.23-52.11,66-75.95,5.6,4.37,18.33,1.13,24.1-.68,13.31-4.18,24.62-13.08,31.72-24.83.41.43,1.04.67,1.73.37,5.32-2.36,11.28-5.57,14.84-10.25.74-.97-.69-2.27-1.67-1.64-4.79,3.08-8.91,6.65-14.06,9.19-.15-.94-.91-1.77-1.99-1.72-2.28.1-4.57.3-6.87.55,6.6-6.56,11.38-14.8,15.13-23.18.23-.52.24-1.06.1-1.55,5.85-1.64,12.15-4.14,16.37-8.41.91-.92-.24-2.35-1.38-1.75-5.84,3.05-10.93,6.57-17.33,8.57-.27.09-.45.25-.58.43-.14.04-.28.08-.43.12,7.39-6.83,12.54-14.86,15.98-24.25.06-.17.09-.34.1-.5,4.07-2.1,8.2-4.13,11.99-6.68.62-.41.25-1.6-.55-1.28-4.32,1.73-8.36,3.99-12.43,6.2-.51-.32-1.13-.47-1.72-.31-.77.21-1.52.45-2.28.68,4.56-4.26,8.01-10,10.72-15.44,5.1-4.07,10.15-8.18,14.76-12.77ZM389.98,30.62c-.81,1.64-1.6,3.3-2.35,4.97-.2-.3-.59-.51-.98-.43-1.17.25-2.33.87-3.44,1.44,2.12-2.14,4.37-4.16,6.77-5.98ZM375.7,45.75c1.77-2.69,3.79-5.21,5.98-7.58.16.61.85,1.15,1.6.76,1.22-.64,2.61-1.2,3.75-2.01-.9,2.09-1.7,4.2-2.33,6.36-.08.28-.05.52.05.72-3.42,1.58-6.52,3.74-9.21,6.49.11-1.59.16-3.18.17-4.75ZM359.74,63.23c1.66-3.1,3.5-6.13,5.5-9.05-.86,4.18-1.99,8.67-1.64,12.8.1,1.14,1.6,1.34,2.01.27,1.73-4.56,1.64-10.2,2.15-15,.04-.4-.17-.69-.48-.85,1.41-1.89,2.88-3.75,4.45-5.51-.55,6.19-1.46,12.4-1.51,18.57,0,.46.34.82.75,1-4.19,2.48-8.05,5.46-11.49,9.02.42-3.74.45-7.52.25-11.24ZM341.28,87.73c2.59-10.6,6.99-20.12,14.39-28.11.75,11.86-2.09,22.37-4.69,34.13-.07.33.04.6.23.77-5.11,2.9-9.9,6.32-14.26,10.31,2.28-5.42,3.71-11.19,4.34-17.1ZM325.19,107.67c.34-2.57.77-5.67.99-8.87,3.37-6.5,7.07-12.65,11.43-18.51.13,15.59-5.68,29.72-15.71,41.77,1.55-4.65,2.64-9.45,3.29-14.39ZM275.63,85.38c-2.17,4.61-4.69,9.04-7.66,13.23-2.65,3.73-6,6.92-8.76,10.53-10.33,3.33-20.49,7.7-28.21,14.78.28-1.14.47-2.31.62-3.5.25-.06.49-.21.65-.46,1.87-2.96,3.64-5.99,5.29-9.09,10.65-11.19,23.52-19.91,38.07-25.48ZM279.76,38.48s.04-.04.06-.07c3.51-6.08,7.5-11.88,11.98-17.29-1.26,2.96-2.37,5.97-2.92,8.98-3.52,2.43-6.52,5.29-9.16,8.57.01-.06.03-.13.04-.19ZM278.13,44.28c3.82-5.31,8.87-9.59,14.52-12.98-3.29,10.74-9.23,19.7-16.04,28.77-3.43,1.65-6.76,3.57-9.84,5.78,5.07-6.45,8.83-13.81,11.37-21.57ZM264.29,55.72c3.57-6.92,7.58-13.17,12.54-19.15-2.63,11.39-7.86,21.45-15.01,30.85,1.09-3.91,1.91-7.83,2.47-11.7ZM247.87,66.65c4.16-5.31,8.1-10.49,12.94-15.13-.93,8.64-3.05,17.02-6.75,25-2.2,4.73-5.07,8.89-8.03,13.02,1.89-7.44,2.66-15.11,1.83-22.9ZM259.23,75.44c7.85-5.76,15.35-10.94,24.3-14.51-1.73,3.39-3.67,6.66-5.88,9.8-3.02,4.28-7.42,7.88-9.9,12.45-.26.47-.17.95.09,1.3-9.75,4.53-18.51,10.46-26.16,17.82.45-1.05.87-2.11,1.28-3.18,7.34-5.95,12.66-14.44,16.27-23.68ZM243.44,66.9c1.74,15.98-4.28,30.13-10.2,44.73-.46.57-.94,1.11-1.39,1.69-.16-3.12-.61-6.27-1.3-9.31,1.79-14,4.22-25.98,12.89-37.11ZM227.39,131.96c8.54-7.94,17.95-13.12,28.25-17.12-4.11,4.38-8.14,8.36-13.75,11.32-1.18.62-.14,2.35,1.05,1.76,6.42-3.18,13.23-8.07,16.6-14.5.06-.04.12-.07.17-.11,3.7-1.31,7.52-2.49,11.45-3.62-4.29,8.43-10.53,15.68-18.57,21.02-5.95,3.96-17.81,10.23-26.34,8.3-.16-.13-.36-.18-.57-.17-1.02-.28-2-.67-2.9-1.22.57-.65,1.13-1.32,1.72-1.96.25-.28.35-.59.38-.89.05-.03.11-.03.15-.07.9-.83,1.66-1.76,2.37-2.73ZM223.52,96.12c2.52,6.02,3.91,12.39,3.65,18.99-.23,5.9-2.46,11.37-3.13,17.1-.18.29-.38.57-.56.86-.12,0-.25,0-.38.02-.04-.15-.06-.31-.15-.47-6.6-11.72-3.93-24.6.57-36.5ZM281.4,341.63c5.5-7.54,9.34-16.46,9.61-25.02,5.73-2.51,11.4-5.12,16.98-7.85-6.71,12.68-15.63,23.75-26.58,32.88ZM244.87,213c-20.15,26.33-41.58,55.33-54.1,86.06-.09.22-.09.42-.06.6-12.64,17.65-25.02,37.28-32.03,57.29-.22.63.77,1.03,1.1.45,19.65-34.51,38.74-68.56,69.74-94.84,13.93-11.81,31.19-23.25,49.21-27.94,28.45-7.41,26.64,24.48,29.08,43.06-4.32,1.98-8.65,3.89-12.98,5.77.02-.1.07-.17.08-.28,1.19-14.08-2.43-30.48-20.3-29.39-16.85,1.04-34.5,17.17-46.71,27.5-14.66,12.4-27.68,26.86-38.67,42.48-11.02,15.65-23.81,34.34-28.17,53.13-2.43,4.4-4.63,9-6.54,13.83-.63,1.6,2.15,2.77,2.86,1.18,23.44-52.48,79.73-77.56,129.72-99.74,40.76-18.09,99.87-43.1,111.1-90.87,3.24,35.24-31.87,65.76-58.88,84.31-29.81,20.48-64.47,31.51-97.15,46.53-27.42,12.6-54.47,29.03-71.74,54.1-16.93,24.58-23.66,57.02-15.51,85.8-.53-.04-1.09.1-1.6.51-3.99,3.26-6.95,6.94-9.01,11.18-2.66-20.83.96-41.74-.23-62.74-1.27-22.35-11.62-39.72-22.25-58.93-11.28-20.39-19.16-42.42-23.64-65.19-2.95-15.04-3.74-29.85-3.54-44.78,2.28,47.68,20.31,98.71,50.03,134.52.45,6.35.74,12.75.79,19.28,0,1.04,1.62,1.29,1.87.25,5.77-23.47.15-48.87-5.42-71.88-6.42-26.48-14.41-52.62-16.52-79.89-1.94-25.04.16-50.41,6.07-74.84,4.15-17.15,10.53-33,17.98-48.55-9,29.61-13.26,60.98-13.83,91.53-.35,18.85.94,37.71,3.74,56.35,2.73,18.22,5.66,39.65,14.04,56.43.16,3.08.35,6.15.61,9.19.11,1.25,1.88,1.26,1.99,0,.2-2.39.4-4.77.59-7.16.51-.4.85-1.03.74-1.75-.12-.78-.29-1.56-.42-2.34,2.81-35.98,4.82-71.46,15.73-106.43,9.89-31.72,25.86-60.76,47.46-86.13.72.56,1.5.99,2.3,1.37-.94,1.19-1.83,2.4-2.67,3.66-.12.18-.14.35-.12.53-18.58,26.71-32.75,55.47-42.03,86.59-8.95,30.04-16.01,65.52-12.29,96.96-.74,2.28-1.45,4.57-2.12,6.87-.26.89,1.16,1.53,1.56.65.77-1.69,1.54-3.37,2.32-5.06.8.03,1.59-.47,1.66-1.56.05-.78.09-1.56.13-2.34,16.23-35.15,33.48-69.44,56.29-101.13,24.53-34.08,53.75-63.06,85.34-90.67.03.08.04.15.07.23.16.44.46.71.8.88.24.63.56,1.18.94,1.68-24.47,22.62-47.17,47.25-67.37,73.66ZM290.02,285.26c.03.09.1.14.15.21-9.03,3.9-17.95,7.67-26.4,11.46-35.58,15.97-71.39,35.65-94.13,66.59,4.14-8.49,8.07-17.11,13.16-25.19,8.64-13.69,18.98-26.53,30.49-38.02,11.12-11.1,23.24-21.18,36.4-29.9,6.41-4.25,13.71-9.65,21.34-11.37,16.8-3.79,19.58,9.98,19.23,22.11-.07.36-.14.72-.19,1.08-.14,1-.38,2.04-.05,3.02ZM312.09,130.31c-1.63-6.55-2.02-13.26-.74-20.02.5-2.64,5.45-19.22,9.55-22.62.02.15.03.3.06.44.13.79,1.07.93,1.66.57-.15,5.69-2.14,24.5-2.22,24.9-1.17,5.71-3.05,11.21-5.17,16.62-.41.36-.82.72-1.22,1.1-.41-.67-1.15-1.15-1.92-1ZM364.32,115.32c-4.73,7.19-10.85,13.18-18.71,17.26-5.51,2.86-24.32,10.44-30.55,4.03.93-1.47,1.79-2.97,2.59-4.49,14.71-8.73,29.26-15.25,46.68-16.8ZM357.88,111.55c-.1.16-.15.31-.17.46-11.87,1.69-23.7,5.41-33.79,11.7,3.75-3.54,6.89-7.54,9.45-11.85,10.62-10.11,23.24-17.61,37.49-21.5-3.96,7.3-8.57,14.1-12.98,21.19ZM371.3,85.5c-.21.29-.15.59.04.8-6.46,1.77-12.6,4.15-18.33,7.21,2.93-4.38,4.76-9.39,5.79-14.62,4.02-4.59,8.79-8.38,14.13-11.16-3.3,3.84-6.06,8.22-8.97,12.3-1,1.4,1.29,2.64,2.31,1.32,3.66-4.79,7.9-9.5,10.67-14.85.12-.22.13-.44.1-.65,2.16-.86,4.38-1.58,6.68-2.1-3.22,7.71-7.46,15.01-12.42,21.75ZM380.36,60.42c-.12.22-.14.42-.12.61-2.68,1.02-5.25,2.18-7.71,3.53,1.38-3.32,2.2-6.96,2.67-10.67,3.93-4.2,9.04-7.15,14.67-8.39-3.21,4.95-6.74,9.75-9.5,14.92Z"/>
    <path class="cls-3" d="M223.96,108.14c-.04-1.07-1.72-1.08-1.71,0,.07,6.37-.61,13.22.67,19.49.13.64,1.24.67,1.35,0,.95-6.33-.06-13.12-.31-19.49Z"/>
    <path class="cls-3" d="M263.29,94.91c-4.12,2.89-7.85,6.36-11.68,9.6-.83.71.38,1.89,1.21,1.19,3.78-3.2,7.78-6.26,11.25-9.8.49-.49-.16-1.42-.78-.99Z"/>
    <path class="cls-3" d="M241.31,75.82c-3.56,5.61-5.64,11.94-7.05,18.37-.24,1.08,1.45,1.55,1.7.46,1.48-6.39,3.92-12.33,6.48-18.36.27-.65-.77-1.02-1.12-.46Z"/>
    <path class="cls-3" d="M256.51,60.38c-2.96,4.47-5.38,9.34-5.67,14.73-.05.99,1.34,1.04,1.65.22,1.81-4.73,3.23-9.51,5.76-13.95.64-1.12-1.04-2.07-1.74-1Z"/>
    <path class="cls-3" d="M270.4,72.64c-3.36,3.09-6.28,6.78-9.34,10.15-.54.59.34,1.46.89.87,3.13-3.38,6.6-6.65,9.42-10.29.43-.56-.48-1.18-.96-.73Z"/>
    <path class="cls-3" d="M271.07,46.2c-1.03,2.16-2.54,4.5-3.11,6.83-.22.88.93,1.29,1.43.59,1.37-1.89,2.17-4.47,3.13-6.59.43-.95-.99-1.8-1.45-.83Z"/>
    <path class="cls-3" d="M316.25,98.2c-1.92,7.91-2.67,16.54-2.88,24.65-.02.84,1.32,1.04,1.51.2,1.8-7.93,3.2-16.47,3.27-24.6,0-1.06-1.64-1.31-1.9-.25Z"/>
    <path class="cls-3" d="M348.58,120.02c-6.46,4.83-12.38,9.5-20.02,12.48-1.26.49-.75,2.51.58,2.04,7.55-2.68,15.53-6.74,20.65-12.99.64-.78-.23-2.27-1.2-1.53Z"/>
    <path class="cls-3" d="M353.88,101.43c-3.18,2.11-6.06,4.76-9.04,7.15-.83.67.36,1.84,1.19,1.17,2.9-2.36,6.05-4.59,8.73-7.19.57-.56-.18-1.58-.88-1.12Z"/>
    <path class="cls-3" d="M331.3,90.66c-.94,4.95-2.12,9.93-2.34,14.98-.03.74,1.08.85,1.29.17,1.46-4.76,2-9.78,2.75-14.69.16-1.08-1.49-1.57-1.7-.46Z"/>
    <path class="cls-3" d="M351.66,71.05c-.11-1.29-2.01-1.33-2.08,0-.31,6.68-1.62,13.19-2.23,19.82-.13,1.4,1.91,1.46,2.35.31,2.38-6.25,2.52-13.56,1.96-20.13Z"/>
    <path class="cls-3" d="M383.32,50.98c-1.08.65-1.9,1.73-2.74,2.65-.91.99-1.81,1.99-2.72,2.98-.89.97.56,2.41,1.47,1.44.92-.98,1.84-1.96,2.77-2.94.85-.91,1.9-1.82,2.45-2.93.38-.75-.41-1.69-1.23-1.2Z"/>
  </g>
</svg>